<?xml version="1.0" encoding="utf-8"?>
<!-- Generator: Adobe Illustrator 16.0.4, SVG Export Plug-In . SVG Version: 6.00 Build 0)  -->
<!DOCTYPE svg PUBLIC "-//W3C//DTD SVG 1.1//EN" "http://www.w3.org/Graphics/SVG/1.1/DTD/svg11.dtd">
<svg version="1.1" id="Ebene_1" xmlns="http://www.w3.org/2000/svg" xmlns:xlink="http://www.w3.org/1999/xlink" x="0px" y="0px"
	 width="799.88px" height="800px" viewBox="0 0 799.88 800" enable-background="new 0 0 799.88 800" xml:space="preserve">
<g>
	<g>
		<defs>
			<rect id="SVGID_1_" y="1" width="799.88" height="799.8"/>
		</defs>
		<clipPath id="SVGID_2_">
			<use xlink:href="#SVGID_1_"  overflow="visible"/>
		</clipPath>
		<polygon clip-path="url(#SVGID_2_)" fill="#F0F3EF" points="-8.12,-19.2 -8.12,820.8 822.88,820.8 822.88,-19.2 -8.12,-19.2 		"/>
	</g>
	<g>
		<path d="M83.213,91.909l-2.777-7.998H68.507l-2.777,7.998h-6.554l11.418-31.301h7.731L89.7,91.909H83.213z M74.461,65.429
			l-0.133,0.489c-0.148,0.533-0.326,1.141-0.533,1.821c-0.208,0.682-1.481,4.429-3.821,11.241h8.997l-3.088-8.997l-0.955-3.021
			L74.461,65.429z"/>
		<path d="M100.68,72.094v19.815h-6.22V72.094h-3.51v-4.221h3.51v-2.51c0-2.177,0.578-3.791,1.732-4.843
			c1.155-1.051,2.91-1.577,5.265-1.577c1.17,0,2.488,0.119,3.954,0.355v4.021c-0.607-0.133-1.214-0.2-1.821-0.2
			c-1.066,0-1.818,0.211-2.255,0.633c-0.437,0.422-0.655,1.166-0.655,2.232v1.888h4.731v4.221H100.68z"/>
	</g>
	<g>
		<path d="M117.606,72.094v19.815h-6.22V72.094h-3.51v-4.221h3.51v-2.51c0-2.177,0.578-3.791,1.732-4.843
			c1.155-1.051,2.91-1.577,5.265-1.577c1.17,0,2.488,0.119,3.954,0.355v4.021c-0.607-0.133-1.214-0.2-1.821-0.2
			c-1.066,0-1.818,0.211-2.255,0.633c-0.437,0.422-0.655,1.166-0.655,2.232v1.888h4.731v4.221H117.606z M125.426,63.541v-4.599
			h6.243v4.599H125.426z M125.426,91.909V67.873h6.243v24.037H125.426z"/>
	</g>
	<g>
		<path d="M138.033,91.909V58.942h6.242v32.967H138.033z"/>
		<path d="M150.81,63.541v-4.599h6.242v4.599H150.81z M150.81,91.909V67.873h6.242v24.037H150.81z"/>
		<path d="M169.14,92.354c-2.325,0-4.14-0.633-5.443-1.899s-1.955-3.047-1.955-5.343c0-2.488,0.811-4.383,2.433-5.687
			c1.622-1.303,3.973-1.969,7.053-1.999l5.176-0.089v-1.222c0-1.569-0.274-2.736-0.822-3.499c-0.548-0.763-1.444-1.144-2.688-1.144
			c-1.155,0-2.003,0.263-2.544,0.789c-0.541,0.526-0.877,1.396-1.011,2.61l-6.509-0.311c0.4-2.34,1.47-4.113,3.21-5.321
			c1.74-1.207,4.113-1.811,7.12-1.811c3.036,0,5.376,0.748,7.02,2.244c1.644,1.496,2.466,3.621,2.466,6.375V84.8
			c0,1.348,0.152,2.277,0.456,2.788c0.303,0.511,0.811,0.767,1.522,0.767c0.474,0,0.933-0.044,1.377-0.133v3.376
			c-0.37,0.089-0.704,0.17-1,0.245c-0.296,0.074-0.592,0.133-0.889,0.177s-0.611,0.082-0.944,0.111
			c-0.333,0.029-0.722,0.044-1.167,0.044c-1.57,0-2.729-0.385-3.477-1.155c-0.748-0.77-1.196-1.903-1.344-3.399h-0.133
			C175.301,90.776,172.665,92.354,169.14,92.354z M176.404,80.78l-3.199,0.044c-1.452,0.059-2.481,0.218-3.088,0.478
			c-0.607,0.259-1.07,0.655-1.389,1.188s-0.478,1.244-0.478,2.132c0,1.141,0.263,1.988,0.789,2.544
			c0.525,0.555,1.226,0.833,2.1,0.833c0.977,0,1.869-0.267,2.677-0.8c0.807-0.533,1.44-1.27,1.899-2.21
			c0.459-0.94,0.688-1.936,0.688-2.988V80.78z"/>
		<path d="M195.179,92.309c-1.836,0-3.251-0.5-4.243-1.5c-0.993-1-1.489-2.514-1.489-4.543V72.094h-3.043v-4.221h3.354l1.955-5.643
			h3.91v5.643h4.554v4.221h-4.554v12.484c0,1.17,0.222,2.033,0.667,2.588c0.444,0.555,1.133,0.833,2.066,0.833
			c0.489,0,1.185-0.104,2.088-0.311v3.865C198.904,92.057,197.149,92.309,195.179,92.309z"/>
	</g>
	<g>
		<path d="M204.658,63.541v-4.599h6.242v4.599H204.658z M204.658,91.909V67.873h6.242v24.037H204.658z"/>
		<path d="M240.227,79.869c0,3.896-1.082,6.95-3.244,9.164c-2.162,2.214-5.154,3.321-8.975,3.321c-3.747,0-6.687-1.111-8.819-3.332
			c-2.133-2.222-3.199-5.272-3.199-9.153c0-3.865,1.066-6.905,3.199-9.119c2.133-2.214,5.117-3.321,8.953-3.321
			c3.924,0,6.92,1.07,8.986,3.21S240.227,75.855,240.227,79.869z M233.695,79.869c0-2.858-0.466-4.932-1.399-6.22
			c-0.933-1.288-2.288-1.933-4.065-1.933c-3.792,0-5.687,2.718-5.687,8.153c0,2.681,0.463,4.721,1.388,6.12
			c0.926,1.4,2.262,2.1,4.01,2.1C231.777,88.088,233.695,85.349,233.695,79.869z"/>
	</g>
	<g>
		<path d="M260.809,91.909V78.425c0-4.221-1.43-6.331-4.288-6.331c-1.511,0-2.729,0.648-3.654,1.943
			c-0.926,1.296-1.389,2.958-1.389,4.987v12.885h-6.242V73.249c0-1.288-0.019-2.343-0.056-3.166
			c-0.037-0.822-0.078-1.559-0.122-2.21h5.954c0.044,0.282,0.104,1.033,0.178,2.255c0.074,1.222,0.111,2.062,0.111,2.521h0.089
			c0.844-1.836,1.903-3.169,3.177-3.999c1.273-0.83,2.792-1.244,4.554-1.244c2.547,0,4.502,0.785,5.865,2.354
			c1.362,1.57,2.043,3.866,2.043,6.887v15.262H260.809z"/>
		<path d="M307.092,91.909V78.491h-13.64v13.418h-6.553V60.608h6.553v12.462h13.64V60.608h6.553v31.301H307.092z"/>
		<path d="M326.124,92.354c-2.325,0-4.14-0.633-5.443-1.899s-1.955-3.047-1.955-5.343c0-2.488,0.811-4.383,2.433-5.687
			c1.622-1.303,3.973-1.969,7.053-1.999l5.176-0.089v-1.222c0-1.569-0.274-2.736-0.822-3.499c-0.548-0.763-1.444-1.144-2.688-1.144
			c-1.155,0-2.003,0.263-2.544,0.789c-0.541,0.526-0.877,1.396-1.011,2.61l-6.509-0.311c0.4-2.34,1.47-4.113,3.21-5.321
			c1.74-1.207,4.113-1.811,7.12-1.811c3.036,0,5.376,0.748,7.02,2.244c1.644,1.496,2.466,3.621,2.466,6.375V84.8
			c0,1.348,0.152,2.277,0.456,2.788c0.303,0.511,0.811,0.767,1.522,0.767c0.474,0,0.933-0.044,1.377-0.133v3.376
			c-0.37,0.089-0.704,0.17-1,0.245c-0.296,0.074-0.592,0.133-0.889,0.177s-0.611,0.082-0.944,0.111
			c-0.333,0.029-0.722,0.044-1.167,0.044c-1.57,0-2.729-0.385-3.477-1.155c-0.748-0.77-1.196-1.903-1.344-3.399h-0.133
			C332.285,90.776,329.648,92.354,326.124,92.354z M333.388,80.78l-3.199,0.044c-1.452,0.059-2.481,0.218-3.088,0.478
			c-0.607,0.259-1.07,0.655-1.389,1.188s-0.478,1.244-0.478,2.132c0,1.141,0.263,1.988,0.789,2.544
			c0.525,0.555,1.226,0.833,2.1,0.833c0.977,0,1.869-0.267,2.677-0.8c0.807-0.533,1.44-1.27,1.899-2.21
			c0.459-0.94,0.688-1.936,0.688-2.988V80.78z"/>
	</g>
	<g>
		<path d="M352.17,67.873v13.484c0,4.221,1.422,6.332,4.266,6.332c1.51,0,2.729-0.648,3.654-1.944
			c0.925-1.296,1.388-2.958,1.388-4.987V67.873h6.243v18.661c0,2.044,0.059,3.836,0.178,5.376h-5.954
			c-0.178-2.133-0.267-3.725-0.267-4.776h-0.111c-0.83,1.822-1.885,3.147-3.166,3.977c-1.281,0.829-2.803,1.244-4.565,1.244
			c-2.548,0-4.502-0.781-5.865-2.344c-1.363-1.562-2.044-3.854-2.044-6.875V67.873H352.17z"/>
		<path d="M396.776,79.78c0,4.014-0.804,7.113-2.41,9.297c-1.607,2.185-3.877,3.277-6.809,3.277c-1.688,0-3.158-0.367-4.41-1.1
			s-2.21-1.789-2.877-3.166h-0.133c0.089,0.444,0.133,1.792,0.133,4.043v9.219h-6.242V73.404c0-2.266-0.06-4.11-0.178-5.532h6.064
			c0.074,0.267,0.137,0.792,0.189,1.578c0.052,0.785,0.078,1.562,0.078,2.333h0.089c1.407-2.947,3.969-4.421,7.687-4.421
			c2.799,0,4.968,1.077,6.509,3.232C396.006,72.749,396.776,75.811,396.776,79.78z M390.267,79.78c0-5.391-1.651-8.086-4.954-8.086
			c-1.659,0-2.929,0.726-3.81,2.177c-0.881,1.452-1.322,3.48-1.322,6.087c0,2.592,0.44,4.595,1.322,6.009
			c0.881,1.415,2.136,2.122,3.766,2.122C388.601,88.088,390.267,85.319,390.267,79.78z"/>
	</g>
	<g>
		<path d="M408.218,92.309c-1.836,0-3.251-0.5-4.243-1.5s-1.488-2.514-1.488-4.543V72.094h-3.043v-4.221h3.355l1.954-5.643h3.91
			v5.643h4.554v4.221h-4.554v12.484c0,1.17,0.223,2.033,0.667,2.588c0.444,0.555,1.133,0.833,2.065,0.833
			c0.489,0,1.185-0.104,2.088-0.311v3.865C411.942,92.057,410.188,92.309,408.218,92.309z"/>
		<path d="M423.815,92.354c-2.325,0-4.14-0.633-5.442-1.899c-1.304-1.266-1.955-3.047-1.955-5.343c0-2.488,0.811-4.383,2.433-5.687
			c1.621-1.303,3.973-1.969,7.053-1.999l5.177-0.089v-1.222c0-1.569-0.274-2.736-0.822-3.499s-1.444-1.144-2.688-1.144
			c-1.155,0-2.003,0.263-2.543,0.789c-0.541,0.526-0.878,1.396-1.011,2.61l-6.509-0.311c0.399-2.34,1.469-4.113,3.21-5.321
			c1.739-1.207,4.113-1.811,7.119-1.811c3.036,0,5.376,0.748,7.021,2.244c1.644,1.496,2.466,3.621,2.466,6.375V84.8
			c0,1.348,0.151,2.277,0.455,2.788s0.811,0.767,1.521,0.767c0.474,0,0.934-0.044,1.378-0.133v3.376
			c-0.371,0.089-0.704,0.17-1,0.245c-0.297,0.074-0.593,0.133-0.889,0.177s-0.61,0.082-0.944,0.111
			c-0.333,0.029-0.722,0.044-1.166,0.044c-1.57,0-2.729-0.385-3.477-1.155c-0.748-0.77-1.196-1.903-1.344-3.399h-0.134
			C429.977,90.776,427.34,92.354,423.815,92.354z M431.08,80.78l-3.199,0.044c-1.452,0.059-2.48,0.218-3.088,0.478
			s-1.07,0.655-1.389,1.188s-0.478,1.244-0.478,2.132c0,1.141,0.263,1.988,0.789,2.544c0.525,0.555,1.225,0.833,2.099,0.833
			c0.978,0,1.87-0.267,2.677-0.8c0.808-0.533,1.44-1.27,1.899-2.21s0.689-1.936,0.689-2.988V80.78z"/>
	</g>
	<g>
		<path d="M459.723,91.909V78.425c0-4.221-1.429-6.331-4.287-6.331c-1.511,0-2.729,0.648-3.654,1.943
			c-0.926,1.296-1.389,2.958-1.389,4.987v12.885h-6.242V73.249c0-1.288-0.019-2.343-0.056-3.166
			c-0.037-0.822-0.078-1.559-0.122-2.21h5.953c0.045,0.282,0.104,1.033,0.178,2.255s0.111,2.062,0.111,2.521h0.089
			c0.845-1.836,1.903-3.169,3.177-3.999s2.792-1.244,4.554-1.244c2.548,0,4.502,0.785,5.865,2.354
			c1.362,1.57,2.044,3.866,2.044,6.887v15.262H459.723z"/>
		<path d="M478.23,92.309c-1.836,0-3.251-0.5-4.243-1.5s-1.488-2.514-1.488-4.543V72.094h-3.043v-4.221h3.354l1.954-5.643h3.91
			v5.643h4.554v4.221h-4.554v12.484c0,1.17,0.223,2.033,0.667,2.588c0.444,0.555,1.133,0.833,2.065,0.833
			c0.489,0,1.185-0.104,2.088-0.311v3.865C481.955,92.057,480.2,92.309,478.23,92.309z"/>
		<path d="M487.364,91.909V73.515c0-1.318-0.019-2.417-0.056-3.299c-0.037-0.881-0.078-1.662-0.122-2.344h5.953
			c0.045,0.267,0.104,1.078,0.178,2.433s0.111,2.255,0.111,2.699h0.089c0.607-1.688,1.147-2.877,1.622-3.565
			c0.474-0.689,1.036-1.2,1.688-1.533c0.651-0.333,1.466-0.5,2.443-0.5c0.8,0,1.444,0.111,1.933,0.333v5.221
			c-1.008-0.222-1.896-0.333-2.666-0.333c-1.555,0-2.766,0.63-3.632,1.889s-1.3,3.125-1.3,5.598v11.796H487.364z"/>
		<path d="M510.76,92.354c-2.325,0-4.14-0.633-5.442-1.899c-1.304-1.266-1.955-3.047-1.955-5.343c0-2.488,0.811-4.383,2.433-5.687
			c1.621-1.303,3.973-1.969,7.053-1.999l5.177-0.089v-1.222c0-1.569-0.274-2.736-0.822-3.499s-1.444-1.144-2.688-1.144
			c-1.155,0-2.003,0.263-2.543,0.789c-0.541,0.526-0.878,1.396-1.011,2.61l-6.509-0.311c0.399-2.34,1.469-4.113,3.21-5.321
			c1.739-1.207,4.113-1.811,7.119-1.811c3.036,0,5.376,0.748,7.021,2.244c1.644,1.496,2.466,3.621,2.466,6.375V84.8
			c0,1.348,0.151,2.277,0.455,2.788s0.811,0.767,1.521,0.767c0.474,0,0.934-0.044,1.378-0.133v3.376
			c-0.371,0.089-0.704,0.17-1,0.245c-0.297,0.074-0.593,0.133-0.889,0.177s-0.61,0.082-0.944,0.111
			c-0.333,0.029-0.722,0.044-1.166,0.044c-1.57,0-2.729-0.385-3.477-1.155c-0.748-0.77-1.196-1.903-1.344-3.399h-0.134
			C516.921,90.776,514.284,92.354,510.76,92.354z M518.024,80.78l-3.199,0.044c-1.452,0.059-2.48,0.218-3.088,0.478
			s-1.07,0.655-1.389,1.188s-0.478,1.244-0.478,2.132c0,1.141,0.263,1.988,0.789,2.544c0.525,0.555,1.225,0.833,2.099,0.833
			c0.978,0,1.87-0.267,2.677-0.8c0.808-0.533,1.44-1.27,1.899-2.21s0.689-1.936,0.689-2.988V80.78z"/>
		<path d="M540.709,101.55c-2.933,0-5.291-0.559-7.075-1.677c-1.785-1.118-2.885-2.714-3.3-4.787l6.243-0.733
			c0.222,0.962,0.699,1.718,1.433,2.266s1.691,0.822,2.877,0.822c1.732,0,2.999-0.533,3.799-1.6s1.199-2.651,1.199-4.754v-1.267
			l0.045-2.377h-0.045c-1.377,2.947-3.954,4.421-7.73,4.421c-2.799,0-4.969-1.051-6.509-3.154c-1.541-2.103-2.311-5.11-2.311-9.02
			c0-3.924,0.792-6.953,2.377-9.086c1.584-2.132,3.888-3.199,6.908-3.199c3.495,0,5.917,1.444,7.265,4.332h0.111
			c0-0.519,0.033-1.222,0.1-2.11c0.066-0.889,0.137-1.474,0.211-1.755h5.909c-0.089,1.6-0.133,3.451-0.133,5.554v17.75
			c0,3.421-0.971,6.005-2.91,7.753C547.232,100.676,544.411,101.55,540.709,101.55z M545.93,79.558c0-2.473-0.441-4.402-1.322-5.787
			s-2.137-2.077-3.766-2.077c-3.332,0-4.998,2.666-4.998,7.997c0,5.228,1.651,7.842,4.954,7.842c1.658,0,2.929-0.692,3.81-2.077
			C545.488,84.071,545.93,82.105,545.93,79.558z"/>
		<path d="M578.833,84.889c0,2.325-0.951,4.151-2.854,5.476c-1.903,1.326-4.535,1.988-7.897,1.988c-3.303,0-5.831-0.522-7.586-1.566
			c-1.755-1.044-2.922-2.669-3.499-4.876l5.487-0.822c0.311,1.141,0.848,1.947,1.61,2.421s2.092,0.711,3.987,0.711
			c1.747,0,3.021-0.222,3.821-0.667s1.199-1.14,1.199-2.088c0-0.77-0.322-1.381-0.966-1.833c-0.645-0.452-1.737-0.833-3.277-1.144
			c-3.524-0.696-5.901-1.344-7.131-1.944c-1.229-0.6-2.166-1.377-2.81-2.333c-0.645-0.956-0.967-2.129-0.967-3.521
			c0-2.295,0.885-4.084,2.654-5.365c1.77-1.281,4.276-1.921,7.521-1.921c2.857,0,5.157,0.555,6.897,1.666s2.824,2.718,3.254,4.821
			l-5.531,0.578c-0.178-0.978-0.614-1.707-1.311-2.188c-0.696-0.481-1.8-0.722-3.31-0.722c-1.481,0-2.592,0.188-3.333,0.566
			c-0.74,0.377-1.11,1.011-1.11,1.899c0,0.696,0.285,1.248,0.855,1.655c0.569,0.408,1.529,0.744,2.877,1.011
			c1.88,0.385,3.55,0.781,5.009,1.188c1.459,0.408,2.629,0.893,3.511,1.455c0.881,0.563,1.584,1.285,2.11,2.166
			C578.57,82.383,578.833,83.512,578.833,84.889z"/>
		<path d="M590.165,92.309c-1.836,0-3.251-0.5-4.243-1.5s-1.488-2.514-1.488-4.543V72.094h-3.043v-4.221h3.354l1.954-5.643h3.91
			v5.643h4.554v4.221h-4.554v12.484c0,1.17,0.223,2.033,0.667,2.588c0.444,0.555,1.133,0.833,2.065,0.833
			c0.489,0,1.185-0.104,2.088-0.311v3.865C593.89,92.057,592.135,92.309,590.165,92.309z"/>
		<path d="M609.14,92.354c-3.613,0-6.391-1.07-8.33-3.21c-1.94-2.14-2.91-5.261-2.91-9.364c0-3.969,0.984-7.02,2.954-9.152
			c1.97-2.133,4.762-3.199,8.375-3.199c3.451,0,6.087,1.144,7.909,3.433c1.821,2.288,2.732,5.639,2.732,10.052v0.178h-15.418
			c0,2.34,0.434,4.106,1.3,5.298c0.866,1.192,2.1,1.789,3.699,1.789c2.206,0,3.599-0.956,4.176-2.866l5.888,0.511
			C617.812,90.176,614.353,92.354,609.14,92.354z M609.14,71.36c-1.466,0-2.596,0.511-3.388,1.533
			c-0.792,1.022-1.211,2.452-1.255,4.288h9.33c-0.118-1.94-0.585-3.395-1.399-4.365C611.613,71.846,610.518,71.36,609.14,71.36z"/>
		<path d="M624.738,91.909V58.942h6.242v32.967H624.738z"/>
		<path d="M637.515,91.909V58.942h6.242v32.967H637.515z"/>
		<path d="M660.133,92.354c-3.613,0-6.391-1.07-8.33-3.21c-1.94-2.14-2.91-5.261-2.91-9.364c0-3.969,0.984-7.02,2.954-9.152
			c1.97-2.133,4.762-3.199,8.375-3.199c3.451,0,6.087,1.144,7.909,3.433c1.821,2.288,2.732,5.639,2.732,10.052v0.178h-15.418
			c0,2.34,0.434,4.106,1.3,5.298c0.866,1.192,2.1,1.789,3.699,1.789c2.206,0,3.599-0.956,4.176-2.866l5.888,0.511
			C668.805,90.176,665.346,92.354,660.133,92.354z M660.133,71.36c-1.466,0-2.596,0.511-3.388,1.533
			c-0.792,1.022-1.211,2.452-1.255,4.288h9.33c-0.118-1.94-0.585-3.395-1.399-4.365C662.606,71.846,661.511,71.36,660.133,71.36z"/>
		<path d="M675.73,91.909V73.515c0-1.318-0.019-2.417-0.056-3.299c-0.037-0.881-0.078-1.662-0.122-2.344h5.953
			c0.045,0.267,0.104,1.078,0.178,2.433s0.111,2.255,0.111,2.699h0.089c0.607-1.688,1.147-2.877,1.622-3.565
			c0.474-0.689,1.036-1.2,1.688-1.533c0.651-0.333,1.466-0.5,2.443-0.5c0.8,0,1.444,0.111,1.933,0.333v5.221
			c-1.008-0.222-1.896-0.333-2.666-0.333c-1.555,0-2.766,0.63-3.632,1.889s-1.3,3.125-1.3,5.598v11.796H675.73z"/>
		<path d="M690.84,92.82l6.465-33.877h5.287l-6.354,33.877H690.84z"/>
		<path d="M706.35,63.541v-4.599h6.242v4.599H706.35z M706.35,91.909V67.873h6.242v24.037H706.35z"/>
	</g>
	<g>
		<path d="M734.676,91.909V78.425c0-4.221-1.429-6.331-4.287-6.331c-1.511,0-2.729,0.648-3.654,1.943
			c-0.926,1.296-1.389,2.958-1.389,4.987v12.885h-6.242V73.249c0-1.288-0.019-2.343-0.056-3.166
			c-0.037-0.822-0.078-1.559-0.122-2.21h5.953c0.045,0.282,0.104,1.033,0.178,2.255s0.111,2.062,0.111,2.521h0.089
			c0.845-1.836,1.903-3.169,3.177-3.999s2.792-1.244,4.554-1.244c2.548,0,4.502,0.785,5.865,2.354
			c1.362,1.57,2.044,3.866,2.044,6.887v15.262H734.676z"/>
	</g>
	<g>
		<path d="M62.032,714.937v5.82h8.73v1.755h-8.73v6.343H59.91v-15.65h11.118v1.732H62.032z"/>
		<path d="M84.091,722.834c0,2.104-0.463,3.67-1.389,4.698c-0.926,1.03-2.27,1.544-4.032,1.544c-1.755,0-3.081-0.534-3.977-1.604
			s-1.344-2.616-1.344-4.638c0-4.146,1.796-6.22,5.387-6.22c1.836,0,3.188,0.505,4.054,1.516S84.091,720.709,84.091,722.834z
			 M81.991,722.834c0-1.658-0.246-2.863-0.738-3.615c-0.493-0.751-1.32-1.127-2.483-1.127c-1.17,0-2.016,0.383-2.538,1.149
			c-0.522,0.767-0.783,1.964-0.783,3.593c0,1.585,0.257,2.775,0.772,3.571c0.515,0.796,1.323,1.194,2.427,1.194
			c1.2,0,2.057-0.385,2.571-1.155S81.991,724.471,81.991,722.834z"/>
		<path d="M87.078,728.854v-9.219c0-0.845-0.022-1.777-0.066-2.8h1.888c0.059,1.363,0.089,2.182,0.089,2.455h0.044
			c0.318-1.029,0.685-1.732,1.1-2.11c0.415-0.378,1-0.566,1.755-0.566c0.267,0,0.537,0.037,0.811,0.111v1.832
			c-0.267-0.073-0.622-0.11-1.066-0.11c-0.83,0-1.462,0.356-1.899,1.071s-0.655,1.738-0.655,3.071v6.265H87.078z"/>
		<path d="M104.083,725.533c0,1.133-0.428,2.007-1.283,2.621c-0.855,0.615-2.053,0.922-3.593,0.922c-1.496,0-2.649-0.246-3.46-0.738
			c-0.811-0.492-1.338-1.261-1.583-2.305l1.766-0.345c0.17,0.645,0.522,1.116,1.055,1.417c0.533,0.3,1.273,0.449,2.221,0.449
			c1.015,0,1.757-0.155,2.227-0.466c0.47-0.312,0.706-0.778,0.706-1.4c0-0.474-0.163-0.858-0.489-1.154
			c-0.326-0.297-0.852-0.541-1.577-0.733l-1.433-0.378c-1.148-0.296-1.964-0.587-2.449-0.872s-0.865-0.631-1.139-1.038
			s-0.411-0.907-0.411-1.5c0-1.096,0.391-1.931,1.172-2.505c0.781-0.573,1.919-0.86,3.416-0.86c1.325,0,2.378,0.233,3.16,0.7
			c0.781,0.466,1.275,1.214,1.482,2.243l-1.799,0.223c-0.111-0.533-0.409-0.942-0.894-1.228s-1.135-0.428-1.949-0.428
			c-0.904,0-1.57,0.137-2,0.411c-0.43,0.273-0.644,0.688-0.644,1.244c0,0.34,0.089,0.622,0.267,0.844s0.44,0.411,0.789,0.566
			c0.348,0.155,1.081,0.37,2.199,0.645c1.059,0.267,1.822,0.513,2.288,0.738c0.466,0.227,0.835,0.476,1.105,0.75
			c0.271,0.273,0.479,0.591,0.628,0.949C104.009,724.665,104.083,725.074,104.083,725.533z"/>
		<path d="M108.415,722.79c0,1.6,0.251,2.784,0.755,3.554c0.503,0.771,1.262,1.155,2.277,1.155c0.711,0,1.305-0.192,1.783-0.577
			s0.772-0.978,0.883-1.777l2.022,0.134c-0.156,1.154-0.648,2.077-1.478,2.766c-0.83,0.688-1.881,1.032-3.154,1.032
			c-1.681,0-2.964-0.531-3.849-1.594s-1.327-2.611-1.327-4.648c0-2.021,0.444-3.563,1.333-4.626s2.162-1.594,3.821-1.594
			c1.229,0,2.25,0.318,3.06,0.955c0.811,0.637,1.32,1.515,1.527,2.633l-2.055,0.155c-0.104-0.667-0.367-1.196-0.789-1.589
			c-0.422-0.392-1.022-0.588-1.8-0.588c-1.059,0-1.825,0.352-2.299,1.055C108.651,719.939,108.415,721.124,108.415,722.79z"/>
		<path d="M120.71,718.892c0.429-0.785,0.946-1.361,1.549-1.728s1.368-0.55,2.294-0.55c1.303,0,2.264,0.324,2.882,0.972
			c0.618,0.648,0.927,1.734,0.927,3.26v8.009h-2.01v-7.62c0-0.844-0.078-1.472-0.233-1.882c-0.155-0.411-0.411-0.713-0.766-0.905
			c-0.355-0.193-0.848-0.289-1.478-0.289c-0.94,0-1.694,0.326-2.26,0.978s-0.85,1.529-0.85,2.632v7.087h-2v-16.483h2v4.287
			c0,0.452-0.013,0.919-0.039,1.399c-0.026,0.481-0.042,0.76-0.05,0.834H120.71z"/>
		<path d="M133.783,716.836v7.62c0,0.792,0.078,1.407,0.233,1.844c0.155,0.437,0.403,0.752,0.744,0.944
			c0.34,0.192,0.84,0.288,1.5,0.288c0.962,0,1.722-0.329,2.277-0.988s0.833-1.573,0.833-2.743v-6.965h2v9.453
			c0,1.399,0.022,2.255,0.066,2.565h-1.888c-0.007-0.037-0.015-0.137-0.022-0.3c-0.008-0.163-0.017-0.35-0.028-0.561
			c-0.011-0.212-0.024-0.609-0.039-1.194h-0.033c-0.459,0.829-0.991,1.416-1.594,1.761c-0.604,0.344-1.354,0.516-2.25,0.516
			c-1.318,0-2.283-0.327-2.894-0.982s-0.917-1.738-0.917-3.249v-8.009H133.783z"/>
		<path d="M152.565,728.854v-7.62c0-0.792-0.078-1.406-0.233-1.844c-0.155-0.437-0.403-0.751-0.744-0.943
			c-0.34-0.193-0.84-0.289-1.5-0.289c-0.962,0-1.722,0.329-2.277,0.988s-0.833,1.574-0.833,2.744v6.964h-2v-9.452
			c0-1.399-0.022-2.255-0.066-2.566h1.888c0.007,0.037,0.015,0.138,0.022,0.3c0.007,0.163,0.017,0.351,0.028,0.562
			c0.011,0.211,0.024,0.609,0.039,1.194h0.033c0.459-0.83,0.99-1.417,1.594-1.761c0.604-0.345,1.354-0.517,2.25-0.517
			c1.318,0,2.283,0.327,2.894,0.982c0.611,0.656,0.916,1.738,0.916,3.249v8.009H152.565z"/>
		<path d="M162.595,733.575c-1.311,0-2.355-0.258-3.132-0.772s-1.277-1.245-1.5-2.193l2.01-0.289
			c0.133,0.556,0.428,0.983,0.883,1.283s1.053,0.45,1.794,0.45c1.992,0,2.988-1.167,2.988-3.499v-1.933h-0.022
			c-0.377,0.771-0.896,1.35-1.555,1.738c-0.659,0.389-1.429,0.583-2.311,0.583c-1.474,0-2.557-0.488-3.249-1.466
			s-1.039-2.515-1.039-4.61c0-2.125,0.372-3.692,1.117-4.703c0.744-1.012,1.875-1.517,3.393-1.517c0.852,0,1.59,0.194,2.216,0.583
			c0.626,0.389,1.109,0.942,1.45,1.661h0.022c0-0.223,0.015-0.607,0.044-1.155c0.03-0.548,0.06-0.849,0.089-0.9h1.899
			c-0.044,0.4-0.066,1.229-0.066,2.488v9.186C167.626,731.887,165.949,733.575,162.595,733.575z M165.638,722.846
			c0-0.978-0.133-1.82-0.4-2.527s-0.643-1.248-1.127-1.622c-0.485-0.373-1.035-0.561-1.649-0.561c-1.022,0-1.766,0.37-2.232,1.11
			c-0.467,0.741-0.7,1.94-0.7,3.6c0,1.644,0.219,2.825,0.656,3.543c0.437,0.719,1.185,1.077,2.244,1.077
			c0.629,0,1.188-0.185,1.677-0.555c0.489-0.371,0.866-0.902,1.133-1.595S165.638,723.801,165.638,722.846z"/>
		<path d="M180.166,725.533c0,1.133-0.428,2.007-1.283,2.621c-0.855,0.615-2.053,0.922-3.593,0.922c-1.496,0-2.649-0.246-3.46-0.738
			c-0.811-0.492-1.338-1.261-1.583-2.305l1.766-0.345c0.17,0.645,0.522,1.116,1.055,1.417c0.533,0.3,1.273,0.449,2.221,0.449
			c1.015,0,1.757-0.155,2.227-0.466c0.47-0.312,0.706-0.778,0.706-1.4c0-0.474-0.163-0.858-0.489-1.154
			c-0.326-0.297-0.852-0.541-1.577-0.733l-1.433-0.378c-1.148-0.296-1.964-0.587-2.449-0.872s-0.865-0.631-1.139-1.038
			s-0.411-0.907-0.411-1.5c0-1.096,0.391-1.931,1.172-2.505c0.781-0.573,1.919-0.86,3.416-0.86c1.325,0,2.378,0.233,3.16,0.7
			c0.781,0.466,1.275,1.214,1.482,2.243l-1.799,0.223c-0.111-0.533-0.409-0.942-0.894-1.228s-1.135-0.428-1.949-0.428
			c-0.904,0-1.57,0.137-2,0.411c-0.43,0.273-0.644,0.688-0.644,1.244c0,0.34,0.089,0.622,0.267,0.844s0.44,0.411,0.789,0.566
			c0.348,0.155,1.081,0.37,2.199,0.645c1.059,0.267,1.822,0.513,2.288,0.738c0.466,0.227,0.835,0.476,1.105,0.75
			c0.271,0.273,0.479,0.591,0.628,0.949C180.092,724.665,180.166,725.074,180.166,725.533z"/>
		<path d="M184.931,716.836v7.62c0,0.792,0.078,1.407,0.233,1.844c0.155,0.437,0.403,0.752,0.744,0.944
			c0.34,0.192,0.84,0.288,1.5,0.288c0.962,0,1.722-0.329,2.277-0.988s0.833-1.573,0.833-2.743v-6.965h2v9.453
			c0,1.399,0.022,2.255,0.066,2.565h-1.888c-0.007-0.037-0.015-0.137-0.022-0.3c-0.008-0.163-0.017-0.35-0.028-0.561
			c-0.011-0.212-0.024-0.609-0.039-1.194h-0.033c-0.459,0.829-0.991,1.416-1.594,1.761c-0.604,0.344-1.354,0.516-2.25,0.516
			c-1.318,0-2.283-0.327-2.894-0.982s-0.917-1.738-0.917-3.249v-8.009H184.931z"/>
		<path d="M203.713,728.854v-7.62c0-0.792-0.078-1.406-0.233-1.844c-0.155-0.437-0.403-0.751-0.744-0.943
			c-0.34-0.193-0.84-0.289-1.5-0.289c-0.962,0-1.722,0.329-2.277,0.988s-0.833,1.574-0.833,2.744v6.964h-2v-9.452
			c0-1.399-0.022-2.255-0.066-2.566h1.888c0.007,0.037,0.015,0.138,0.022,0.3c0.007,0.163,0.017,0.351,0.028,0.562
			c0.011,0.211,0.024,0.609,0.039,1.194h0.033c0.459-0.83,0.99-1.417,1.594-1.761c0.604-0.345,1.354-0.517,2.25-0.517
			c1.318,0,2.283,0.327,2.894,0.982c0.611,0.656,0.916,1.738,0.916,3.249v8.009H203.713z"/>
		<path d="M213.809,728.766c-0.659,0.178-1.333,0.267-2.021,0.267c-1.599,0-2.399-0.907-2.399-2.722v-8.02H208v-1.455h1.466
			l0.589-2.688h1.333v2.688h2.222v1.455h-2.222v7.587c0,0.577,0.095,0.982,0.283,1.216c0.189,0.233,0.517,0.351,0.983,0.351
			c0.267,0,0.651-0.052,1.155-0.156V728.766z"/>
		<path d="M217.496,723.268c0,1.377,0.285,2.439,0.855,3.188s1.403,1.122,2.499,1.122c0.867,0,1.561-0.174,2.083-0.522
			c0.522-0.348,0.875-0.788,1.061-1.321l1.755,0.5c-0.718,1.896-2.351,2.843-4.898,2.843c-1.777,0-3.13-0.529-4.06-1.588
			s-1.394-2.633-1.394-4.721c0-1.984,0.465-3.506,1.394-4.565c0.929-1.059,2.256-1.588,3.982-1.588c3.532,0,5.298,2.129,5.298,6.387
			v0.267H217.496z M224.005,721.734c-0.111-1.266-0.433-2.189-0.966-2.771c-0.533-0.581-1.3-0.871-2.299-0.871
			c-0.97,0-1.738,0.323-2.305,0.972c-0.566,0.647-0.872,1.538-0.917,2.671H224.005z"/>
		<path d="M229.114,728.854v-9.219c0-0.845-0.022-1.777-0.066-2.8h1.888c0.059,1.363,0.089,2.182,0.089,2.455h0.044
			c0.318-1.029,0.685-1.732,1.1-2.11c0.415-0.378,1-0.566,1.755-0.566c0.267,0,0.537,0.037,0.811,0.111v1.832
			c-0.267-0.073-0.622-0.11-1.066-0.11c-0.83,0-1.462,0.356-1.899,1.071s-0.655,1.738-0.655,3.071v6.265H229.114z"/>
		<path d="M246.12,725.533c0,1.133-0.428,2.007-1.283,2.621c-0.855,0.615-2.053,0.922-3.593,0.922c-1.496,0-2.649-0.246-3.46-0.738
			c-0.811-0.492-1.338-1.261-1.583-2.305l1.766-0.345c0.17,0.645,0.522,1.116,1.055,1.417c0.533,0.3,1.273,0.449,2.221,0.449
			c1.015,0,1.757-0.155,2.227-0.466c0.47-0.312,0.706-0.778,0.706-1.4c0-0.474-0.163-0.858-0.489-1.154
			c-0.326-0.297-0.852-0.541-1.577-0.733l-1.433-0.378c-1.148-0.296-1.964-0.587-2.449-0.872s-0.865-0.631-1.139-1.038
			s-0.411-0.907-0.411-1.5c0-1.096,0.391-1.931,1.172-2.505c0.781-0.573,1.919-0.86,3.416-0.86c1.325,0,2.378,0.233,3.16,0.7
			c0.781,0.466,1.275,1.214,1.482,2.243l-1.799,0.223c-0.111-0.533-0.409-0.942-0.894-1.228s-1.135-0.428-1.949-0.428
			c-0.904,0-1.57,0.137-2,0.411c-0.43,0.273-0.644,0.688-0.644,1.244c0,0.34,0.089,0.622,0.267,0.844s0.44,0.411,0.789,0.566
			c0.348,0.155,1.081,0.37,2.199,0.645c1.059,0.267,1.822,0.513,2.288,0.738c0.466,0.227,0.835,0.476,1.105,0.75
			c0.271,0.273,0.479,0.591,0.628,0.949C246.045,724.665,246.12,725.074,246.12,725.533z"/>
		<path d="M253.549,728.766c-0.659,0.178-1.333,0.267-2.021,0.267c-1.599,0-2.399-0.907-2.399-2.722v-8.02h-1.389v-1.455h1.466
			l0.589-2.688h1.333v2.688h2.222v1.455h-2.222v7.587c0,0.577,0.095,0.982,0.283,1.216c0.189,0.233,0.517,0.351,0.983,0.351
			c0.267,0,0.651-0.052,1.155-0.156V728.766z"/>
		<path d="M257.726,716.836v7.62c0,0.792,0.078,1.407,0.233,1.844c0.156,0.437,0.403,0.752,0.744,0.944s0.84,0.288,1.5,0.288
			c0.962,0,1.722-0.329,2.277-0.988c0.555-0.659,0.833-1.573,0.833-2.743v-6.965h1.999v9.453c0,1.399,0.022,2.255,0.067,2.565
			h-1.888c-0.008-0.037-0.015-0.137-0.022-0.3s-0.017-0.35-0.028-0.561c-0.011-0.212-0.024-0.609-0.039-1.194h-0.034
			c-0.459,0.829-0.99,1.416-1.594,1.761c-0.604,0.344-1.354,0.516-2.249,0.516c-1.318,0-2.283-0.327-2.894-0.982
			s-0.917-1.738-0.917-3.249v-8.009H257.726z M257.304,715.314v-2.044h1.833v2.044H257.304z M261.68,715.314v-2.044h1.811v2.044
			H261.68z"/>
	</g>
	<g>
		<path d="M273.385,728.766c-0.659,0.178-1.333,0.267-2.021,0.267c-1.599,0-2.399-0.907-2.399-2.722v-8.02h-1.389v-1.455h1.466
			l0.589-2.688h1.333v2.688h2.222v1.455h-2.222v7.587c0,0.577,0.095,0.982,0.283,1.216c0.189,0.233,0.517,0.351,0.983,0.351
			c0.267,0,0.651-0.052,1.155-0.156V728.766z"/>
		<path d="M275.361,728.854v-1.521l6.72-8.953h-6.342v-1.544h8.708v1.522l-6.731,8.952h6.964v1.544H275.361z"/>
	</g>
	<g>
		<path d="M289.313,716.836v7.62c0,0.792,0.078,1.407,0.233,1.844c0.155,0.437,0.403,0.752,0.744,0.944
			c0.34,0.192,0.84,0.288,1.5,0.288c0.962,0,1.722-0.329,2.277-0.988s0.833-1.573,0.833-2.743v-6.965h2v9.453
			c0,1.399,0.022,2.255,0.066,2.565h-1.888c-0.007-0.037-0.015-0.137-0.022-0.3c-0.008-0.163-0.017-0.35-0.028-0.561
			c-0.011-0.212-0.024-0.609-0.039-1.194h-0.033c-0.459,0.829-0.991,1.416-1.594,1.761c-0.604,0.344-1.354,0.516-2.25,0.516
			c-1.318,0-2.283-0.327-2.894-0.982s-0.917-1.738-0.917-3.249v-8.009H289.313z"/>
		<path d="M308.118,728.854v-7.62c0-0.792-0.078-1.406-0.233-1.844c-0.155-0.437-0.403-0.751-0.744-0.943
			c-0.34-0.193-0.84-0.289-1.5-0.289c-0.962,0-1.722,0.329-2.277,0.988s-0.833,1.574-0.833,2.744v6.964h-2v-9.452
			c0-1.399-0.022-2.255-0.066-2.566h1.888c0.007,0.037,0.015,0.138,0.022,0.3c0.007,0.163,0.017,0.351,0.028,0.562
			c0.011,0.211,0.024,0.609,0.039,1.194h0.033c0.459-0.83,0.99-1.417,1.594-1.761c0.604-0.345,1.354-0.517,2.25-0.517
			c1.318,0,2.283,0.327,2.894,0.982c0.611,0.656,0.916,1.738,0.916,3.249v8.009H308.118z"/>
		<path d="M318.17,733.575c-1.311,0-2.355-0.258-3.132-0.772s-1.277-1.245-1.5-2.193l2.01-0.289
			c0.133,0.556,0.428,0.983,0.883,1.283s1.053,0.45,1.794,0.45c1.992,0,2.988-1.167,2.988-3.499v-1.933h-0.022
			c-0.377,0.771-0.896,1.35-1.555,1.738c-0.659,0.389-1.429,0.583-2.311,0.583c-1.474,0-2.557-0.488-3.249-1.466
			s-1.039-2.515-1.039-4.61c0-2.125,0.372-3.692,1.117-4.703c0.744-1.012,1.875-1.517,3.393-1.517c0.852,0,1.59,0.194,2.216,0.583
			c0.626,0.389,1.109,0.942,1.45,1.661h0.022c0-0.223,0.015-0.607,0.044-1.155c0.03-0.548,0.06-0.849,0.089-0.9h1.899
			c-0.044,0.4-0.066,1.229-0.066,2.488v9.186C323.202,731.887,321.525,733.575,318.17,733.575z M321.214,722.846
			c0-0.978-0.133-1.82-0.4-2.527s-0.643-1.248-1.127-1.622c-0.485-0.373-1.035-0.561-1.649-0.561c-1.022,0-1.766,0.37-2.232,1.11
			c-0.467,0.741-0.7,1.94-0.7,3.6c0,1.644,0.219,2.825,0.656,3.543c0.437,0.719,1.185,1.077,2.244,1.077
			c0.629,0,1.188-0.185,1.677-0.555c0.489-0.371,0.866-0.902,1.133-1.595S321.214,723.801,321.214,722.846z"/>
	</g>
	<g>
		<path d="M336.124,718.291v10.563h-2v-10.563h-1.688v-1.455h1.688v-1.354c0-1.096,0.241-1.885,0.722-2.366s1.218-0.722,2.21-0.722
			c0.555,0,1.025,0.044,1.411,0.133v1.521c-0.333-0.059-0.629-0.089-0.889-0.089c-0.511,0-0.881,0.13-1.111,0.39
			c-0.229,0.259-0.344,0.729-0.344,1.41v1.077h2.344v1.455H336.124z"/>
		<path d="M342.671,716.836v7.62c0,0.792,0.078,1.407,0.233,1.844c0.156,0.437,0.403,0.752,0.744,0.944s0.84,0.288,1.5,0.288
			c0.962,0,1.722-0.329,2.277-0.988c0.555-0.659,0.833-1.573,0.833-2.743v-6.965h1.999v9.453c0,1.399,0.022,2.255,0.067,2.565
			h-1.888c-0.008-0.037-0.015-0.137-0.022-0.3s-0.017-0.35-0.028-0.561c-0.011-0.212-0.024-0.609-0.039-1.194h-0.034
			c-0.459,0.829-0.99,1.416-1.594,1.761c-0.604,0.344-1.354,0.516-2.249,0.516c-1.318,0-2.283-0.327-2.894-0.982
			s-0.917-1.738-0.917-3.249v-8.009H342.671z M342.249,715.314v-2.044h1.833v2.044H342.249z M346.625,715.314v-2.044h1.811v2.044
			H346.625z"/>
	</g>
	<g>
		<path d="M353.754,728.854v-9.219c0-0.845-0.022-1.777-0.066-2.8h1.888c0.059,1.363,0.089,2.182,0.089,2.455h0.044
			c0.318-1.029,0.685-1.732,1.1-2.11c0.415-0.378,1-0.566,1.755-0.566c0.267,0,0.537,0.037,0.811,0.111v1.832
			c-0.267-0.073-0.622-0.11-1.066-0.11c-0.83,0-1.462,0.356-1.899,1.071s-0.655,1.738-0.655,3.071v6.265H353.754z"/>
	</g>
	<g>
		<path d="M368.941,728.854v-1.699h3.987v-12.041l-3.532,2.521v-1.888l3.699-2.544h1.844v13.951h3.81v1.699H368.941z"/>
		<path d="M390.343,714.826c-1.6,2.443-2.729,4.357-3.388,5.742c-0.659,1.385-1.153,2.751-1.483,4.099s-0.494,2.743-0.494,4.188
			h-2.088c0-1.999,0.424-4.104,1.272-6.314c0.848-2.211,2.264-4.756,4.249-7.637h-8.408v-1.699h10.341V714.826z"/>
	</g>
	<g>
		<path d="M407.62,728.854h-2.199l-6.386-15.65h2.233l4.331,11.019l0.934,2.766l0.933-2.766l4.31-11.019h2.233L407.62,728.854z"/>
		<path d="M425.303,722.834c0,2.104-0.463,3.67-1.389,4.698c-0.926,1.03-2.27,1.544-4.032,1.544c-1.755,0-3.08-0.534-3.977-1.604
			c-0.896-1.07-1.344-2.616-1.344-4.638c0-4.146,1.796-6.22,5.388-6.22c1.836,0,3.188,0.505,4.054,1.516
			S425.303,720.709,425.303,722.834z M423.203,722.834c0-1.658-0.246-2.863-0.738-3.615c-0.493-0.751-1.32-1.127-2.482-1.127
			c-1.171,0-2.017,0.383-2.538,1.149c-0.522,0.767-0.783,1.964-0.783,3.593c0,1.585,0.257,2.775,0.771,3.571
			s1.324,1.194,2.428,1.194c1.199,0,2.057-0.385,2.571-1.155S423.203,724.471,423.203,722.834z"/>
	</g>
	<g>
		<path d="M428.246,728.854v-9.219c0-0.845-0.022-1.777-0.066-2.8h1.888c0.06,1.363,0.089,2.182,0.089,2.455h0.045
			c0.318-1.029,0.685-1.732,1.1-2.11s1-0.566,1.755-0.566c0.267,0,0.537,0.037,0.811,0.111v1.832
			c-0.267-0.073-0.622-0.11-1.066-0.11c-0.829,0-1.462,0.356-1.899,1.071c-0.437,0.715-0.655,1.738-0.655,3.071v6.265H428.246z"/>
		<path d="M438.221,718.892c0.429-0.785,0.945-1.361,1.549-1.728s1.368-0.55,2.294-0.55c1.303,0,2.264,0.324,2.883,0.972
			c0.618,0.648,0.927,1.734,0.927,3.26v8.009h-2.01v-7.62c0-0.844-0.078-1.472-0.233-1.882c-0.156-0.411-0.411-0.713-0.767-0.905
			c-0.355-0.193-0.848-0.289-1.478-0.289c-0.94,0-1.693,0.326-2.26,0.978c-0.567,0.651-0.851,1.529-0.851,2.632v7.087h-1.999
			v-16.483h1.999v4.287c0,0.452-0.013,0.919-0.038,1.399c-0.026,0.481-0.043,0.76-0.051,0.834H438.221z"/>
	</g>
	<g>
		<path d="M452.338,729.076c-1.207,0-2.114-0.317-2.722-0.955c-0.607-0.637-0.91-1.511-0.91-2.621c0-1.244,0.408-2.199,1.227-2.865
			c0.818-0.667,2.139-1.022,3.96-1.066l2.699-0.045v-0.655c0-0.978-0.207-1.677-0.622-2.1c-0.415-0.422-1.066-0.633-1.955-0.633
			c-0.896,0-1.548,0.152-1.955,0.455c-0.407,0.304-0.651,0.789-0.732,1.455l-2.089-0.188c0.341-2.162,1.948-3.243,4.821-3.243
			c1.511,0,2.647,0.346,3.41,1.038s1.144,1.694,1.144,3.005v5.176c0,0.593,0.078,1.039,0.233,1.339s0.451,0.449,0.889,0.449
			c0.192,0,0.411-0.025,0.655-0.077v1.244c-0.504,0.118-1.019,0.178-1.544,0.178c-0.74,0-1.279-0.194-1.616-0.583
			s-0.527-0.998-0.572-1.827h-0.066c-0.511,0.918-1.105,1.567-1.782,1.949C454.132,728.886,453.308,729.076,452.338,729.076z
			 M452.793,727.577c0.733,0,1.385-0.167,1.955-0.5s1.02-0.79,1.35-1.372c0.329-0.581,0.494-1.179,0.494-1.793v-0.989l-2.188,0.045
			c-0.94,0.015-1.653,0.111-2.138,0.289c-0.485,0.177-0.857,0.451-1.116,0.821c-0.26,0.37-0.389,0.855-0.389,1.455
			c0,0.652,0.176,1.155,0.527,1.511S452.142,727.577,452.793,727.577z"/>
		<path d="M472.792,722.79c0,4.191-1.474,6.286-4.421,6.286c-0.911,0-1.668-0.164-2.271-0.494c-0.604-0.329-1.094-0.86-1.472-1.594
			h-0.022c0,0.229-0.015,0.58-0.044,1.05c-0.03,0.471-0.052,0.742-0.067,0.816h-1.933c0.045-0.399,0.067-1.226,0.067-2.477v-14.007
			h1.999v4.698c0,0.481-0.015,1.048-0.045,1.699h0.045c0.37-0.77,0.86-1.321,1.472-1.654c0.611-0.334,1.368-0.5,2.271-0.5
			c1.518,0,2.634,0.511,3.349,1.532C472.435,719.169,472.792,720.717,472.792,722.79z M470.692,722.856
			c0-1.681-0.222-2.884-0.666-3.61c-0.444-0.726-1.167-1.088-2.166-1.088c-1.126,0-1.946,0.385-2.461,1.155
			c-0.515,0.77-0.771,1.992-0.771,3.665c0,1.577,0.252,2.742,0.755,3.493c0.504,0.752,1.322,1.128,2.455,1.128
			c1.007,0,1.734-0.372,2.183-1.116S470.692,724.53,470.692,722.856z"/>
	</g>
	<g>
		<path d="M477.344,723.268c0,1.377,0.285,2.439,0.855,3.188s1.403,1.122,2.499,1.122c0.866,0,1.561-0.174,2.083-0.522
			c0.521-0.348,0.875-0.788,1.061-1.321l1.755,0.5c-0.718,1.896-2.351,2.843-4.898,2.843c-1.777,0-3.131-0.529-4.06-1.588
			c-0.93-1.059-1.394-2.633-1.394-4.721c0-1.984,0.464-3.506,1.394-4.565c0.929-1.059,2.257-1.588,3.982-1.588
			c3.531,0,5.298,2.129,5.298,6.387v0.267H477.344z M483.853,721.734c-0.11-1.266-0.433-2.189-0.966-2.771
			c-0.533-0.581-1.3-0.871-2.3-0.871c-0.97,0-1.738,0.323-2.305,0.972c-0.566,0.647-0.872,1.538-0.916,2.671H483.853z"/>
		<path d="M496.435,728.854v-7.62c0-0.792-0.078-1.406-0.233-1.844c-0.156-0.437-0.404-0.751-0.744-0.943
			c-0.341-0.193-0.841-0.289-1.5-0.289c-0.963,0-1.722,0.329-2.277,0.988c-0.555,0.659-0.833,1.574-0.833,2.744v6.964h-1.999v-9.452
			c0-1.399-0.022-2.255-0.066-2.566h1.888c0.008,0.037,0.016,0.138,0.022,0.3c0.008,0.163,0.017,0.351,0.028,0.562
			c0.011,0.211,0.023,0.609,0.038,1.194h0.034c0.459-0.83,0.99-1.417,1.594-1.761c0.604-0.345,1.353-0.517,2.249-0.517
			c1.318,0,2.282,0.327,2.894,0.982c0.61,0.656,0.916,1.738,0.916,3.249v8.009H496.435z"/>
	</g>
	<path d="M350.088,421.3l122.173,92.066c-50.845,67.474-146.763,80.955-214.239,30.108c-67.476-50.847-80.956-146.765-30.109-214.24
		c29.897-39.675,72.495-60.914,122.175-60.914V421.3L350.088,421.3z"/>
	<g>
		<defs>
			<rect id="SVGID_3_" x="159.018" y="239.304" width="387.701" height="364"/>
		</defs>
		<clipPath id="SVGID_4_">
			<use xlink:href="#SVGID_3_"  overflow="visible"/>
		</clipPath>
		<path clip-path="url(#SVGID_4_)" fill="none" stroke="#1D1D1B" stroke-width="10" stroke-miterlimit="10" d="M350.088,421.3
			l122.173,92.066c-50.845,67.474-146.763,80.955-214.239,30.108c-67.476-50.847-80.956-146.765-30.109-214.24
			c29.897-39.675,72.495-60.914,122.175-60.914V421.3L350.088,421.3z"/>
	</g>
	<path fill="#FFFFFF" d="M370.088,411.3V258.321c84.488,0,152.978,68.491,152.978,152.979c0,34.725-9.905,64.333-30.805,92.066
		L370.088,411.3L370.088,411.3z"/>
	<g>
		<defs>
			<rect id="SVGID_5_" x="159.018" y="239.304" width="387.701" height="364"/>
		</defs>
		<clipPath id="SVGID_6_">
			<use xlink:href="#SVGID_5_"  overflow="visible"/>
		</clipPath>
		<path clip-path="url(#SVGID_6_)" fill="none" stroke="#1D1D1B" stroke-width="10" stroke-miterlimit="10" d="M370.088,411.3
			V258.321c84.488,0,152.978,68.491,152.978,152.979c0,34.725-9.905,64.333-30.805,92.066L370.088,411.3L370.088,411.3z"/>
	</g>
	<g>
		<path d="M441.981,235.337c0,1.163-0.477,2.075-1.428,2.738s-2.268,0.994-3.948,0.994c-1.651,0-2.916-0.261-3.794-0.783
			c-0.877-0.522-1.46-1.334-1.749-2.438l2.743-0.411c0.156,0.57,0.424,0.974,0.806,1.211c0.381,0.237,1.046,0.355,1.994,0.355
			c0.873,0,1.51-0.111,1.91-0.333c0.399-0.222,0.6-0.57,0.6-1.044c0-0.385-0.161-0.69-0.483-0.917
			c-0.322-0.226-0.868-0.417-1.638-0.572c-1.763-0.348-2.951-0.672-3.565-0.972c-0.615-0.3-1.083-0.688-1.405-1.166
			s-0.483-1.064-0.483-1.761c0-1.147,0.442-2.042,1.327-2.682s2.139-0.961,3.76-0.961c1.43,0,2.579,0.278,3.449,0.833
			s1.412,1.359,1.627,2.41l-2.766,0.289c-0.089-0.489-0.308-0.854-0.655-1.094c-0.348-0.24-0.899-0.361-1.655-0.361
			c-0.74,0-1.296,0.094-1.666,0.283s-0.555,0.505-0.555,0.95c0,0.348,0.142,0.624,0.427,0.828s0.765,0.372,1.438,0.505
			c0.94,0.192,1.775,0.391,2.505,0.594s1.314,0.446,1.755,0.728c0.44,0.281,0.793,0.642,1.056,1.083
			C441.85,234.083,441.981,234.648,441.981,235.337z"/>
		<path d="M456.74,232.827c0,1.947-0.541,3.475-1.622,4.582s-2.576,1.661-4.487,1.661c-1.873,0-3.343-0.555-4.409-1.666
			s-1.6-2.636-1.6-4.576c0-1.933,0.533-3.453,1.6-4.56s2.559-1.661,4.476-1.661c1.963,0,3.46,0.535,4.493,1.605
			S456.74,230.82,456.74,232.827z M453.475,232.827c0-1.429-0.233-2.466-0.7-3.11c-0.466-0.644-1.144-0.966-2.032-0.966
			c-1.896,0-2.844,1.359-2.844,4.077c0,1.34,0.231,2.36,0.694,3.06s1.131,1.049,2.005,1.049
			C452.516,236.936,453.475,235.566,453.475,232.827z"/>
		<path d="M467.822,238.847v-6.742c0-2.11-0.715-3.166-2.145-3.166c-0.755,0-1.364,0.324-1.827,0.972s-0.693,1.479-0.693,2.494
			v6.442h-3.122v-9.33c0-0.645-0.009-1.172-0.027-1.583s-0.039-0.779-0.062-1.105h2.978c0.021,0.141,0.052,0.516,0.089,1.127
			c0.037,0.611,0.056,1.031,0.056,1.26h0.044c0.422-0.918,0.951-1.584,1.589-1.999c0.637-0.415,1.396-0.622,2.276-0.622
			c1.273,0,2.251,0.393,2.933,1.177c0.682,0.785,1.021,1.933,1.021,3.443v7.631H467.822z"/>
		<path d="M484.88,235.337c0,1.163-0.477,2.075-1.428,2.738s-2.268,0.994-3.948,0.994c-1.651,0-2.916-0.261-3.794-0.783
			c-0.877-0.522-1.46-1.334-1.749-2.438l2.743-0.411c0.156,0.57,0.424,0.974,0.806,1.211c0.381,0.237,1.046,0.355,1.994,0.355
			c0.873,0,1.51-0.111,1.91-0.333c0.399-0.222,0.6-0.57,0.6-1.044c0-0.385-0.161-0.69-0.483-0.917
			c-0.322-0.226-0.868-0.417-1.638-0.572c-1.763-0.348-2.951-0.672-3.565-0.972c-0.615-0.3-1.083-0.688-1.405-1.166
			s-0.483-1.064-0.483-1.761c0-1.147,0.442-2.042,1.327-2.682s2.139-0.961,3.76-0.961c1.43,0,2.579,0.278,3.449,0.833
			s1.412,1.359,1.627,2.41l-2.766,0.289c-0.089-0.489-0.308-0.854-0.655-1.094c-0.348-0.24-0.899-0.361-1.655-0.361
			c-0.74,0-1.296,0.094-1.666,0.283s-0.555,0.505-0.555,0.95c0,0.348,0.142,0.624,0.427,0.828s0.765,0.372,1.438,0.505
			c0.94,0.192,1.775,0.391,2.505,0.594s1.314,0.446,1.755,0.728c0.44,0.281,0.793,0.642,1.056,1.083
			C484.748,234.083,484.88,234.648,484.88,235.337z"/>
		<path d="M491.297,239.046c-0.918,0-1.625-0.25-2.121-0.75s-0.744-1.257-0.744-2.271v-7.086h-1.522v-2.11h1.678l0.978-2.821h1.955
			v2.821h2.276v2.11h-2.276v6.242c0,0.585,0.11,1.017,0.333,1.294c0.222,0.278,0.566,0.417,1.033,0.417
			c0.244,0,0.592-0.052,1.044-0.155v1.933C493.159,238.92,492.281,239.046,491.297,239.046z"/>
		<path d="M496.614,224.663v-2.299h3.122v2.299H496.614z M496.614,238.847v-12.018h3.122v12.018H496.614z"/>
		<path d="M508.785,243.667c-1.466,0-2.646-0.28-3.538-0.839s-1.442-1.357-1.649-2.394l3.121-0.367
			c0.111,0.481,0.351,0.859,0.717,1.133c0.366,0.273,0.846,0.411,1.438,0.411c0.866,0,1.499-0.267,1.899-0.8
			c0.399-0.533,0.6-1.325,0.6-2.377v-0.633l0.022-1.188h-0.022c-0.688,1.474-1.978,2.21-3.865,2.21
			c-1.399,0-2.484-0.526-3.255-1.578c-0.77-1.051-1.155-2.555-1.155-4.509c0-1.962,0.396-3.477,1.188-4.543
			c0.793-1.066,1.944-1.6,3.455-1.6c1.747,0,2.958,0.722,3.632,2.166h0.056c0-0.259,0.017-0.611,0.05-1.055s0.068-0.737,0.105-0.877
			h2.955c-0.045,0.8-0.067,1.725-0.067,2.777v8.875c0,1.711-0.484,3.003-1.455,3.876
			C512.047,243.23,510.636,243.667,508.785,243.667z M511.396,232.671c0-1.236-0.221-2.201-0.661-2.894s-1.068-1.039-1.883-1.039
			c-1.666,0-2.499,1.333-2.499,3.999c0,2.614,0.825,3.921,2.477,3.921c0.83,0,1.465-0.346,1.905-1.039
			S511.396,233.945,511.396,232.671z"/>
		<path d="M523.389,239.069c-1.807,0-3.195-0.535-4.165-1.605c-0.971-1.07-1.455-2.63-1.455-4.682c0-1.984,0.492-3.51,1.478-4.577
			c0.984-1.066,2.38-1.599,4.188-1.599c1.725,0,3.043,0.572,3.954,1.716c0.91,1.144,1.366,2.82,1.366,5.026v0.089h-7.709
			c0,1.17,0.217,2.053,0.65,2.649c0.433,0.596,1.049,0.894,1.849,0.894c1.104,0,1.8-0.478,2.089-1.433l2.943,0.255
			C527.725,237.98,525.995,239.069,523.389,239.069z M523.389,228.572c-0.733,0-1.298,0.255-1.693,0.767
			c-0.396,0.511-0.605,1.226-0.628,2.144h4.665c-0.06-0.97-0.293-1.697-0.699-2.183
			C524.625,228.815,524.077,228.572,523.389,228.572z"/>
		<path d="M546.152,238.847v-6.742c0-2.11-0.607-3.166-1.822-3.166c-0.629,0-1.142,0.322-1.538,0.966
			c-0.396,0.644-0.594,1.477-0.594,2.499v6.442h-3.122v-9.33c0-0.645-0.009-1.172-0.027-1.583s-0.039-0.779-0.062-1.105h2.978
			c0.021,0.141,0.052,0.516,0.089,1.127c0.037,0.611,0.056,1.031,0.056,1.26h0.044c0.385-0.918,0.864-1.584,1.438-1.999
			s1.261-0.622,2.061-0.622c1.836,0,2.95,0.874,3.343,2.621h0.067c0.407-0.933,0.896-1.603,1.466-2.01s1.296-0.611,2.177-0.611
			c1.17,0,2.062,0.398,2.678,1.194c0.614,0.796,0.922,1.938,0.922,3.427v7.631h-3.1v-6.742c0-2.11-0.607-3.166-1.821-3.166
			c-0.607,0-1.105,0.294-1.494,0.883c-0.389,0.589-0.602,1.401-0.639,2.438v6.587H546.152z"/>
		<path d="M562.899,239.069c-1.163,0-2.069-0.316-2.722-0.95c-0.651-0.633-0.978-1.523-0.978-2.671c0-1.244,0.406-2.192,1.217-2.843
			c0.811-0.652,1.986-0.985,3.526-1l2.588-0.044v-0.611c0-0.785-0.137-1.368-0.411-1.75c-0.273-0.381-0.722-0.572-1.344-0.572
			c-0.577,0-1.001,0.131-1.271,0.394c-0.271,0.263-0.438,0.698-0.506,1.305l-3.254-0.155c0.199-1.17,0.734-2.057,1.604-2.66
			s2.057-0.905,3.561-0.905c1.518,0,2.688,0.374,3.51,1.122c0.822,0.748,1.232,1.811,1.232,3.188v4.376
			c0,0.674,0.076,1.138,0.229,1.394c0.151,0.255,0.405,0.383,0.761,0.383c0.236,0,0.466-0.022,0.688-0.066v1.688
			c-0.186,0.044-0.352,0.085-0.5,0.122c-0.148,0.037-0.296,0.066-0.444,0.089c-0.148,0.022-0.306,0.041-0.472,0.055
			c-0.167,0.015-0.361,0.022-0.583,0.022c-0.785,0-1.365-0.192-1.739-0.578c-0.373-0.385-0.598-0.951-0.672-1.699h-0.066
			C565.979,238.28,564.662,239.069,562.899,239.069z M566.531,233.282l-1.6,0.022c-0.726,0.03-1.24,0.109-1.544,0.239
			s-0.534,0.328-0.693,0.594c-0.16,0.267-0.239,0.622-0.239,1.066c0,0.57,0.132,0.994,0.395,1.271
			c0.263,0.278,0.612,0.417,1.05,0.417c0.488,0,0.935-0.133,1.338-0.4s0.721-0.635,0.95-1.105s0.344-0.968,0.344-1.494V233.282z"/>
	</g>
	<g>
		<path d="M573.897,224.663v-2.299h3.122v2.299H573.897z M573.897,238.847v-12.018h3.122v12.018H573.897z"/>
		<path d="M588.642,238.847v-6.742c0-2.11-0.715-3.166-2.145-3.166c-0.755,0-1.364,0.324-1.827,0.972s-0.693,1.479-0.693,2.494
			v6.442h-3.122v-9.33c0-0.645-0.009-1.172-0.027-1.583s-0.039-0.779-0.062-1.105h2.978c0.021,0.141,0.052,0.516,0.089,1.127
			c0.037,0.611,0.056,1.031,0.056,1.26h0.044c0.422-0.918,0.951-1.584,1.589-1.999c0.637-0.415,1.396-0.622,2.276-0.622
			c1.273,0,2.251,0.393,2.933,1.177c0.682,0.785,1.021,1.933,1.021,3.443v7.631H588.642z"/>
		<path d="M594.71,238.847v-2.21l5.653-7.553h-5.198v-2.255h8.642v2.232l-5.62,7.509h6.164v2.277H594.71z"/>
		<path d="M612.318,239.069c-1.807,0-3.195-0.535-4.165-1.605c-0.971-1.07-1.455-2.63-1.455-4.682c0-1.984,0.492-3.51,1.478-4.577
			c0.984-1.066,2.38-1.599,4.188-1.599c1.725,0,3.043,0.572,3.954,1.716c0.91,1.144,1.366,2.82,1.366,5.026v0.089h-7.709
			c0,1.17,0.217,2.053,0.65,2.649c0.433,0.596,1.049,0.894,1.849,0.894c1.104,0,1.8-0.478,2.089-1.433l2.943,0.255
			C616.654,237.98,614.925,239.069,612.318,239.069z M612.318,228.572c-0.733,0-1.298,0.255-1.693,0.767
			c-0.396,0.511-0.605,1.226-0.628,2.144h4.665c-0.06-0.97-0.293-1.697-0.699-2.183
			C613.555,228.815,613.007,228.572,612.318,228.572z"/>
	</g>
	<g>
		<path d="M628.692,238.847c-0.03-0.111-0.065-0.391-0.105-0.838c-0.041-0.448-0.062-0.82-0.062-1.117h-0.044
			c-0.675,1.452-1.955,2.177-3.844,2.177c-1.399,0-2.48-0.546-3.243-1.638s-1.145-2.62-1.145-4.582c0-1.992,0.402-3.53,1.205-4.615
			c0.804-1.084,1.942-1.627,3.416-1.627c0.852,0,1.587,0.178,2.205,0.533s1.094,0.885,1.427,1.588h0.022l-0.022-1.978v-4.387h3.121
			v13.862c0,0.741,0.03,1.615,0.089,2.622H628.692z M628.548,232.771c0-1.296-0.217-2.294-0.65-2.994
			c-0.433-0.7-1.071-1.049-1.916-1.049c-0.837,0-1.459,0.338-1.865,1.016c-0.408,0.678-0.611,1.712-0.611,3.104
			c0,2.725,0.818,4.087,2.455,4.087c0.821,0,1.458-0.361,1.91-1.083C628.321,235.131,628.548,234.104,628.548,232.771z"/>
		<path d="M635.147,234.304v-2.71h5.775v2.71H635.147z"/>
	</g>
	<g>
		<path d="M657.549,228.15c0,1.007-0.229,1.907-0.688,2.699c-0.46,0.792-1.117,1.405-1.972,1.838c-0.855,0.433-1.872,0.65-3.05,0.65
			h-3.887v5.509h-3.277v-15.65h7.031c1.873,0,3.315,0.432,4.326,1.294C657.043,225.353,657.549,226.573,657.549,228.15z
			 M654.25,228.206c0-1.644-0.971-2.466-2.91-2.466h-3.388v5.076h3.477c0.903,0,1.599-0.224,2.088-0.672
			C654.005,229.696,654.25,229.05,654.25,228.206z"/>
		<path d="M663.351,239.069c-1.163,0-2.069-0.316-2.722-0.95c-0.651-0.633-0.978-1.523-0.978-2.671c0-1.244,0.406-2.192,1.217-2.843
			c0.811-0.652,1.986-0.985,3.526-1l2.588-0.044v-0.611c0-0.785-0.137-1.368-0.411-1.75c-0.273-0.381-0.722-0.572-1.344-0.572
			c-0.577,0-1.001,0.131-1.271,0.394c-0.271,0.263-0.438,0.698-0.506,1.305l-3.254-0.155c0.199-1.17,0.734-2.057,1.604-2.66
			s2.057-0.905,3.561-0.905c1.518,0,2.688,0.374,3.51,1.122c0.822,0.748,1.232,1.811,1.232,3.188v4.376
			c0,0.674,0.076,1.138,0.229,1.394c0.151,0.255,0.405,0.383,0.761,0.383c0.236,0,0.466-0.022,0.688-0.066v1.688
			c-0.186,0.044-0.352,0.085-0.5,0.122c-0.148,0.037-0.296,0.066-0.444,0.089c-0.148,0.022-0.306,0.041-0.472,0.055
			c-0.167,0.015-0.361,0.022-0.583,0.022c-0.785,0-1.365-0.192-1.739-0.578c-0.373-0.385-0.598-0.951-0.672-1.699h-0.066
			C666.431,238.28,665.113,239.069,663.351,239.069z M666.982,233.282l-1.6,0.022c-0.726,0.03-1.24,0.109-1.544,0.239
			s-0.534,0.328-0.693,0.594c-0.16,0.267-0.239,0.622-0.239,1.066c0,0.57,0.132,0.994,0.395,1.271
			c0.263,0.278,0.612,0.417,1.05,0.417c0.488,0,0.935-0.133,1.338-0.4s0.721-0.635,0.95-1.105s0.344-0.968,0.344-1.494V233.282z"/>
	</g>
	<g>
		<path d="M674.241,238.847v-9.197c0-0.659-0.009-1.209-0.027-1.649c-0.019-0.441-0.039-0.832-0.062-1.172h2.978
			c0.021,0.133,0.052,0.539,0.089,1.216c0.037,0.677,0.056,1.127,0.056,1.349h0.044c0.304-0.844,0.574-1.438,0.811-1.783
			c0.237-0.344,0.519-0.6,0.845-0.766c0.325-0.167,0.732-0.25,1.222-0.25c0.399,0,0.722,0.056,0.966,0.167v2.61
			c-0.503-0.111-0.947-0.167-1.332-0.167c-0.778,0-1.383,0.315-1.816,0.944c-0.434,0.629-0.649,1.562-0.649,2.799v5.898H674.241z"/>
		<path d="M687.604,239.046c-0.918,0-1.625-0.25-2.121-0.75s-0.744-1.257-0.744-2.271v-7.086h-1.522v-2.11h1.678l0.978-2.821h1.955
			v2.821h2.276v2.11h-2.276v6.242c0,0.585,0.11,1.017,0.333,1.294c0.222,0.278,0.566,0.417,1.033,0.417
			c0.244,0,0.592-0.052,1.044-0.155v1.933C689.467,238.92,688.589,239.046,687.604,239.046z"/>
	</g>
	<g>
		<path d="M700.724,238.847v-6.742c0-2.11-0.715-3.166-2.145-3.166c-0.755,0-1.364,0.324-1.827,0.972s-0.693,1.479-0.693,2.494
			v6.442h-3.122v-9.33c0-0.645-0.009-1.172-0.027-1.583s-0.039-0.779-0.062-1.105h2.978c0.021,0.141,0.052,0.516,0.089,1.127
			c0.037,0.611,0.056,1.031,0.056,1.26h0.044c0.422-0.918,0.951-1.584,1.589-1.999c0.637-0.415,1.396-0.622,2.276-0.622
			c1.273,0,2.251,0.393,2.933,1.177c0.682,0.785,1.021,1.933,1.021,3.443v7.631H700.724z"/>
		<path d="M712.571,239.069c-1.807,0-3.195-0.535-4.165-1.605c-0.971-1.07-1.455-2.63-1.455-4.682c0-1.984,0.492-3.51,1.478-4.577
			c0.984-1.066,2.38-1.599,4.188-1.599c1.725,0,3.043,0.572,3.954,1.716c0.91,1.144,1.366,2.82,1.366,5.026v0.089h-7.709
			c0,1.17,0.217,2.053,0.65,2.649c0.433,0.596,1.049,0.894,1.849,0.894c1.104,0,1.8-0.478,2.089-1.433l2.943,0.255
			C716.907,237.98,715.178,239.069,712.571,239.069z M712.571,228.572c-0.733,0-1.298,0.255-1.693,0.767
			c-0.396,0.511-0.605,1.226-0.628,2.144h4.665c-0.06-0.97-0.293-1.697-0.699-2.183C713.808,228.815,713.26,228.572,712.571,228.572
			z"/>
	</g>
	<g>
		<path d="M721.124,238.847v-9.197c0-0.659-0.009-1.209-0.027-1.649c-0.019-0.441-0.039-0.832-0.062-1.172h2.978
			c0.021,0.133,0.052,0.539,0.089,1.216c0.037,0.677,0.056,1.127,0.056,1.349h0.044c0.304-0.844,0.574-1.438,0.811-1.783
			c0.237-0.344,0.519-0.6,0.845-0.766c0.325-0.167,0.732-0.25,1.222-0.25c0.399,0,0.722,0.056,0.966,0.167v2.61
			c-0.503-0.111-0.947-0.167-1.332-0.167c-0.778,0-1.383,0.315-1.816,0.944c-0.434,0.629-0.649,1.562-0.649,2.799v5.898H721.124z"/>
	</g>
	<g>
		<path d="M476.008,263.523c0-1,0.3-1.89,0.899-2.671s1.551-1.475,2.854-2.083c-0.548-1.111-0.822-2.144-0.822-3.099
			c0-1.155,0.363-2.045,1.089-2.671c0.726-0.625,1.759-0.938,3.099-0.938c1.244,0,2.228,0.296,2.949,0.889s1.083,1.396,1.083,2.41
			c0,0.57-0.145,1.085-0.433,1.544c-0.289,0.459-0.698,0.885-1.228,1.277c-0.529,0.393-1.428,0.885-2.693,1.478
			c0.732,1.296,1.636,2.54,2.71,3.732c0.77-1.17,1.354-2.514,1.755-4.032l2.321,0.777c-0.504,1.726-1.218,3.28-2.144,4.665
			c0.637,0.541,1.296,0.811,1.977,0.811c0.481,0,0.915-0.06,1.3-0.178v2.255c-0.407,0.163-0.893,0.244-1.455,0.244
			c-0.637,0-1.275-0.115-1.916-0.344s-1.224-0.563-1.749-1c-1.259,0.956-2.662,1.433-4.21,1.433c-1.711,0-3.036-0.395-3.977-1.183
			S476.008,264.945,476.008,263.523z M483.761,265.067c-1.229-1.37-2.236-2.766-3.021-4.188c-1.273,0.6-1.91,1.466-1.91,2.599
			c0,0.733,0.24,1.322,0.722,1.766s1.137,0.667,1.966,0.667c0.481,0,0.917-0.089,1.306-0.267S483.523,265.275,483.761,265.067z
			 M484.671,255.382c0-0.422-0.141-0.767-0.422-1.033s-0.663-0.4-1.144-0.4c-0.57,0-1.006,0.16-1.306,0.478
			c-0.3,0.319-0.449,0.741-0.449,1.267c0,0.644,0.199,1.359,0.6,2.144c0.777-0.333,1.334-0.615,1.672-0.844
			c0.336-0.229,0.596-0.474,0.777-0.733C484.58,256,484.671,255.708,484.671,255.382z"/>
	</g>
	<g>
		<path d="M501.558,267.8v-15.65h12.308v2.533h-9.03v3.932h8.353v2.533h-8.353v4.121h9.485v2.533H501.558z"/>
		<path d="M525.784,267.8l-2.799-4.354l-2.821,4.354h-3.321l4.398-6.209l-4.188-5.809h3.366l2.565,3.932l2.555-3.932h3.388
			l-4.188,5.776l4.432,6.242H525.784z"/>
	</g>
	<g>
		<path d="M535.607,268c-0.918,0-1.625-0.25-2.121-0.75s-0.744-1.257-0.744-2.271v-7.086h-1.522v-2.11h1.678l0.978-2.821h1.955
			v2.821h2.276v2.11h-2.276v6.242c0,0.585,0.11,1.017,0.333,1.294c0.222,0.278,0.566,0.417,1.033,0.417
			c0.244,0,0.592-0.052,1.044-0.155v1.933C537.47,267.874,536.592,268,535.607,268z"/>
		<path d="M546.073,268.022c-1.807,0-3.195-0.535-4.165-1.605c-0.971-1.07-1.455-2.63-1.455-4.682c0-1.984,0.492-3.51,1.478-4.577
			c0.984-1.066,2.38-1.599,4.188-1.599c1.725,0,3.043,0.572,3.954,1.716c0.91,1.144,1.366,2.82,1.366,5.026v0.089h-7.709
			c0,1.17,0.217,2.053,0.65,2.649c0.433,0.596,1.049,0.894,1.849,0.894c1.104,0,1.8-0.478,2.089-1.433l2.943,0.255
			C550.409,266.934,548.68,268.022,546.073,268.022z M546.073,257.525c-0.733,0-1.298,0.255-1.693,0.767
			c-0.396,0.511-0.605,1.226-0.628,2.144h4.665c-0.06-0.97-0.293-1.697-0.699-2.183C547.31,257.768,546.762,257.525,546.073,257.525
			z"/>
		<path d="M554.85,267.8v-9.197c0-0.659-0.009-1.209-0.027-1.649c-0.019-0.441-0.039-0.832-0.062-1.172h2.978
			c0.021,0.133,0.052,0.539,0.089,1.216c0.037,0.677,0.056,1.127,0.056,1.349h0.044c0.304-0.844,0.574-1.438,0.811-1.783
			c0.237-0.344,0.519-0.6,0.845-0.766c0.325-0.167,0.732-0.25,1.222-0.25c0.399,0,0.722,0.056,0.966,0.167v2.61
			c-0.503-0.111-0.947-0.167-1.332-0.167c-0.778,0-1.383,0.315-1.816,0.944c-0.434,0.629-0.649,1.562-0.649,2.799v5.898H554.85z"/>
		<path d="M572.536,267.8v-6.742c0-2.11-0.715-3.166-2.145-3.166c-0.755,0-1.364,0.324-1.827,0.972s-0.693,1.479-0.693,2.494v6.442
			h-3.122v-9.33c0-0.645-0.009-1.172-0.027-1.583s-0.039-0.779-0.062-1.105h2.978c0.021,0.141,0.052,0.516,0.089,1.127
			c0.037,0.611,0.056,1.031,0.056,1.26h0.044c0.422-0.918,0.951-1.584,1.589-1.999c0.637-0.415,1.396-0.622,2.276-0.622
			c1.273,0,2.251,0.393,2.933,1.177c0.682,0.785,1.021,1.933,1.021,3.443v7.631H572.536z"/>
	</g>
	<g>
		<path d="M206.302,267.749c-1.622,0-2.868-0.352-3.738-1.055s-1.449-1.84-1.738-3.41l3.254-0.478
			c0.133,0.807,0.381,1.405,0.744,1.794s0.863,0.583,1.5,0.583c0.652,0,1.146-0.218,1.483-0.655s0.505-1.062,0.505-1.877v-8.208
			h-3.121v-2.566h6.387v10.696c0,1.629-0.463,2.899-1.388,3.81C209.264,267.293,207.968,267.749,206.302,267.749z"/>
		<path d="M223.2,265.183c0.852,0,1.677-0.124,2.477-0.372s1.418-0.564,1.855-0.95v-2.166h-3.821v-2.421h6.82v5.754
			c-0.83,0.852-1.909,1.518-3.238,1.999c-1.33,0.481-2.724,0.722-4.182,0.722c-2.547,0-4.506-0.706-5.876-2.116
			s-2.055-3.412-2.055-6.003c0-2.577,0.688-4.552,2.066-5.926s3.358-2.061,5.942-2.061c3.673,0,6.009,1.359,7.009,4.077
			l-3.021,0.911c-0.326-0.792-0.837-1.392-1.533-1.799c-0.696-0.407-1.514-0.611-2.455-0.611c-1.54,0-2.71,0.466-3.51,1.399
			s-1.2,2.27-1.2,4.01c0,1.77,0.413,3.138,1.238,4.104C220.543,264.7,221.704,265.183,223.2,265.183z"/>
	</g>
	<g>
		<path d="M241.028,267.749c-2.155,0-3.804-0.526-4.948-1.577s-1.716-2.555-1.716-4.51v-9.786h3.277v9.53
			c0,1.237,0.294,2.175,0.883,2.815c0.589,0.641,1.453,0.961,2.594,0.961c1.17,0,2.069-0.335,2.699-1.005
			c0.629-0.67,0.944-1.631,0.944-2.882v-9.419h3.277v9.619c0,1.984-0.613,3.523-1.838,4.615S243.249,267.749,241.028,267.749z"/>
	</g>
	<line fill="none" stroke="#000000" x1="57.88" y1="742.3" x2="741.88" y2="742.3"/>
</g>
</svg>
