<?xml version="1.0" encoding="utf-8"?>
<!-- Generator: Adobe Illustrator 16.0.4, SVG Export Plug-In . SVG Version: 6.00 Build 0)  -->
<!DOCTYPE svg PUBLIC "-//W3C//DTD SVG 1.1//EN" "http://www.w3.org/Graphics/SVG/1.1/DTD/svg11.dtd">
<svg version="1.1" id="Ebene_1" xmlns="http://www.w3.org/2000/svg" xmlns:xlink="http://www.w3.org/1999/xlink" x="0px" y="0px"
	 width="799.879px" height="800px" viewBox="0 0 799.879 800" enable-background="new 0 0 799.879 800" xml:space="preserve">
<g>
	<g>
		<g>
			<defs>
				<rect id="SVGID_1_" y="1" width="799.879" height="799.8"/>
			</defs>
			<clipPath id="SVGID_2_">
				<use xlink:href="#SVGID_1_"  overflow="visible"/>
			</clipPath>
			<polygon clip-path="url(#SVGID_2_)" fill="#F0F3EF" points="-8.12,-19.2 -8.12,820.8 822.879,820.8 822.879,-19.2 			"/>
		</g>
	</g>
	<g>
		<path d="M67.469,65.673v9.686h16.017v5.065H67.469v11.485h-6.553V60.608h23.081v5.065H67.469z"/>
		<path d="M112.268,79.869c0,3.896-1.082,6.95-3.244,9.164c-2.162,2.214-5.154,3.321-8.975,3.321c-3.747,0-6.687-1.111-8.819-3.332
			c-2.133-2.222-3.199-5.272-3.199-9.153c0-3.865,1.066-6.905,3.199-9.119s5.117-3.321,8.953-3.321c3.924,0,6.92,1.07,8.986,3.21
			C111.235,72.779,112.268,75.855,112.268,79.869z M105.737,79.869c0-2.858-0.466-4.932-1.399-6.22s-2.288-1.933-4.065-1.933
			c-3.792,0-5.687,2.718-5.687,8.153c0,2.681,0.463,4.721,1.388,6.12c0.926,1.4,2.262,2.1,4.01,2.1
			C103.819,88.088,105.737,85.349,105.737,79.869z"/>
		<path d="M117.813,91.909V73.515c0-1.318-0.019-2.417-0.056-3.299c-0.037-0.881-0.078-1.662-0.122-2.344h5.954
			c0.044,0.267,0.104,1.078,0.178,2.433c0.074,1.355,0.111,2.255,0.111,2.699h0.089c0.607-1.688,1.147-2.877,1.622-3.565
			c0.474-0.689,1.036-1.2,1.688-1.533c0.652-0.333,1.466-0.5,2.444-0.5c0.8,0,1.444,0.111,1.933,0.333v5.221
			c-1.007-0.222-1.896-0.333-2.666-0.333c-1.555,0-2.766,0.63-3.632,1.889c-0.867,1.259-1.3,3.125-1.3,5.598V91.91L117.813,91.909
			L117.813,91.909z"/>
		<path d="M156.37,84.889c0,2.325-0.952,4.151-2.854,5.476c-1.903,1.326-4.536,1.988-7.897,1.988c-3.303,0-5.831-0.522-7.586-1.566
			c-1.755-1.044-2.921-2.669-3.499-4.876l5.487-0.822c0.311,1.141,0.848,1.947,1.611,2.421c0.762,0.474,2.091,0.711,3.987,0.711
			c1.748,0,3.021-0.222,3.821-0.667c0.799-0.444,1.199-1.14,1.199-2.088c0-0.77-0.322-1.381-0.966-1.833
			c-0.644-0.452-1.736-0.833-3.276-1.144c-3.525-0.696-5.902-1.344-7.131-1.944s-2.166-1.377-2.81-2.333s-0.966-2.129-0.966-3.521
			c0-2.295,0.885-4.084,2.655-5.365c1.77-1.281,4.276-1.921,7.52-1.921c2.858,0,5.157,0.555,6.898,1.666
			c1.74,1.111,2.825,2.718,3.254,4.821l-5.532,0.578c-0.178-0.978-0.615-1.707-1.311-2.188c-0.696-0.481-1.799-0.722-3.31-0.722
			c-1.481,0-2.592,0.188-3.332,0.566c-0.741,0.377-1.111,1.011-1.111,1.899c0,0.696,0.285,1.248,0.855,1.655
			c0.57,0.408,1.529,0.744,2.876,1.011c1.881,0.385,3.551,0.781,5.01,1.188c1.458,0.408,2.628,0.893,3.51,1.455
			c0.881,0.563,1.584,1.285,2.11,2.166C156.106,82.383,156.37,83.512,156.37,84.889z"/>
		<path d="M172.023,92.354c-3.644,0-6.458-1.085-8.442-3.254c-1.985-2.169-2.977-5.194-2.977-9.075c0-3.969,1-7.061,2.999-9.275
			s4.835-3.321,8.508-3.321c2.829,0,5.168,0.711,7.02,2.133s3.014,3.384,3.488,5.887l-6.287,0.311
			c-0.178-1.229-0.622-2.21-1.333-2.943s-1.718-1.1-3.021-1.1c-3.214,0-4.821,2.688-4.821,8.064c0,5.539,1.636,8.309,4.91,8.309
			c1.185,0,2.177-0.374,2.977-1.122s1.296-1.862,1.488-3.343l6.265,0.289c-0.222,1.644-0.811,3.11-1.766,4.399
			c-0.955,1.288-2.21,2.285-3.765,2.988C175.71,92.001,173.963,92.354,172.023,92.354z"/>
		<path d="M194.051,72.671c0.844-1.836,1.903-3.169,3.177-3.999c1.273-0.829,2.792-1.244,4.554-1.244
			c2.547,0,4.502,0.785,5.865,2.355c1.362,1.57,2.043,3.865,2.043,6.887v15.239h-6.22V78.447c0-4.221-1.43-6.331-4.288-6.331
			c-1.511,0-2.729,0.648-3.654,1.944c-0.926,1.296-1.389,2.958-1.389,4.987v12.862h-6.242V58.942h6.242v8.997
			c0,1.614-0.059,3.191-0.178,4.731L194.051,72.671L194.051,72.671z"/>
		<path d="M222.167,67.873v13.484c0,4.221,1.422,6.332,4.266,6.332c1.51,0,2.729-0.648,3.654-1.944
			c0.925-1.296,1.388-2.958,1.388-4.987V67.873h6.243v18.661c0,2.044,0.059,3.836,0.178,5.376h-5.954
			c-0.178-2.133-0.267-3.725-0.267-4.776h-0.111c-0.83,1.822-1.885,3.147-3.166,3.977c-1.281,0.829-2.803,1.244-4.565,1.244
			c-2.548,0-4.502-0.781-5.865-2.344c-1.363-1.562-2.044-3.854-2.044-6.875V67.873H222.167z"/>
		<path d="M260.235,91.909V78.425c0-4.221-1.43-6.331-4.288-6.331c-1.511,0-2.729,0.648-3.654,1.943
			c-0.926,1.296-1.389,2.958-1.389,4.987v12.885h-6.242v-18.66c0-1.288-0.019-2.343-0.056-3.166
			c-0.037-0.822-0.078-1.559-0.122-2.21h5.954c0.044,0.282,0.104,1.033,0.178,2.255c0.074,1.222,0.111,2.062,0.111,2.521h0.089
			c0.844-1.836,1.903-3.169,3.177-3.999c1.273-0.83,2.792-1.244,4.554-1.244c2.547,0,4.502,0.785,5.865,2.354
			c1.362,1.57,2.043,3.866,2.043,6.887v15.262H260.235z"/>
		<path d="M283.108,101.55c-2.933,0-5.291-0.559-7.076-1.677c-1.785-1.118-2.884-2.714-3.299-4.787l6.242-0.733
			c0.222,0.962,0.7,1.718,1.433,2.266c0.733,0.548,1.692,0.822,2.877,0.822c1.732,0,2.999-0.533,3.798-1.6
			c0.8-1.066,1.2-2.651,1.2-4.754V89.82l0.044-2.377h-0.044c-1.377,2.947-3.954,4.421-7.73,4.421c-2.799,0-4.969-1.051-6.509-3.154
			c-1.541-2.103-2.31-5.11-2.31-9.02c0-3.924,0.792-6.953,2.377-9.086c1.584-2.132,3.888-3.199,6.909-3.199
			c3.495,0,5.917,1.444,7.264,4.332h0.111c0-0.519,0.033-1.222,0.1-2.11c0.067-0.889,0.137-1.474,0.211-1.755h5.909
			c-0.089,1.6-0.133,3.451-0.133,5.554v17.75c0,3.421-0.97,6.005-2.91,7.753C289.632,100.676,286.811,101.55,283.108,101.55z
			 M288.329,79.558c0-2.473-0.441-4.402-1.322-5.787c-0.881-1.385-2.136-2.077-3.765-2.077c-3.333,0-4.999,2.666-4.999,7.997
			c0,5.228,1.651,7.842,4.954,7.842c1.658,0,2.928-0.692,3.81-2.077C287.888,84.071,288.329,82.105,288.329,79.558z"/>
		<path d="M321.687,84.889c0,2.325-0.952,4.151-2.854,5.476c-1.903,1.326-4.536,1.988-7.897,1.988c-3.303,0-5.831-0.522-7.586-1.566
			c-1.755-1.044-2.921-2.669-3.499-4.876l5.487-0.822c0.311,1.141,0.848,1.947,1.611,2.421c0.762,0.474,2.091,0.711,3.987,0.711
			c1.748,0,3.021-0.222,3.821-0.667c0.799-0.444,1.199-1.14,1.199-2.088c0-0.77-0.322-1.381-0.966-1.833
			c-0.644-0.452-1.736-0.833-3.276-1.144c-3.525-0.696-5.902-1.344-7.131-1.944s-2.166-1.377-2.81-2.333s-0.966-2.129-0.966-3.521
			c0-2.295,0.885-4.084,2.655-5.365c1.77-1.281,4.276-1.921,7.52-1.921c2.858,0,5.157,0.555,6.898,1.666
			c1.74,1.111,2.825,2.718,3.254,4.821l-5.532,0.578c-0.178-0.978-0.615-1.707-1.311-2.188c-0.696-0.481-1.799-0.722-3.31-0.722
			c-1.481,0-2.592,0.188-3.332,0.566c-0.741,0.377-1.111,1.011-1.111,1.899c0,0.696,0.285,1.248,0.855,1.655
			c0.57,0.408,1.529,0.744,2.876,1.011c1.881,0.385,3.551,0.781,5.01,1.188c1.458,0.408,2.628,0.893,3.51,1.455
			c0.881,0.563,1.584,1.285,2.11,2.166C321.423,82.383,321.687,83.512,321.687,84.889z"/>
		<path d="M333.208,67.873v13.484c0,4.221,1.422,6.332,4.266,6.332c1.51,0,2.729-0.648,3.654-1.944s1.388-2.958,1.388-4.987V67.873
			h6.243v18.661c0,2.044,0.059,3.836,0.178,5.376h-5.954c-0.178-2.133-0.267-3.725-0.267-4.776h-0.111
			c-0.83,1.822-1.885,3.147-3.166,3.977c-1.281,0.829-2.803,1.244-4.565,1.244c-2.548,0-4.502-0.781-5.865-2.344
			c-1.363-1.562-2.044-3.854-2.044-6.875V67.873H333.208z"/>
		<path d="M371.276,91.909V78.425c0-4.221-1.43-6.331-4.288-6.331c-1.511,0-2.729,0.648-3.654,1.943
			c-0.926,1.296-1.389,2.958-1.389,4.987v12.885h-6.242v-18.66c0-1.288-0.019-2.343-0.056-3.166
			c-0.037-0.822-0.078-1.559-0.122-2.21h5.954c0.044,0.282,0.104,1.033,0.178,2.255c0.074,1.222,0.111,2.062,0.111,2.521h0.089
			c0.844-1.836,1.903-3.169,3.177-3.999c1.273-0.83,2.792-1.244,4.554-1.244c2.547,0,4.502,0.785,5.865,2.354
			c1.362,1.57,2.043,3.866,2.043,6.887v15.262H371.276z"/>
		<path d="M390.239,92.309c-1.836,0-3.251-0.5-4.243-1.5c-0.993-1-1.489-2.514-1.489-4.543V72.094h-3.043v-4.221h3.354l1.955-5.643
			h3.91v5.643h4.554v4.221h-4.554v12.484c0,1.17,0.222,2.033,0.667,2.588c0.444,0.555,1.133,0.833,2.066,0.833
			c0.489,0,1.185-0.104,2.088-0.311v3.865C393.963,92.057,392.208,92.309,390.239,92.309z"/>
		<path d="M409.668,92.354c-3.612,0-6.391-1.07-8.33-3.21c-1.94-2.14-2.911-5.261-2.911-9.364c0-3.969,0.984-7.021,2.954-9.152
			c1.972-2.133,4.763-3.199,8.375-3.199c3.451,0,6.089,1.144,7.91,3.433c1.82,2.288,2.732,5.639,2.732,10.052v0.178h-15.418
			c0,2.34,0.434,4.106,1.299,5.298c0.867,1.192,2.1,1.789,3.699,1.789c2.207,0,3.6-0.956,4.176-2.866l5.889,0.511
			C418.34,90.176,414.881,92.354,409.668,92.354z M409.668,71.36c-1.467,0-2.596,0.511-3.389,1.533
			c-0.791,1.022-1.211,2.452-1.254,4.288h9.33c-0.119-1.94-0.586-3.395-1.4-4.365C412.142,71.846,411.045,71.36,409.668,71.36z"/>
		<path d="M425.721,91.909V73.515c0-1.318-0.018-2.417-0.055-3.299c-0.037-0.881-0.078-1.662-0.123-2.344h5.953
			c0.045,0.267,0.104,1.078,0.178,2.433s0.111,2.255,0.111,2.699h0.09c0.607-1.688,1.146-2.877,1.621-3.565
			c0.475-0.689,1.037-1.2,1.688-1.533c0.652-0.333,1.467-0.5,2.443-0.5c0.801,0,1.445,0.111,1.934,0.333v5.221
			c-1.008-0.222-1.896-0.333-2.666-0.333c-1.555,0-2.766,0.63-3.633,1.889c-0.865,1.259-1.299,3.125-1.299,5.598V91.91
			L425.721,91.909L425.721,91.909z"/>
		<path d="M464.278,84.889c0,2.325-0.951,4.151-2.854,5.476c-1.902,1.326-4.535,1.988-7.896,1.988c-3.305,0-5.832-0.522-7.586-1.566
			c-1.756-1.044-2.922-2.669-3.5-4.876l5.486-0.822c0.312,1.141,0.85,1.947,1.611,2.421c0.762,0.474,2.092,0.711,3.986,0.711
			c1.748,0,3.021-0.222,3.82-0.667c0.801-0.445,1.199-1.14,1.199-2.088c0-0.77-0.322-1.381-0.965-1.833
			c-0.645-0.452-1.738-0.833-3.277-1.144c-3.523-0.696-5.9-1.344-7.131-1.944c-1.229-0.6-2.166-1.377-2.811-2.333
			s-0.967-2.129-0.967-3.521c0-2.295,0.885-4.084,2.654-5.365c1.77-1.281,4.275-1.921,7.521-1.921c2.855,0,5.156,0.555,6.896,1.666
			c1.74,1.111,2.824,2.718,3.254,4.821l-5.531,0.578c-0.178-0.978-0.613-1.707-1.311-2.188c-0.697-0.481-1.801-0.722-3.311-0.722
			c-1.48,0-2.592,0.188-3.332,0.566c-0.74,0.377-1.111,1.011-1.111,1.899c0,0.696,0.285,1.248,0.855,1.655
			c0.568,0.408,1.529,0.744,2.877,1.011c1.881,0.385,3.551,0.781,5.01,1.188c1.459,0.408,2.629,0.893,3.51,1.455
			c0.881,0.563,1.584,1.285,2.111,2.166C464.016,82.383,464.278,83.512,464.278,84.889z"/>
		<path d="M476.065,92.309c-1.836,0-3.25-0.5-4.242-1.5s-1.488-2.514-1.488-4.543V72.094h-3.043v-4.221h3.354l1.953-5.643h3.91
			v5.643h4.555v4.221h-4.555v12.484c0,1.17,0.225,2.033,0.668,2.588s1.133,0.833,2.064,0.833c0.49,0,1.186-0.104,2.088-0.311v3.865
			C479.79,92.057,478.036,92.309,476.065,92.309z"/>
		<path d="M491.542,67.873v13.484c0,4.221,1.422,6.332,4.266,6.332c1.512,0,2.729-0.648,3.654-1.944
			c0.924-1.296,1.389-2.958,1.389-4.987V67.873h6.242v18.661c0,2.044,0.059,3.836,0.178,5.376h-5.953
			c-0.18-2.133-0.268-3.725-0.268-4.776h-0.109c-0.83,1.822-1.887,3.147-3.166,3.977c-1.281,0.83-2.805,1.244-4.566,1.244
			c-2.547,0-4.502-0.781-5.863-2.344c-1.363-1.562-2.045-3.854-2.045-6.875V67.873H491.542z M489.098,65.273v-4.865h4.754v4.865
			H489.098z M498.739,65.273v-4.865h4.82v4.865H498.739z"/>
		<path d="M520.19,92.309c-1.836,0-3.252-0.5-4.244-1.5s-1.488-2.514-1.488-4.543V72.094h-3.043v-4.221h3.355l1.953-5.643h3.91
			v5.643h4.555v4.221h-4.555v12.484c0,1.17,0.223,2.033,0.666,2.588c0.445,0.555,1.133,0.833,2.066,0.833
			c0.488,0,1.184-0.104,2.088-0.311v3.865C523.915,92.057,522.159,92.309,520.19,92.309z"/>
	</g>
	<g>
		<path d="M528.889,91.909v-4.421l11.309-15.106h-10.398v-4.51h17.283v4.465l-11.24,15.017h12.33v4.554L528.889,91.909
			L528.889,91.909z"/>
		<path d="M558.969,67.873v13.484c0,4.221,1.422,6.332,4.268,6.332c1.51,0,2.729-0.648,3.652-1.944
			c0.926-1.296,1.391-2.958,1.391-4.987V67.873h6.24v18.661c0,2.044,0.061,3.836,0.18,5.376h-5.955
			c-0.178-2.133-0.268-3.725-0.268-4.776h-0.109c-0.83,1.822-1.885,3.147-3.166,3.977c-1.281,0.83-2.803,1.244-4.564,1.244
			c-2.547,0-4.502-0.781-5.865-2.344c-1.361-1.562-2.043-3.854-2.043-6.875V67.873H558.969z"/>
	</g>
	<g>
		<path d="M596.856,91.909V78.425c0-4.221-1.43-6.331-4.287-6.331c-1.512,0-2.73,0.648-3.654,1.943
			c-0.926,1.296-1.389,2.958-1.389,4.987v12.885h-6.242v-18.66c0-1.288-0.02-2.343-0.057-3.166c-0.037-0.822-0.078-1.559-0.121-2.21
			h5.951c0.045,0.282,0.105,1.033,0.18,2.255c0.072,1.222,0.109,2.062,0.109,2.521h0.09c0.846-1.836,1.902-3.169,3.178-3.999
			c1.273-0.83,2.791-1.244,4.553-1.244c2.549,0,4.502,0.785,5.865,2.354c1.361,1.57,2.045,3.866,2.045,6.887v15.262H596.856z"/>
		<path d="M619.821,101.55c-2.934,0-5.291-0.559-7.076-1.677s-2.885-2.714-3.299-4.787l6.242-0.733
			c0.223,0.962,0.699,1.718,1.434,2.266c0.734,0.548,1.689,0.822,2.877,0.822c1.732,0,2.998-0.533,3.799-1.6
			c0.799-1.067,1.199-2.651,1.199-4.754V89.82l0.045-2.377h-0.045c-1.377,2.947-3.955,4.421-7.73,4.421
			c-2.799,0-4.969-1.051-6.51-3.154s-2.311-5.11-2.311-9.02c0-3.924,0.793-6.953,2.377-9.086c1.584-2.132,3.889-3.199,6.908-3.199
			c3.496,0,5.918,1.444,7.266,4.332h0.111c0-0.519,0.033-1.222,0.1-2.11c0.066-0.889,0.137-1.474,0.211-1.755h5.908
			c-0.088,1.6-0.133,3.451-0.133,5.554v17.75c0,3.421-0.971,6.005-2.91,7.753C626.344,100.676,623.522,101.55,619.821,101.55z
			 M625.042,79.558c0-2.473-0.441-4.402-1.322-5.787s-2.137-2.077-3.766-2.077c-3.332,0-4.998,2.666-4.998,7.997
			c0,5.228,1.65,7.842,4.953,7.842c1.658,0,2.93-0.692,3.811-2.077C624.6,84.071,625.042,82.105,625.042,79.558z"/>
	</g>
	<g>
		<path d="M61.86,714.938v5.819h8.73v1.755h-8.73v6.344h-2.122v-15.65h11.118v1.732H61.86z"/>
		<path d="M83.919,722.834c0,2.104-0.463,3.67-1.389,4.698c-0.926,1.03-2.27,1.544-4.032,1.544c-1.755,0-3.081-0.534-3.977-1.604
			c-0.896-1.069-1.344-2.616-1.344-4.638c0-4.146,1.796-6.22,5.387-6.22c1.836,0,3.188,0.505,4.054,1.516
			C83.484,719.141,83.919,720.709,83.919,722.834z M81.819,722.834c0-1.658-0.246-2.863-0.738-3.615
			c-0.493-0.751-1.32-1.127-2.483-1.127c-1.17,0-2.016,0.383-2.538,1.149s-0.783,1.964-0.783,3.593c0,1.585,0.257,2.775,0.772,3.571
			c0.515,0.796,1.323,1.193,2.427,1.193c1.2,0,2.057-0.385,2.571-1.154C81.561,725.674,81.819,724.471,81.819,722.834z"/>
		<path d="M86.906,728.854v-9.219c0-0.845-0.022-1.776-0.066-2.8h1.888c0.059,1.363,0.089,2.182,0.089,2.455h0.044
			c0.318-1.029,0.685-1.732,1.1-2.11s1-0.565,1.755-0.565c0.267,0,0.537,0.037,0.811,0.11v1.832
			c-0.267-0.072-0.622-0.109-1.066-0.109c-0.83,0-1.462,0.355-1.899,1.07c-0.437,0.716-0.655,1.738-0.655,3.071v6.266
			L86.906,728.854L86.906,728.854z"/>
		<path d="M103.911,725.533c0,1.133-0.428,2.007-1.283,2.621s-2.053,0.922-3.593,0.922c-1.496,0-2.649-0.246-3.46-0.738
			c-0.811-0.492-1.338-1.261-1.583-2.305l1.766-0.345c0.17,0.645,0.522,1.115,1.055,1.417c0.533,0.3,1.273,0.448,2.221,0.448
			c1.015,0,1.757-0.154,2.227-0.466c0.47-0.312,0.706-0.778,0.706-1.4c0-0.474-0.163-0.857-0.489-1.153
			c-0.326-0.297-0.852-0.541-1.577-0.733l-1.433-0.378c-1.148-0.296-1.964-0.587-2.449-0.872s-0.865-0.631-1.139-1.038
			s-0.411-0.906-0.411-1.5c0-1.096,0.391-1.931,1.172-2.505c0.781-0.573,1.919-0.859,3.416-0.859c1.325,0,2.378,0.232,3.16,0.699
			c0.781,0.467,1.275,1.215,1.482,2.243l-1.799,0.224c-0.111-0.533-0.409-0.942-0.894-1.229c-0.485-0.286-1.135-0.428-1.949-0.428
			c-0.904,0-1.57,0.137-2,0.411c-0.43,0.272-0.644,0.688-0.644,1.244c0,0.34,0.089,0.622,0.267,0.844
			c0.178,0.222,0.44,0.411,0.789,0.565c0.348,0.155,1.081,0.37,2.199,0.646c1.059,0.267,1.822,0.513,2.288,0.738
			c0.466,0.227,0.835,0.476,1.105,0.75c0.271,0.272,0.479,0.591,0.628,0.948C103.837,724.665,103.911,725.074,103.911,725.533z"/>
		<path d="M108.243,722.79c0,1.6,0.251,2.784,0.755,3.554c0.503,0.771,1.262,1.155,2.277,1.155c0.711,0,1.305-0.192,1.783-0.577
			s0.772-0.978,0.883-1.777l2.022,0.135c-0.156,1.153-0.648,2.077-1.478,2.766s-1.881,1.032-3.154,1.032
			c-1.681,0-2.964-0.531-3.849-1.594c-0.885-1.063-1.327-2.611-1.327-4.648c0-2.021,0.444-3.563,1.333-4.626
			c0.889-1.062,2.162-1.594,3.821-1.594c1.229,0,2.25,0.317,3.06,0.955c0.811,0.637,1.32,1.515,1.527,2.633l-2.055,0.155
			c-0.104-0.667-0.367-1.196-0.789-1.589c-0.422-0.393-1.022-0.589-1.8-0.589c-1.059,0-1.825,0.353-2.299,1.056
			C108.479,719.939,108.243,721.124,108.243,722.79z"/>
		<path d="M120.538,718.892c0.429-0.784,0.946-1.36,1.549-1.728s1.368-0.55,2.294-0.55c1.303,0,2.264,0.323,2.882,0.972
			c0.618,0.648,0.927,1.734,0.927,3.26v8.01h-2.01v-7.62c0-0.845-0.078-1.473-0.233-1.883c-0.155-0.41-0.411-0.713-0.766-0.904
			c-0.355-0.193-0.848-0.289-1.478-0.289c-0.94,0-1.694,0.326-2.26,0.978c-0.566,0.652-0.85,1.529-0.85,2.632v7.087h-2v-16.482h2
			v4.287c0,0.452-0.013,0.919-0.039,1.398c-0.026,0.481-0.042,0.761-0.05,0.834L120.538,718.892L120.538,718.892z"/>
		<path d="M133.611,716.836v7.62c0,0.792,0.078,1.407,0.233,1.844c0.155,0.438,0.403,0.752,0.744,0.944
			c0.34,0.191,0.84,0.288,1.5,0.288c0.962,0,1.722-0.329,2.277-0.988c0.555-0.659,0.833-1.573,0.833-2.743v-6.965h2v9.453
			c0,1.398,0.021,2.255,0.066,2.564h-1.888c-0.007-0.036-0.015-0.137-0.022-0.3c-0.008-0.163-0.017-0.35-0.028-0.561
			c-0.011-0.212-0.024-0.609-0.039-1.194h-0.033c-0.459,0.829-0.991,1.416-1.594,1.762c-0.604,0.344-1.354,0.516-2.25,0.516
			c-1.318,0-2.283-0.327-2.894-0.982c-0.611-0.654-0.917-1.737-0.917-3.249v-8.009H133.611L133.611,716.836z"/>
		<path d="M152.393,728.854v-7.619c0-0.792-0.078-1.406-0.233-1.845c-0.155-0.437-0.403-0.751-0.744-0.942
			c-0.34-0.193-0.84-0.289-1.5-0.289c-0.962,0-1.722,0.329-2.277,0.988c-0.555,0.658-0.833,1.573-0.833,2.743v6.964h-2v-9.451
			c0-1.399-0.022-2.256-0.066-2.566h1.888c0.007,0.037,0.015,0.138,0.022,0.3c0.007,0.163,0.017,0.352,0.028,0.562
			c0.011,0.211,0.024,0.608,0.039,1.193h0.033c0.459-0.83,0.99-1.417,1.594-1.761c0.604-0.345,1.354-0.517,2.25-0.517
			c1.318,0,2.283,0.327,2.894,0.981c0.611,0.656,0.916,1.738,0.916,3.249v8.009H152.393L152.393,728.854z"/>
		<path d="M162.423,733.575c-1.311,0-2.355-0.258-3.132-0.772c-0.777-0.514-1.277-1.245-1.5-2.192l2.01-0.289
			c0.133,0.556,0.428,0.982,0.883,1.283c0.455,0.3,1.053,0.449,1.794,0.449c1.992,0,2.988-1.167,2.988-3.499v-1.933h-0.022
			c-0.377,0.771-0.896,1.35-1.555,1.738c-0.659,0.389-1.429,0.583-2.311,0.583c-1.474,0-2.557-0.488-3.249-1.467
			c-0.692-0.978-1.039-2.515-1.039-4.609c0-2.125,0.372-3.692,1.117-4.703c0.744-1.012,1.875-1.517,3.393-1.517
			c0.852,0,1.59,0.193,2.216,0.583c0.626,0.389,1.109,0.941,1.45,1.66h0.022c0-0.223,0.015-0.606,0.044-1.154
			c0.03-0.548,0.06-0.85,0.089-0.9h1.899c-0.044,0.4-0.066,1.229-0.066,2.488v9.186
			C167.455,731.887,165.777,733.575,162.423,733.575z M165.466,722.846c0-0.978-0.133-1.819-0.4-2.526s-0.643-1.248-1.127-1.622
			c-0.485-0.373-1.035-0.562-1.649-0.562c-1.022,0-1.766,0.37-2.232,1.11c-0.467,0.741-0.7,1.939-0.7,3.6
			c0,1.645,0.219,2.825,0.656,3.543c0.437,0.72,1.185,1.077,2.244,1.077c0.629,0,1.188-0.185,1.677-0.555
			c0.489-0.371,0.866-0.902,1.133-1.595C165.335,724.623,165.466,723.801,165.466,722.846z"/>
		<path d="M179.994,725.533c0,1.133-0.428,2.007-1.283,2.621s-2.053,0.922-3.593,0.922c-1.496,0-2.649-0.246-3.46-0.738
			c-0.811-0.492-1.338-1.261-1.583-2.305l1.766-0.345c0.17,0.645,0.522,1.115,1.055,1.417c0.533,0.3,1.273,0.448,2.221,0.448
			c1.015,0,1.757-0.154,2.227-0.466c0.47-0.312,0.706-0.778,0.706-1.4c0-0.474-0.163-0.857-0.489-1.153
			c-0.326-0.297-0.852-0.541-1.577-0.733l-1.433-0.378c-1.148-0.296-1.964-0.587-2.449-0.872s-0.865-0.631-1.139-1.038
			s-0.411-0.906-0.411-1.5c0-1.096,0.391-1.931,1.172-2.505c0.781-0.573,1.919-0.859,3.416-0.859c1.325,0,2.378,0.232,3.16,0.699
			c0.781,0.467,1.275,1.215,1.482,2.243l-1.799,0.224c-0.111-0.533-0.409-0.942-0.894-1.229c-0.485-0.286-1.135-0.428-1.949-0.428
			c-0.904,0-1.57,0.137-2,0.411c-0.43,0.272-0.644,0.688-0.644,1.244c0,0.34,0.089,0.622,0.267,0.844
			c0.178,0.222,0.44,0.411,0.789,0.565c0.348,0.155,1.081,0.37,2.199,0.646c1.059,0.267,1.822,0.513,2.288,0.738
			c0.466,0.227,0.835,0.476,1.105,0.75c0.271,0.272,0.479,0.591,0.628,0.948C179.92,724.665,179.994,725.074,179.994,725.533z"/>
		<path d="M184.759,716.836v7.62c0,0.792,0.078,1.407,0.233,1.844c0.155,0.438,0.403,0.752,0.744,0.944
			c0.34,0.191,0.84,0.288,1.5,0.288c0.962,0,1.722-0.329,2.277-0.988c0.555-0.659,0.833-1.573,0.833-2.743v-6.965h2v9.453
			c0,1.398,0.022,2.255,0.066,2.564h-1.888c-0.007-0.036-0.015-0.137-0.022-0.3c-0.008-0.163-0.017-0.35-0.028-0.561
			c-0.011-0.212-0.024-0.609-0.039-1.194h-0.033c-0.459,0.829-0.991,1.416-1.594,1.762c-0.604,0.344-1.354,0.516-2.25,0.516
			c-1.318,0-2.283-0.327-2.894-0.982c-0.611-0.654-0.917-1.737-0.917-3.249v-8.009H184.759L184.759,716.836z"/>
		<path d="M203.541,728.854v-7.619c0-0.792-0.078-1.406-0.233-1.845c-0.155-0.437-0.403-0.751-0.744-0.942
			c-0.34-0.193-0.84-0.289-1.5-0.289c-0.962,0-1.722,0.329-2.277,0.988c-0.555,0.658-0.833,1.573-0.833,2.743v6.964h-2v-9.451
			c0-1.399-0.022-2.256-0.066-2.566h1.888c0.007,0.037,0.015,0.138,0.022,0.3c0.007,0.163,0.017,0.352,0.028,0.562
			c0.011,0.211,0.024,0.608,0.039,1.193h0.033c0.459-0.83,0.99-1.417,1.594-1.761c0.604-0.345,1.354-0.517,2.25-0.517
			c1.318,0,2.283,0.327,2.894,0.981c0.611,0.656,0.916,1.738,0.916,3.249v8.009H203.541L203.541,728.854z"/>
		<path d="M213.637,728.766c-0.659,0.179-1.333,0.268-2.021,0.268c-1.599,0-2.399-0.907-2.399-2.723v-8.02h-1.389v-1.455h1.466
			l0.589-2.688h1.333v2.688h2.222v1.455h-2.222v7.587c0,0.577,0.095,0.982,0.283,1.216c0.189,0.233,0.517,0.352,0.983,0.352
			c0.267,0,0.651-0.053,1.155-0.156V728.766z"/>
		<path d="M217.324,723.268c0,1.377,0.285,2.439,0.855,3.188c0.57,0.749,1.403,1.122,2.499,1.122c0.867,0,1.562-0.174,2.083-0.522
			c0.522-0.348,0.875-0.788,1.061-1.32l1.755,0.5c-0.718,1.896-2.351,2.843-4.898,2.843c-1.777,0-3.13-0.529-4.06-1.588
			c-0.93-1.06-1.394-2.633-1.394-4.721c0-1.984,0.465-3.507,1.394-4.565c0.929-1.06,2.256-1.588,3.982-1.588
			c3.532,0,5.298,2.129,5.298,6.387v0.268h-8.575V723.268z M223.833,721.734c-0.111-1.267-0.433-2.189-0.966-2.771
			c-0.533-0.581-1.3-0.871-2.299-0.871c-0.97,0-1.738,0.323-2.305,0.973c-0.566,0.646-0.872,1.537-0.917,2.671L223.833,721.734
			L223.833,721.734z"/>
		<path d="M228.942,728.854v-9.219c0-0.845-0.022-1.776-0.066-2.8h1.888c0.059,1.363,0.089,2.182,0.089,2.455h0.044
			c0.318-1.029,0.685-1.732,1.1-2.11s1-0.565,1.755-0.565c0.267,0,0.537,0.037,0.811,0.11v1.832
			c-0.267-0.072-0.622-0.109-1.066-0.109c-0.83,0-1.462,0.355-1.899,1.07c-0.437,0.716-0.655,1.738-0.655,3.071v6.266
			L228.942,728.854L228.942,728.854z"/>
		<path d="M245.948,725.533c0,1.133-0.428,2.007-1.283,2.621s-2.053,0.922-3.593,0.922c-1.496,0-2.649-0.246-3.46-0.738
			s-1.338-1.261-1.583-2.305l1.766-0.345c0.17,0.645,0.522,1.115,1.055,1.417c0.533,0.3,1.273,0.448,2.221,0.448
			c1.015,0,1.757-0.154,2.227-0.466c0.47-0.312,0.706-0.778,0.706-1.4c0-0.474-0.163-0.857-0.489-1.153
			c-0.326-0.297-0.852-0.541-1.577-0.733l-1.433-0.378c-1.148-0.296-1.964-0.587-2.449-0.872c-0.485-0.285-0.865-0.631-1.139-1.038
			s-0.411-0.906-0.411-1.5c0-1.096,0.391-1.931,1.172-2.505c0.781-0.573,1.919-0.859,3.416-0.859c1.325,0,2.378,0.232,3.16,0.699
			c0.781,0.467,1.275,1.215,1.482,2.243l-1.799,0.224c-0.111-0.533-0.409-0.942-0.894-1.229s-1.135-0.428-1.949-0.428
			c-0.904,0-1.57,0.137-2,0.411c-0.43,0.272-0.644,0.688-0.644,1.244c0,0.34,0.089,0.622,0.267,0.844
			c0.178,0.222,0.44,0.411,0.789,0.565c0.348,0.155,1.081,0.37,2.199,0.646c1.059,0.267,1.822,0.513,2.288,0.738
			c0.466,0.227,0.835,0.476,1.105,0.75c0.271,0.272,0.479,0.591,0.628,0.948C245.874,724.665,245.948,725.074,245.948,725.533z"/>
		<path d="M253.377,728.766c-0.659,0.179-1.333,0.268-2.021,0.268c-1.599,0-2.399-0.907-2.399-2.723v-8.02h-1.389v-1.455h1.466
			l0.589-2.688h1.333v2.688h2.222v1.455h-2.222v7.587c0,0.577,0.095,0.982,0.283,1.216s0.517,0.352,0.983,0.352
			c0.267,0,0.651-0.053,1.155-0.156V728.766z"/>
		<path d="M257.554,716.836v7.62c0,0.792,0.078,1.407,0.233,1.844c0.156,0.438,0.403,0.752,0.744,0.944
			c0.341,0.191,0.84,0.288,1.5,0.288c0.962,0,1.722-0.329,2.277-0.988c0.555-0.659,0.833-1.573,0.833-2.743v-6.965h1.999v9.453
			c0,1.398,0.022,2.255,0.067,2.564h-1.888c-0.008-0.036-0.015-0.137-0.022-0.3s-0.017-0.35-0.028-0.561
			c-0.011-0.212-0.024-0.609-0.039-1.194h-0.034c-0.459,0.829-0.99,1.416-1.594,1.762c-0.604,0.344-1.354,0.516-2.249,0.516
			c-1.318,0-2.283-0.327-2.894-0.982c-0.611-0.654-0.917-1.737-0.917-3.249v-8.009H257.554L257.554,716.836z M257.132,715.314
			v-2.045h1.833v2.045H257.132z M261.508,715.314v-2.045h1.811v2.045H261.508z"/>
	</g>
	<g>
		<path d="M273.213,728.766c-0.659,0.179-1.333,0.268-2.021,0.268c-1.599,0-2.399-0.907-2.399-2.723v-8.02h-1.389v-1.455h1.466
			l0.589-2.688h1.333v2.688h2.222v1.455h-2.222v7.587c0,0.577,0.095,0.982,0.283,1.216c0.189,0.233,0.517,0.352,0.983,0.352
			c0.267,0,0.651-0.053,1.155-0.156V728.766z"/>
		<path d="M275.189,728.854v-1.521l6.72-8.953h-6.342v-1.544h8.708v1.522l-6.731,8.951h6.964v1.544H275.189z"/>
	</g>
	<g>
		<path d="M289.141,716.836v7.62c0,0.792,0.078,1.407,0.233,1.844c0.155,0.438,0.403,0.752,0.744,0.944
			c0.34,0.191,0.84,0.288,1.5,0.288c0.962,0,1.722-0.329,2.277-0.988s0.833-1.573,0.833-2.743v-6.965h2v9.453
			c0,1.398,0.022,2.255,0.066,2.564h-1.888c-0.007-0.036-0.015-0.137-0.022-0.3c-0.008-0.163-0.017-0.35-0.028-0.561
			c-0.011-0.212-0.024-0.609-0.039-1.194h-0.033c-0.459,0.829-0.991,1.416-1.594,1.762c-0.604,0.344-1.354,0.516-2.25,0.516
			c-1.318,0-2.283-0.327-2.894-0.982c-0.611-0.654-0.917-1.737-0.917-3.249v-8.009H289.141L289.141,716.836z"/>
		<path d="M307.946,728.854v-7.619c0-0.792-0.078-1.406-0.233-1.845c-0.155-0.437-0.403-0.751-0.744-0.942
			c-0.34-0.193-0.84-0.289-1.5-0.289c-0.962,0-1.722,0.329-2.277,0.988c-0.555,0.658-0.833,1.573-0.833,2.743v6.964h-2v-9.451
			c0-1.399-0.022-2.256-0.066-2.566h1.888c0.007,0.037,0.015,0.138,0.022,0.3c0.007,0.163,0.017,0.352,0.028,0.562
			s0.024,0.608,0.039,1.193h0.033c0.459-0.83,0.99-1.417,1.594-1.761c0.604-0.345,1.354-0.517,2.25-0.517
			c1.318,0,2.283,0.327,2.894,0.981c0.611,0.656,0.916,1.738,0.916,3.249v8.009H307.946L307.946,728.854z"/>
		<path d="M317.999,733.575c-1.311,0-2.355-0.258-3.132-0.772c-0.777-0.514-1.277-1.245-1.5-2.192l2.01-0.289
			c0.133,0.556,0.428,0.982,0.883,1.283c0.455,0.3,1.053,0.449,1.794,0.449c1.992,0,2.988-1.167,2.988-3.499v-1.933h-0.022
			c-0.377,0.771-0.896,1.35-1.555,1.738c-0.659,0.389-1.429,0.583-2.311,0.583c-1.474,0-2.557-0.488-3.249-1.467
			c-0.692-0.978-1.039-2.515-1.039-4.609c0-2.125,0.372-3.692,1.117-4.703c0.744-1.012,1.875-1.517,3.393-1.517
			c0.852,0,1.59,0.193,2.216,0.583c0.626,0.389,1.109,0.941,1.45,1.66h0.022c0-0.223,0.015-0.606,0.044-1.154
			c0.03-0.548,0.06-0.85,0.089-0.9h1.899c-0.044,0.4-0.066,1.229-0.066,2.488v9.186C323.03,731.887,321.353,733.575,317.999,733.575
			z M321.042,722.846c0-0.978-0.133-1.819-0.4-2.526s-0.643-1.248-1.127-1.622c-0.485-0.373-1.035-0.562-1.649-0.562
			c-1.022,0-1.766,0.37-2.232,1.11c-0.467,0.741-0.7,1.939-0.7,3.6c0,1.645,0.219,2.825,0.656,3.543
			c0.437,0.72,1.185,1.077,2.244,1.077c0.629,0,1.188-0.185,1.677-0.555c0.489-0.371,0.866-0.902,1.133-1.595
			C320.911,724.623,321.042,723.801,321.042,722.846z"/>
	</g>
	<g>
		<path d="M335.952,718.291v10.562h-2v-10.562h-1.688v-1.455h1.688v-1.354c0-1.097,0.241-1.886,0.722-2.366
			c0.481-0.481,1.218-0.723,2.21-0.723c0.555,0,1.025,0.044,1.411,0.134v1.521c-0.333-0.059-0.629-0.089-0.889-0.089
			c-0.511,0-0.881,0.13-1.111,0.39c-0.229,0.26-0.344,0.729-0.344,1.41v1.077h2.344v1.455H335.952z"/>
		<path d="M342.499,716.836v7.62c0,0.792,0.078,1.407,0.233,1.844c0.156,0.438,0.403,0.752,0.744,0.944
			c0.341,0.191,0.84,0.288,1.5,0.288c0.962,0,1.722-0.329,2.277-0.988c0.555-0.659,0.833-1.573,0.833-2.743v-6.965h1.999v9.453
			c0,1.398,0.022,2.255,0.067,2.564h-1.888c-0.008-0.036-0.015-0.137-0.022-0.3c-0.007-0.163-0.017-0.35-0.028-0.561
			c-0.011-0.212-0.024-0.609-0.039-1.194h-0.034c-0.459,0.829-0.99,1.416-1.594,1.762c-0.604,0.344-1.354,0.516-2.249,0.516
			c-1.318,0-2.283-0.327-2.894-0.982c-0.611-0.654-0.917-1.737-0.917-3.249v-8.009H342.499L342.499,716.836z M342.077,715.314
			v-2.045h1.833v2.045H342.077z M346.454,715.314v-2.045h1.811v2.045H346.454z"/>
	</g>
	<g>
		<path d="M353.582,728.854v-9.219c0-0.845-0.022-1.776-0.066-2.8h1.888c0.059,1.363,0.089,2.182,0.089,2.455h0.044
			c0.318-1.029,0.685-1.732,1.1-2.11c0.415-0.378,1-0.565,1.755-0.565c0.267,0,0.537,0.037,0.811,0.11v1.832
			c-0.267-0.072-0.622-0.109-1.066-0.109c-0.83,0-1.462,0.355-1.898,1.07c-0.438,0.716-0.655,1.738-0.655,3.071v6.266
			L353.582,728.854L353.582,728.854z"/>
	</g>
	<g>
		<path d="M368.769,728.854v-1.698h3.987v-12.041l-3.532,2.521v-1.888l3.699-2.544h1.844v13.951h3.81v1.698L368.769,728.854
			L368.769,728.854z"/>
		<path d="M390.171,714.826c-1.6,2.442-2.729,4.356-3.388,5.742c-0.659,1.385-1.153,2.751-1.483,4.099s-0.494,2.743-0.494,4.188
			h-2.088c0-2,0.424-4.104,1.272-6.314c0.848-2.211,2.264-4.756,4.249-7.637h-8.408v-1.699h10.341L390.171,714.826L390.171,714.826z
			"/>
	</g>
	<g>
		<path d="M407.448,728.854h-2.199l-6.385-15.649h2.233l4.33,11.019l0.935,2.767l0.933-2.767l4.311-11.019h2.232L407.448,728.854z"
			/>
		<path d="M425.131,722.834c0,2.104-0.463,3.67-1.389,4.698c-0.926,1.03-2.271,1.544-4.033,1.544c-1.754,0-3.08-0.534-3.977-1.604
			c-0.896-1.069-1.344-2.616-1.344-4.638c0-4.146,1.796-6.22,5.388-6.22c1.837,0,3.188,0.505,4.054,1.516
			C424.698,719.141,425.131,720.709,425.131,722.834z M423.032,722.834c0-1.658-0.246-2.863-0.738-3.615
			c-0.494-0.751-1.32-1.127-2.482-1.127c-1.171,0-2.018,0.383-2.538,1.149c-0.522,0.767-0.782,1.964-0.782,3.593
			c0,1.585,0.256,2.775,0.77,3.571c0.515,0.796,1.324,1.193,2.429,1.193c1.199,0,2.058-0.385,2.571-1.154
			C422.774,725.674,423.032,724.471,423.032,722.834z"/>
	</g>
	<g>
		<path d="M428.067,728.854v-9.219c0-0.845-0.023-1.776-0.066-2.8h1.887c0.061,1.363,0.09,2.182,0.09,2.455h0.045
			c0.318-1.029,0.686-1.732,1.1-2.11c0.416-0.378,1-0.565,1.756-0.565c0.268,0,0.537,0.037,0.811,0.11v1.832
			c-0.268-0.072-0.621-0.109-1.066-0.109c-0.828,0-1.461,0.355-1.898,1.07c-0.438,0.716-0.654,1.738-0.654,3.071v6.266
			L428.067,728.854L428.067,728.854z"/>
		<path d="M438.042,718.892c0.428-0.784,0.945-1.36,1.549-1.728s1.367-0.55,2.293-0.55c1.305,0,2.266,0.323,2.883,0.972
			c0.619,0.648,0.928,1.734,0.928,3.26v8.01h-2.01v-7.62c0-0.845-0.078-1.473-0.232-1.883c-0.156-0.41-0.412-0.713-0.768-0.904
			c-0.355-0.193-0.848-0.289-1.479-0.289c-0.939,0-1.693,0.326-2.26,0.978s-0.852,1.529-0.852,2.632v7.087h-1.998v-16.482h1.998
			v4.287c0,0.452-0.012,0.919-0.037,1.398c-0.025,0.481-0.043,0.761-0.051,0.834L438.042,718.892L438.042,718.892z"/>
	</g>
	<g>
		<path d="M452.159,729.076c-1.207,0-2.115-0.317-2.723-0.955c-0.607-0.637-0.91-1.511-0.91-2.621c0-1.244,0.408-2.199,1.227-2.865
			c0.818-0.667,2.139-1.021,3.961-1.065l2.699-0.045v-0.655c0-0.979-0.207-1.677-0.623-2.1c-0.414-0.423-1.066-0.634-1.955-0.634
			c-0.895,0-1.547,0.152-1.955,0.455c-0.406,0.305-0.65,0.789-0.73,1.455l-2.09-0.188c0.342-2.162,1.947-3.243,4.82-3.243
			c1.512,0,2.648,0.346,3.41,1.038c0.764,0.691,1.145,1.693,1.145,3.005v5.176c0,0.593,0.078,1.039,0.232,1.339
			c0.156,0.3,0.451,0.449,0.889,0.449c0.193,0,0.412-0.025,0.656-0.077v1.244c-0.504,0.118-1.02,0.178-1.545,0.178
			c-0.74,0-1.279-0.193-1.615-0.583c-0.338-0.389-0.527-0.998-0.572-1.827h-0.066c-0.51,0.918-1.105,1.567-1.781,1.949
			C453.952,728.886,453.127,729.076,452.159,729.076z M452.614,727.577c0.732,0,1.385-0.167,1.955-0.5
			c0.568-0.333,1.02-0.79,1.35-1.372c0.328-0.581,0.494-1.179,0.494-1.793v-0.989l-2.189,0.045
			c-0.939,0.016-1.652,0.111-2.137,0.289c-0.486,0.177-0.857,0.451-1.117,0.821s-0.389,0.854-0.389,1.455
			c0,0.651,0.176,1.154,0.527,1.511S451.961,727.577,452.614,727.577z"/>
		<path d="M472.612,722.79c0,4.19-1.475,6.286-4.42,6.286c-0.912,0-1.668-0.164-2.271-0.494c-0.604-0.329-1.094-0.86-1.473-1.594
			h-0.021c0,0.229-0.016,0.58-0.045,1.05c-0.029,0.471-0.051,0.742-0.066,0.815h-1.934c0.045-0.398,0.068-1.226,0.068-2.477V712.37
			h1.998v4.698c0,0.48-0.016,1.048-0.045,1.698h0.045c0.371-0.77,0.859-1.32,1.473-1.653c0.611-0.334,1.367-0.5,2.271-0.5
			c1.518,0,2.633,0.511,3.348,1.531C472.254,719.169,472.612,720.717,472.612,722.79z M470.512,722.856
			c0-1.682-0.221-2.885-0.666-3.61c-0.443-0.727-1.166-1.088-2.166-1.088c-1.125,0-1.945,0.385-2.461,1.155
			c-0.514,0.77-0.77,1.991-0.77,3.665c0,1.576,0.252,2.741,0.754,3.492c0.504,0.752,1.322,1.128,2.455,1.128
			c1.008,0,1.734-0.372,2.184-1.115C470.292,725.739,470.512,724.53,470.512,722.856z"/>
	</g>
	<g>
		<path d="M477.165,723.268c0,1.377,0.285,2.439,0.855,3.188c0.568,0.749,1.402,1.122,2.498,1.122c0.865,0,1.561-0.174,2.082-0.522
			c0.521-0.348,0.875-0.788,1.062-1.32l1.754,0.5c-0.717,1.896-2.35,2.843-4.896,2.843c-1.777,0-3.133-0.529-4.061-1.588
			c-0.93-1.06-1.395-2.633-1.395-4.721c0-1.984,0.465-3.507,1.395-4.565c0.928-1.06,2.256-1.588,3.982-1.588
			c3.529,0,5.297,2.129,5.297,6.387v0.268h-8.574V723.268z M483.672,721.734c-0.109-1.267-0.432-2.189-0.965-2.771
			c-0.533-0.581-1.301-0.871-2.301-0.871c-0.969,0-1.738,0.323-2.305,0.973c-0.566,0.646-0.871,1.537-0.916,2.671L483.672,721.734
			L483.672,721.734z"/>
		<path d="M496.254,728.854v-7.619c0-0.792-0.078-1.406-0.232-1.845c-0.156-0.437-0.404-0.751-0.744-0.942
			c-0.34-0.193-0.84-0.289-1.5-0.289c-0.963,0-1.723,0.329-2.277,0.988c-0.555,0.658-0.832,1.573-0.832,2.743v6.964h-2v-9.451
			c0-1.399-0.021-2.256-0.064-2.566h1.887c0.008,0.037,0.016,0.138,0.021,0.3c0.01,0.163,0.018,0.352,0.029,0.562
			c0.01,0.211,0.023,0.608,0.037,1.193h0.035c0.459-0.83,0.99-1.417,1.594-1.761c0.604-0.345,1.352-0.517,2.248-0.517
			c1.318,0,2.283,0.327,2.895,0.981c0.609,0.656,0.916,1.738,0.916,3.249v8.009H496.254L496.254,728.854z"/>
	</g>
	<path d="M351.443,418.045l29.189,150.168c-82.936,16.121-163.237-38.043-179.358-120.979s38.043-163.236,120.979-179.357
		c9.704-1.885,19.304-2.811,29.191-2.811L351.443,418.045L351.443,418.045z"/>
	<g>
		<g>
			<defs>
				<rect id="SVGID_3_" x="156.112" y="228.418" width="387.701" height="364"/>
			</defs>
			<clipPath id="SVGID_4_">
				<use xlink:href="#SVGID_3_"  overflow="visible"/>
			</clipPath>
			<path clip-path="url(#SVGID_4_)" fill="none" stroke="#1D1D1B" stroke-width="10" stroke-miterlimit="10" d="M351.443,418.045
				l29.189,150.168c-82.936,16.121-163.237-38.043-179.358-120.979s38.043-163.236,120.979-179.357
				c9.704-1.885,19.304-2.811,29.191-2.811L351.443,418.045L351.443,418.045z"/>
		</g>
		<g>
			<defs>
				<rect id="SVGID_5_" x="156.112" y="228.418" width="387.701" height="364"/>
			</defs>
			<clipPath id="SVGID_6_">
				<use xlink:href="#SVGID_5_"  overflow="visible"/>
			</clipPath>
			<path clip-path="url(#SVGID_6_)" fill="#FFFFFF" d="M377.263,425.53l102.362-113.686
				c62.785,56.534,67.855,153.262,11.322,216.049c-23.236,25.806-50.408,41.181-84.494,47.806L377.263,425.53L377.263,425.53z"/>
		</g>
		<g>
			<defs>
				<rect id="SVGID_7_" x="156.112" y="228.418" width="387.701" height="364"/>
			</defs>
			<clipPath id="SVGID_8_">
				<use xlink:href="#SVGID_7_"  overflow="visible"/>
			</clipPath>
			<path clip-path="url(#SVGID_8_)" fill="none" stroke="#1D1D1B" stroke-width="10" stroke-miterlimit="10" d="M377.263,425.53
				l102.362-113.686c62.785,56.534,67.855,153.262,11.322,216.049c-23.236,25.806-50.408,41.181-84.494,47.806L377.263,425.53
				L377.263,425.53z"/>
		</g>
	</g>
	<path fill="#FFFFFF" d="M374.371,395.059V242.08c39.709,0,72.854,12.724,102.364,39.293L374.371,395.059L374.371,395.059z"/>
	<g>
		<g>
			<defs>
				<rect id="SVGID_9_" x="156.112" y="228.418" width="387.701" height="364"/>
			</defs>
			<clipPath id="SVGID_10_">
				<use xlink:href="#SVGID_9_"  overflow="visible"/>
			</clipPath>
			<path clip-path="url(#SVGID_10_)" fill="none" stroke="#1D1D1B" stroke-width="10" stroke-miterlimit="10" d="M374.371,395.059
				V242.08c39.709,0,72.854,12.724,102.364,39.293L374.371,395.059L374.371,395.059z"/>
		</g>
	</g>
	<g>
		<path d="M450.575,191.011c-0.029-0.111-0.064-0.391-0.105-0.838c-0.041-0.448-0.061-0.82-0.061-1.117h-0.045
			c-0.674,1.452-1.955,2.177-3.844,2.177c-1.398,0-2.48-0.546-3.242-1.638c-0.764-1.092-1.146-2.62-1.146-4.582
			c0-1.992,0.402-3.53,1.205-4.615c0.805-1.084,1.943-1.627,3.416-1.627c0.854,0,1.588,0.178,2.205,0.533
			c0.619,0.355,1.094,0.885,1.428,1.588h0.021l-0.021-1.978v-4.387h3.121v13.862c0,0.741,0.029,1.615,0.088,2.622H450.575z
			 M450.43,184.935c0-1.296-0.217-2.294-0.648-2.994c-0.434-0.7-1.072-1.049-1.916-1.049c-0.838,0-1.459,0.338-1.865,1.016
			c-0.408,0.678-0.611,1.712-0.611,3.104c0,2.725,0.818,4.087,2.455,4.087c0.82,0,1.457-0.361,1.91-1.083
			C450.204,187.295,450.43,186.268,450.43,184.935z"/>
		<path d="M460.674,178.993v6.742c0,2.11,0.711,3.166,2.131,3.166c0.758,0,1.365-0.324,1.828-0.972
			c0.463-0.647,0.693-1.479,0.693-2.493v-6.442h3.121v9.33c0,1.022,0.031,1.918,0.09,2.688h-2.979
			c-0.088-1.066-0.133-1.862-0.133-2.388h-0.055c-0.416,0.911-0.943,1.574-1.584,1.988c-0.641,0.414-1.4,0.622-2.281,0.622
			c-1.273,0-2.252-0.391-2.934-1.172s-1.021-1.927-1.021-3.438v-7.631H460.674L460.674,178.993z"/>
		<path d="M472.672,191.011v-9.197c0-0.659-0.01-1.209-0.027-1.649c-0.02-0.441-0.039-0.832-0.062-1.172h2.979
			c0.021,0.133,0.053,0.539,0.09,1.216c0.035,0.677,0.055,1.127,0.055,1.349h0.045c0.303-0.844,0.574-1.438,0.811-1.783
			c0.236-0.344,0.52-0.6,0.846-0.766c0.324-0.167,0.73-0.25,1.221-0.25c0.4,0,0.723,0.056,0.967,0.167v2.61
			c-0.504-0.111-0.947-0.167-1.332-0.167c-0.777,0-1.383,0.315-1.816,0.944s-0.648,1.562-0.648,2.799v5.898L472.672,191.011
			L472.672,191.011z"/>
		<path d="M487.581,191.233c-1.822,0-3.23-0.542-4.221-1.627c-0.992-1.084-1.488-2.597-1.488-4.537c0-1.984,0.5-3.53,1.498-4.637
			c1-1.107,2.418-1.661,4.256-1.661c1.414,0,2.584,0.355,3.51,1.066c0.926,0.71,1.506,1.692,1.744,2.943l-3.145,0.155
			c-0.088-0.614-0.312-1.105-0.666-1.472c-0.355-0.367-0.859-0.55-1.512-0.55c-1.605,0-2.41,1.344-2.41,4.032
			c0,2.77,0.818,4.154,2.455,4.154c0.592,0,1.09-0.187,1.488-0.561s0.646-0.931,0.744-1.672l3.133,0.145
			c-0.111,0.822-0.406,1.555-0.885,2.199c-0.477,0.644-1.104,1.142-1.883,1.494C489.424,191.057,488.549,191.233,487.581,191.233z"
			/>
		<path d="M499.346,181.392c0.422-0.918,0.951-1.584,1.588-1.999c0.639-0.415,1.396-0.622,2.277-0.622
			c1.273,0,2.25,0.393,2.934,1.177c0.682,0.785,1.02,1.933,1.02,3.443v7.62h-3.109v-6.73c0-2.11-0.715-3.166-2.145-3.166
			c-0.754,0-1.363,0.324-1.826,0.972s-0.693,1.479-0.693,2.494v6.431h-3.121v-16.483h3.121v4.499c0,0.807-0.029,1.596-0.09,2.366
			L499.346,181.392L499.346,181.392z"/>
		<path d="M523.499,191.233c-1.807,0-3.195-0.535-4.166-1.605c-0.971-1.07-1.455-2.63-1.455-4.682c0-1.984,0.492-3.51,1.479-4.577
			c0.984-1.066,2.381-1.599,4.188-1.599c1.725,0,3.043,0.572,3.955,1.716c0.91,1.144,1.365,2.82,1.365,5.026v0.089h-7.709
			c0,1.17,0.217,2.053,0.65,2.649s1.049,0.894,1.85,0.894c1.104,0,1.799-0.478,2.088-1.433l2.943,0.255
			C527.834,190.145,526.104,191.233,523.499,191.233z M523.499,180.736c-0.734,0-1.299,0.255-1.693,0.767
			c-0.396,0.511-0.605,1.226-0.629,2.144h4.666c-0.061-0.97-0.293-1.697-0.699-2.183
			C524.735,180.979,524.188,180.736,523.499,180.736z"/>
		<path d="M532.274,176.827v-2.299h3.123v2.299H532.274z M532.274,191.011v-12.018h3.123v12.018H532.274z"/>
		<path d="M547.428,191.011v-6.742c0-2.11-0.715-3.166-2.145-3.166c-0.756,0-1.365,0.324-1.828,0.972
			c-0.463,0.648-0.693,1.479-0.693,2.494v6.442h-3.121v-9.33c0-0.645-0.01-1.172-0.027-1.583c-0.018-0.411-0.039-0.779-0.062-1.105
			h2.979c0.021,0.141,0.053,0.516,0.09,1.127c0.037,0.611,0.055,1.031,0.055,1.26h0.045c0.422-0.918,0.951-1.584,1.588-1.999
			c0.639-0.415,1.396-0.622,2.277-0.622c1.273,0,2.25,0.393,2.932,1.177c0.684,0.785,1.021,1.933,1.021,3.443v7.631L547.428,191.011
			L547.428,191.011z"/>
		<path d="M559.504,191.233c-1.807,0-3.195-0.535-4.166-1.605c-0.971-1.07-1.455-2.63-1.455-4.682c0-1.984,0.492-3.51,1.479-4.577
			c0.984-1.066,2.381-1.599,4.188-1.599c1.727,0,3.043,0.572,3.955,1.716c0.91,1.144,1.365,2.82,1.365,5.026v0.089h-7.709
			c0,1.17,0.217,2.053,0.65,2.649s1.049,0.894,1.85,0.894c1.104,0,1.799-0.478,2.088-1.433l2.943,0.255
			C563.84,190.145,562.11,191.233,559.504,191.233z M559.504,180.736c-0.732,0-1.299,0.255-1.693,0.767
			c-0.396,0.511-0.605,1.226-0.629,2.144h4.666c-0.061-0.97-0.293-1.697-0.699-2.183
			C560.741,180.979,560.192,180.736,559.504,180.736z"/>
	</g>
	<g>
		<path d="M575.879,191.011v-6.742c0-2.11-0.715-3.166-2.145-3.166c-0.754,0-1.363,0.324-1.826,0.972
			c-0.463,0.648-0.693,1.479-0.693,2.494v6.442h-3.123v-9.33c0-0.645-0.008-1.172-0.025-1.583c-0.02-0.411-0.039-0.779-0.062-1.105
			h2.979c0.02,0.141,0.051,0.516,0.088,1.127c0.037,0.611,0.057,1.031,0.057,1.26h0.043c0.422-0.918,0.951-1.584,1.59-1.999
			c0.637-0.415,1.396-0.622,2.275-0.622c1.273,0,2.252,0.393,2.934,1.177c0.682,0.785,1.021,1.933,1.021,3.443v7.631
			L575.879,191.011L575.879,191.011z"/>
	</g>
	<g>
		<path d="M449.864,219.964v-6.742c0-2.11-0.607-3.166-1.822-3.166c-0.629,0-1.141,0.322-1.537,0.966s-0.594,1.477-0.594,2.499
			v6.442h-3.123v-9.33c0-0.645-0.008-1.172-0.027-1.583c-0.018-0.411-0.039-0.779-0.061-1.105h2.977
			c0.021,0.141,0.053,0.516,0.09,1.127c0.037,0.611,0.057,1.031,0.057,1.26h0.043c0.385-0.918,0.865-1.584,1.438-1.999
			c0.574-0.415,1.262-0.622,2.062-0.622c1.836,0,2.949,0.874,3.342,2.621h0.068c0.406-0.933,0.895-1.603,1.465-2.01
			c0.57-0.407,1.297-0.611,2.178-0.611c1.17,0,2.062,0.398,2.678,1.194c0.613,0.796,0.922,1.938,0.922,3.427v7.631h-3.1v-6.742
			c0-2.11-0.607-3.166-1.822-3.166c-0.605,0-1.104,0.294-1.494,0.883c-0.389,0.589-0.602,1.401-0.639,2.438v6.587L449.864,219.964
			L449.864,219.964z"/>
		<path d="M466.815,220.186c-1.162,0-2.068-0.316-2.723-0.95c-0.65-0.633-0.977-1.523-0.977-2.671c0-1.244,0.406-2.192,1.217-2.843
			c0.811-0.652,1.986-0.985,3.525-1l2.588-0.044v-0.611c0-0.785-0.137-1.368-0.41-1.75c-0.273-0.381-0.723-0.572-1.344-0.572
			c-0.578,0-1.002,0.131-1.271,0.394c-0.271,0.263-0.438,0.698-0.506,1.305l-3.254-0.155c0.199-1.17,0.734-2.057,1.604-2.66
			s2.057-0.905,3.561-0.905c1.518,0,2.688,0.374,3.51,1.122c0.822,0.748,1.232,1.811,1.232,3.188v4.376
			c0,0.674,0.076,1.138,0.229,1.394c0.152,0.255,0.406,0.383,0.762,0.383c0.236,0,0.467-0.022,0.688-0.066v1.688
			c-0.186,0.044-0.352,0.085-0.5,0.122c-0.148,0.037-0.295,0.066-0.443,0.089c-0.148,0.022-0.307,0.041-0.473,0.055
			c-0.166,0.015-0.361,0.022-0.582,0.022c-0.785,0-1.365-0.192-1.74-0.578c-0.373-0.385-0.598-0.951-0.672-1.699h-0.064
			C469.897,219.397,468.579,220.186,466.815,220.186z M470.448,214.399l-1.602,0.022c-0.725,0.03-1.238,0.109-1.543,0.239
			c-0.305,0.13-0.535,0.328-0.693,0.594c-0.16,0.267-0.238,0.622-0.238,1.066c0,0.57,0.131,0.994,0.395,1.271
			c0.264,0.278,0.611,0.417,1.051,0.417c0.486,0,0.934-0.133,1.338-0.4c0.402-0.267,0.721-0.635,0.949-1.105
			c0.229-0.47,0.344-0.968,0.344-1.494V214.399L470.448,214.399z"/>
		<path d="M477.713,205.78v-2.299h3.121v2.299H477.713z M477.713,219.964v-12.018h3.121v12.018H477.713z"/>
		<path d="M492.844,219.964v-6.742c0-2.11-0.715-3.166-2.145-3.166c-0.754,0-1.363,0.324-1.826,0.972s-0.693,1.479-0.693,2.494
			v6.442h-3.123v-9.33c0-0.645-0.008-1.172-0.025-1.583c-0.02-0.411-0.039-0.779-0.062-1.105h2.979
			c0.02,0.141,0.051,0.516,0.088,1.127c0.037,0.611,0.057,1.031,0.057,1.26h0.043c0.422-0.918,0.951-1.584,1.59-1.999
			c0.637-0.415,1.396-0.622,2.275-0.622c1.273,0,2.252,0.393,2.934,1.177c0.682,0.785,1.021,1.933,1.021,3.443v7.631
			L492.844,219.964L492.844,219.964z"/>
	</g>
	<g>
		<path d="M499.299,219.964v-2.21l5.652-7.553h-5.197v-2.255h8.643v2.232l-5.621,7.509h6.164v2.277H499.299z"/>
		<path d="M517.067,220.186c-1.809,0-3.195-0.535-4.166-1.605c-0.971-1.07-1.455-2.63-1.455-4.682c0-1.984,0.492-3.51,1.479-4.577
			c0.984-1.066,2.379-1.599,4.188-1.599c1.725,0,3.043,0.572,3.955,1.716c0.908,1.144,1.365,2.82,1.365,5.026v0.089h-7.709
			c0,1.17,0.217,2.053,0.65,2.649c0.432,0.596,1.049,0.894,1.848,0.894c1.105,0,1.801-0.478,2.09-1.433l2.943,0.255
			C521.403,219.098,519.672,220.186,517.067,220.186z M517.067,209.689c-0.734,0-1.299,0.255-1.693,0.767
			c-0.396,0.511-0.605,1.226-0.629,2.144h4.666c-0.061-0.97-0.293-1.697-0.699-2.183
			C518.303,209.932,517.754,209.689,517.067,209.689z"/>
	</g>
	<g>
		<path d="M533.715,219.964c-0.029-0.111-0.064-0.391-0.104-0.838c-0.041-0.448-0.062-0.82-0.062-1.117h-0.045
			c-0.674,1.452-1.955,2.177-3.844,2.177c-1.398,0-2.48-0.546-3.242-1.638c-0.764-1.092-1.145-2.62-1.145-4.582
			c0-1.992,0.4-3.53,1.205-4.615c0.803-1.084,1.941-1.627,3.416-1.627c0.852,0,1.586,0.178,2.203,0.533
			c0.619,0.355,1.096,0.885,1.428,1.588h0.021l-0.021-1.978v-4.387h3.121v13.862c0,0.741,0.029,1.615,0.09,2.622H533.715z
			 M533.571,213.888c0-1.296-0.217-2.294-0.65-2.994c-0.432-0.7-1.07-1.049-1.916-1.049c-0.836,0-1.459,0.338-1.865,1.016
			c-0.406,0.678-0.609,1.712-0.609,3.104c0,2.725,0.816,4.087,2.455,4.087c0.82,0,1.457-0.361,1.908-1.083
			C533.344,216.249,533.571,215.221,533.571,213.888z"/>
		<path d="M540.399,215.421v-2.71h5.773v2.71H540.399z"/>
	</g>
	<g>
		<path d="M563.034,209.268c0,1.007-0.23,1.907-0.689,2.699s-1.115,1.405-1.971,1.838c-0.855,0.433-1.873,0.65-3.051,0.65h-3.887
			v5.509h-3.277v-15.65h7.031c1.873,0,3.314,0.432,4.326,1.294C562.528,206.47,563.034,207.69,563.034,209.268z M559.735,209.323
			c0-1.644-0.973-2.466-2.91-2.466h-3.389v5.076h3.477c0.904,0,1.6-0.224,2.088-0.672
			C559.489,210.813,559.735,210.167,559.735,209.323z"/>
		<path d="M569.063,220.186c-1.164,0-2.07-0.316-2.723-0.95c-0.65-0.633-0.979-1.523-0.979-2.671c0-1.244,0.406-2.192,1.217-2.843
			c0.811-0.652,1.986-0.985,3.527-1l2.588-0.044v-0.611c0-0.785-0.139-1.368-0.412-1.75c-0.273-0.381-0.723-0.572-1.344-0.572
			c-0.576,0-1,0.131-1.271,0.394c-0.27,0.263-0.438,0.698-0.506,1.305l-3.254-0.155c0.199-1.17,0.734-2.057,1.604-2.66
			c0.871-0.603,2.059-0.905,3.562-0.905c1.518,0,2.688,0.374,3.51,1.122c0.822,0.748,1.232,1.811,1.232,3.188v4.376
			c0,0.674,0.074,1.138,0.229,1.394c0.15,0.255,0.404,0.383,0.76,0.383c0.236,0,0.467-0.022,0.689-0.066v1.688
			c-0.188,0.044-0.354,0.085-0.5,0.122c-0.148,0.037-0.297,0.066-0.445,0.089c-0.146,0.022-0.305,0.041-0.471,0.055
			c-0.168,0.015-0.361,0.022-0.584,0.022c-0.785,0-1.365-0.192-1.738-0.578c-0.373-0.385-0.598-0.951-0.672-1.699h-0.066
			C572.143,219.397,570.825,220.186,569.063,220.186z M572.694,214.399l-1.6,0.022c-0.727,0.03-1.24,0.109-1.545,0.239
			c-0.303,0.13-0.533,0.328-0.691,0.594c-0.16,0.267-0.24,0.622-0.24,1.066c0,0.57,0.133,0.994,0.395,1.271
			c0.264,0.278,0.613,0.417,1.051,0.417c0.488,0,0.936-0.133,1.338-0.4s0.721-0.635,0.949-1.105c0.23-0.47,0.346-0.968,0.346-1.494
			v-0.61H572.694z"/>
	</g>
	<g>
		<path d="M580.178,219.964v-9.197c0-0.659-0.008-1.209-0.025-1.649c-0.02-0.441-0.039-0.832-0.062-1.172h2.979
			c0.02,0.133,0.051,0.539,0.088,1.216c0.037,0.677,0.057,1.127,0.057,1.349h0.043c0.305-0.844,0.574-1.438,0.812-1.783
			c0.236-0.344,0.518-0.6,0.844-0.766c0.326-0.167,0.732-0.25,1.223-0.25c0.398,0,0.723,0.056,0.965,0.167v2.61
			c-0.502-0.111-0.945-0.167-1.33-0.167c-0.779,0-1.385,0.315-1.816,0.944c-0.434,0.629-0.65,1.562-0.65,2.799v5.898
			L580.178,219.964L580.178,219.964z"/>
		<path d="M593.77,220.164c-0.918,0-1.625-0.25-2.121-0.75s-0.744-1.257-0.744-2.271v-7.086h-1.521v-2.11h1.678l0.979-2.821h1.955
			v2.821h2.275v2.11h-2.275v6.242c0,0.585,0.109,1.017,0.332,1.294c0.223,0.278,0.566,0.417,1.033,0.417
			c0.244,0,0.592-0.052,1.045-0.155v1.933C595.631,220.038,594.754,220.164,593.77,220.164z"/>
	</g>
	<g>
		<path d="M607.114,219.964v-6.742c0-2.11-0.715-3.166-2.145-3.166c-0.756,0-1.363,0.324-1.828,0.972
			c-0.463,0.648-0.691,1.479-0.691,2.494v6.442h-3.123v-9.33c0-0.645-0.008-1.172-0.027-1.583c-0.018-0.411-0.039-0.779-0.061-1.105
			h2.977c0.021,0.141,0.053,0.516,0.09,1.127c0.037,0.611,0.057,1.031,0.057,1.26h0.043c0.422-0.918,0.951-1.584,1.59-1.999
			c0.637-0.415,1.395-0.622,2.275-0.622c1.273,0,2.252,0.393,2.934,1.177c0.682,0.785,1.02,1.933,1.02,3.443v7.631L607.114,219.964
			L607.114,219.964z"/>
		<path d="M619.19,220.186c-1.809,0-3.195-0.535-4.166-1.605c-0.971-1.07-1.455-2.63-1.455-4.682c0-1.984,0.492-3.51,1.479-4.577
			c0.984-1.066,2.379-1.599,4.188-1.599c1.725,0,3.043,0.572,3.955,1.716c0.908,1.144,1.365,2.82,1.365,5.026v0.089h-7.709
			c0,1.17,0.217,2.053,0.65,2.649c0.432,0.596,1.049,0.894,1.848,0.894c1.105,0,1.801-0.478,2.09-1.433l2.943,0.255
			C623.526,219.098,621.795,220.186,619.19,220.186z M619.19,209.689c-0.734,0-1.299,0.255-1.693,0.767
			c-0.396,0.511-0.605,1.226-0.629,2.144h4.666c-0.061-0.97-0.293-1.697-0.699-2.183
			C620.426,209.932,619.877,209.689,619.19,209.689z"/>
	</g>
	<g>
		<path d="M627.975,219.964v-9.197c0-0.659-0.008-1.209-0.025-1.649c-0.02-0.441-0.039-0.832-0.062-1.172h2.979
			c0.02,0.133,0.051,0.539,0.088,1.216c0.037,0.677,0.057,1.127,0.057,1.349h0.043c0.305-0.844,0.574-1.438,0.812-1.783
			c0.236-0.344,0.518-0.6,0.844-0.766c0.326-0.167,0.732-0.25,1.223-0.25c0.398,0,0.723,0.056,0.967,0.167v2.61
			c-0.504-0.111-0.947-0.167-1.332-0.167c-0.779,0-1.385,0.315-1.816,0.944c-0.434,0.629-0.648,1.562-0.648,2.799v5.898
			L627.975,219.964L627.975,219.964z"/>
	</g>
	<g>
		<path d="M95.722,248.972v-15.65h12.307v2.533h-9.03v3.932h8.353v2.533h-8.353v4.121h9.486v2.533H95.722V248.972z"/>
	</g>
	<g>
		<path d="M111.914,248.972v-9.197c0-0.659-0.009-1.209-0.028-1.649c-0.019-0.441-0.039-0.832-0.061-1.172h2.977
			c0.022,0.133,0.052,0.539,0.089,1.216c0.037,0.677,0.056,1.127,0.056,1.349h0.044c0.304-0.844,0.574-1.438,0.811-1.783
			c0.237-0.344,0.518-0.6,0.844-0.766c0.326-0.167,0.733-0.25,1.222-0.25c0.4,0,0.722,0.056,0.966,0.167v2.61
			c-0.504-0.111-0.948-0.167-1.333-0.167c-0.777,0-1.383,0.315-1.816,0.944s-0.65,1.562-0.65,2.799v5.898L111.914,248.972
			L111.914,248.972z"/>
		<path d="M132.011,245.462c0,1.163-0.476,2.075-1.427,2.738s-2.268,0.994-3.949,0.994c-1.651,0-2.916-0.261-3.793-0.783
			s-1.461-1.334-1.75-2.438l2.744-0.411c0.155,0.57,0.424,0.974,0.805,1.211c0.381,0.237,1.046,0.355,1.994,0.355
			c0.874,0,1.511-0.111,1.911-0.333c0.4-0.222,0.6-0.57,0.6-1.044c0-0.385-0.161-0.69-0.483-0.917
			c-0.322-0.226-0.869-0.417-1.639-0.572c-1.762-0.348-2.951-0.672-3.565-0.972c-0.615-0.3-1.083-0.688-1.405-1.166
			c-0.322-0.478-0.483-1.064-0.483-1.761c0-1.147,0.442-2.042,1.327-2.682c0.885-0.64,2.138-0.961,3.76-0.961
			c1.429,0,2.579,0.278,3.449,0.833c0.87,0.555,1.412,1.359,1.627,2.41l-2.766,0.289c-0.089-0.489-0.307-0.854-0.655-1.094
			c-0.348-0.24-0.9-0.361-1.655-0.361c-0.741,0-1.296,0.094-1.667,0.283c-0.37,0.189-0.555,0.505-0.555,0.95
			c0,0.348,0.143,0.624,0.428,0.828c0.285,0.204,0.765,0.372,1.438,0.505c0.94,0.192,1.775,0.391,2.504,0.594
			s1.314,0.446,1.755,0.728c0.44,0.281,0.792,0.642,1.055,1.083C131.879,244.208,132.011,244.773,132.011,245.462z"/>
		<path d="M138.724,249.171c-0.918,0-1.625-0.25-2.122-0.75s-0.744-1.257-0.744-2.271v-7.086h-1.521v-2.11h1.677l0.977-2.821h1.955
			v2.821h2.277v2.11h-2.277v6.242c0,0.585,0.111,1.017,0.333,1.294c0.222,0.278,0.566,0.417,1.033,0.417
			c0.245,0,0.592-0.052,1.044-0.155v1.933C140.586,249.045,139.708,249.171,138.724,249.171z"/>
		<path d="M155.711,242.918c0,1.985-0.398,3.527-1.194,4.626c-0.796,1.1-1.935,1.649-3.416,1.649c-0.852,0-1.588-0.185-2.21-0.555
			c-0.622-0.371-1.1-0.903-1.433-1.6h-0.022c0,0.259-0.017,0.615-0.05,1.066c-0.033,0.452-0.068,0.74-0.104,0.866h-3.032
			c0.059-0.688,0.089-1.603,0.089-2.744v-13.74h3.121v4.599l-0.044,1.955h0.044c0.704-1.54,1.984-2.31,3.843-2.31
			c1.422,0,2.512,0.539,3.271,1.616C155.332,239.425,155.711,240.948,155.711,242.918z M152.457,242.918
			c0-1.362-0.2-2.373-0.6-3.032c-0.4-0.659-1.018-0.988-1.855-0.988c-0.844,0-1.486,0.354-1.927,1.061
			c-0.441,0.707-0.661,1.727-0.661,3.06c0,1.274,0.217,2.266,0.65,2.977c0.433,0.71,1.072,1.066,1.916,1.066
			C151.631,247.061,152.457,245.68,152.457,242.918z"/>
		<path d="M164.267,249.194c-1.807,0-3.195-0.535-4.165-1.605c-0.97-1.07-1.455-2.63-1.455-4.682c0-1.984,0.492-3.51,1.477-4.577
			c0.985-1.066,2.381-1.599,4.188-1.599c1.726,0,3.043,0.572,3.955,1.716c0.911,1.144,1.366,2.82,1.366,5.026v0.089h-7.709
			c0,1.17,0.217,2.053,0.65,2.649c0.433,0.596,1.05,0.894,1.85,0.894c1.103,0,1.799-0.478,2.088-1.433l2.944,0.255
			C168.603,248.105,166.874,249.194,164.267,249.194z M164.267,238.697c-0.733,0-1.298,0.255-1.694,0.767
			c-0.396,0.511-0.605,1.226-0.627,2.144h4.665c-0.059-0.97-0.292-1.697-0.7-2.183C165.504,238.94,164.956,238.697,164.267,238.697z
			"/>
		<path d="M173.113,248.972v-9.197c0-0.659-0.009-1.209-0.028-1.649c-0.019-0.441-0.039-0.832-0.061-1.172H176
			c0.022,0.133,0.052,0.539,0.089,1.216c0.037,0.677,0.056,1.127,0.056,1.349h0.044c0.304-0.844,0.574-1.438,0.811-1.783
			c0.237-0.344,0.518-0.6,0.844-0.766c0.326-0.167,0.733-0.25,1.222-0.25c0.4,0,0.722,0.056,0.966,0.167v2.61
			c-0.504-0.111-0.948-0.167-1.333-0.167c-0.777,0-1.383,0.315-1.816,0.944c-0.433,0.629-0.65,1.562-0.65,2.799v5.898
			L173.113,248.972L173.113,248.972z"/>
		<path d="M185.857,249.194c-1.163,0-2.07-0.316-2.721-0.95c-0.652-0.633-0.978-1.523-0.978-2.671c0-1.244,0.405-2.192,1.216-2.843
			c0.811-0.652,1.986-0.985,3.526-1l2.588-0.044v-0.611c0-0.785-0.137-1.368-0.411-1.75c-0.274-0.381-0.722-0.572-1.344-0.572
			c-0.578,0-1.001,0.131-1.271,0.394c-0.271,0.263-0.439,0.698-0.505,1.305l-3.254-0.155c0.2-1.17,0.734-2.057,1.605-2.66
			c0.87-0.604,2.057-0.905,3.56-0.905c1.518,0,2.688,0.374,3.51,1.122c0.822,0.748,1.233,1.811,1.233,3.188v4.376
			c0,0.674,0.076,1.138,0.228,1.394c0.152,0.255,0.405,0.383,0.761,0.383c0.237,0,0.467-0.022,0.689-0.066v1.688
			c-0.186,0.044-0.352,0.085-0.5,0.122s-0.296,0.066-0.444,0.089c-0.148,0.022-0.305,0.041-0.472,0.055
			c-0.167,0.015-0.361,0.022-0.583,0.022c-0.785,0-1.364-0.192-1.738-0.578c-0.374-0.385-0.598-0.951-0.672-1.699h-0.067
			C188.938,248.405,187.619,249.194,185.857,249.194z M189.489,243.407l-1.6,0.022c-0.726,0.03-1.24,0.109-1.544,0.239
			c-0.304,0.13-0.535,0.328-0.694,0.594c-0.159,0.266-0.239,0.622-0.239,1.066c0,0.57,0.131,0.994,0.395,1.271
			c0.263,0.278,0.612,0.417,1.049,0.417c0.489,0,0.935-0.133,1.338-0.4c0.404-0.267,0.72-0.635,0.95-1.105
			c0.23-0.47,0.345-0.968,0.345-1.494L189.489,243.407L189.489,243.407z"/>
		<path d="M199.923,249.171c-0.918,0-1.625-0.25-2.122-0.75c-0.497-0.5-0.744-1.257-0.744-2.271v-7.086h-1.521v-2.11h1.677
			l0.977-2.821h1.955v2.821h2.277v2.11h-2.277v6.242c0,0.585,0.111,1.017,0.333,1.294c0.222,0.278,0.566,0.417,1.033,0.417
			c0.245,0,0.592-0.052,1.044-0.155v1.933C201.785,249.045,200.908,249.171,199.923,249.171z"/>
		<path d="M208.479,236.954v6.742c0,2.11,0.711,3.166,2.133,3.166c0.755,0,1.364-0.324,1.827-0.972
			c0.462-0.647,0.694-1.479,0.694-2.493v-6.442h3.121v9.33c0,1.022,0.029,1.918,0.089,2.688h-2.977
			c-0.089-1.066-0.133-1.862-0.133-2.388h-0.055c-0.415,0.911-0.942,1.574-1.583,1.988c-0.641,0.414-1.401,0.622-2.283,0.622
			c-1.273,0-2.251-0.391-2.932-1.172c-0.682-0.781-1.022-1.927-1.022-3.438v-7.631H208.479L208.479,236.954z"/>
		<path d="M228.332,248.972v-6.742c0-2.11-0.714-3.166-2.144-3.166c-0.755,0-1.365,0.324-1.827,0.972
			c-0.463,0.648-0.694,1.479-0.694,2.494v6.442h-3.121v-9.33c0-0.645-0.009-1.172-0.028-1.583s-0.039-0.779-0.061-1.105h2.977
			c0.022,0.141,0.052,0.516,0.089,1.127s0.056,1.031,0.056,1.26h0.044c0.422-0.918,0.952-1.584,1.588-1.999
			c0.636-0.415,1.396-0.622,2.277-0.622c1.274,0,2.251,0.393,2.933,1.177c0.681,0.785,1.022,1.933,1.022,3.443v7.631
			L228.332,248.972L228.332,248.972z"/>
		<path d="M240.588,253.792c-1.466,0-2.646-0.28-3.538-0.839c-0.893-0.559-1.442-1.357-1.65-2.394l3.122-0.367
			c0.111,0.481,0.35,0.859,0.716,1.133c0.367,0.273,0.846,0.411,1.438,0.411c0.866,0,1.5-0.267,1.899-0.8
			c0.399-0.533,0.6-1.325,0.6-2.377v-0.633l0.022-1.188h-0.022c-0.688,1.474-1.977,2.21-3.865,2.21
			c-1.399,0-2.484-0.526-3.254-1.578c-0.771-1.051-1.155-2.555-1.155-4.509c0-1.962,0.396-3.477,1.188-4.543s1.944-1.6,3.454-1.6
			c1.748,0,2.958,0.722,3.632,2.166h0.056c0-0.259,0.017-0.611,0.05-1.055c0.033-0.444,0.068-0.737,0.105-0.877h2.955
			c-0.044,0.8-0.066,1.725-0.066,2.777v8.875c0,1.711-0.485,3.003-1.455,3.876C243.85,253.355,242.439,253.792,240.588,253.792z
			 M243.198,242.796c0-1.236-0.221-2.201-0.661-2.894c-0.44-0.693-1.068-1.039-1.883-1.039c-1.666,0-2.499,1.333-2.499,3.999
			c0,2.614,0.826,3.921,2.477,3.921c0.829,0,1.464-0.346,1.905-1.039C242.978,245.051,243.198,244.07,243.198,242.796z"/>
	</g>
	<g>
		<path d="M450.575,608.769c-0.029-0.11-0.064-0.391-0.105-0.839c-0.041-0.446-0.061-0.818-0.061-1.115h-0.045
			c-0.674,1.45-1.955,2.177-3.844,2.177c-1.398,0-2.48-0.546-3.242-1.639c-0.764-1.093-1.146-2.618-1.146-4.581
			c0-1.992,0.402-3.53,1.205-4.615c0.805-1.085,1.943-1.627,3.416-1.627c0.854,0,1.588,0.178,2.205,0.533
			c0.619,0.354,1.094,0.885,1.428,1.588h0.021l-0.021-1.978v-4.388h3.121v13.862c0,0.739,0.029,1.613,0.088,2.62L450.575,608.769
			L450.575,608.769z M450.43,602.692c0-1.295-0.217-2.293-0.648-2.993c-0.434-0.699-1.072-1.05-1.916-1.05
			c-0.838,0-1.459,0.339-1.865,1.017c-0.408,0.678-0.611,1.713-0.611,3.104c0,2.726,0.818,4.088,2.455,4.088
			c0.82,0,1.457-0.361,1.91-1.083C450.204,605.053,450.43,604.025,450.43,602.692z"/>
		<path d="M460.651,596.75v6.742c0,2.109,0.711,3.166,2.133,3.166c0.756,0,1.363-0.324,1.826-0.973
			c0.463-0.647,0.693-1.479,0.693-2.493v-6.442h3.121v9.33c0,1.021,0.031,1.918,0.09,2.688h-2.977
			c-0.09-1.065-0.133-1.861-0.133-2.388h-0.057c-0.416,0.91-0.941,1.573-1.584,1.988c-0.641,0.414-1.4,0.621-2.281,0.621
			c-1.273,0-2.252-0.391-2.934-1.171c-0.682-0.781-1.021-1.929-1.021-3.438v-7.631L460.651,596.75L460.651,596.75z"/>
		<path d="M472.625,608.769v-9.196c0-0.658-0.008-1.208-0.027-1.649c-0.018-0.439-0.039-0.831-0.061-1.172h2.977
			c0.021,0.134,0.053,0.539,0.09,1.217s0.057,1.127,0.057,1.351h0.043c0.305-0.846,0.574-1.438,0.811-1.783
			c0.238-0.344,0.52-0.601,0.846-0.768c0.324-0.166,0.732-0.25,1.223-0.25c0.398,0,0.721,0.057,0.965,0.167v2.61
			c-0.502-0.111-0.947-0.167-1.332-0.167c-0.777,0-1.383,0.315-1.814,0.944c-0.436,0.63-0.65,1.562-0.65,2.799v5.897H472.625
			L472.625,608.769z"/>
		<path d="M487.512,608.99c-1.82,0-3.229-0.542-4.221-1.627s-1.488-2.598-1.488-4.537c0-1.984,0.5-3.53,1.5-4.639
			c1-1.105,2.418-1.659,4.254-1.659c1.414,0,2.584,0.354,3.512,1.065c0.926,0.711,1.506,1.692,1.744,2.943l-3.145,0.155
			c-0.09-0.614-0.312-1.105-0.668-1.473c-0.354-0.366-0.857-0.55-1.51-0.55c-1.607,0-2.41,1.344-2.41,4.032
			c0,2.77,0.818,4.154,2.455,4.154c0.592,0,1.088-0.188,1.488-0.562c0.398-0.374,0.646-0.931,0.742-1.672l3.135,0.145
			c-0.111,0.822-0.406,1.557-0.885,2.199c-0.479,0.646-1.104,1.144-1.883,1.494C489.356,608.814,488.483,608.99,487.512,608.99z"/>
	</g>
	<g>
		<path d="M499.092,599.149c0.422-0.919,0.951-1.584,1.588-1.999c0.639-0.415,1.396-0.622,2.277-0.622
			c1.273,0,2.25,0.393,2.932,1.177c0.684,0.785,1.021,1.934,1.021,3.443v7.619h-3.109v-6.73c0-2.11-0.715-3.165-2.145-3.165
			c-0.754,0-1.363,0.324-1.826,0.972c-0.463,0.648-0.693,1.479-0.693,2.493v6.432h-3.123v-16.482h3.123v4.498
			c0,0.808-0.029,1.597-0.09,2.366L499.092,599.149L499.092,599.149z"/>
	</g>
	<g>
		<path d="M449.864,637.722v-6.741c0-2.11-0.607-3.166-1.822-3.166c-0.629,0-1.141,0.321-1.537,0.967
			c-0.396,0.645-0.594,1.478-0.594,2.499v6.441h-3.123v-9.33c0-0.645-0.008-1.172-0.027-1.583c-0.018-0.41-0.039-0.778-0.061-1.104
			h2.977c0.021,0.141,0.053,0.517,0.09,1.128c0.037,0.61,0.057,1.031,0.057,1.261h0.043c0.385-0.918,0.865-1.585,1.438-2
			c0.574-0.414,1.262-0.622,2.062-0.622c1.836,0,2.949,0.874,3.342,2.622h0.068c0.406-0.934,0.895-1.604,1.465-2.011
			s1.297-0.611,2.178-0.611c1.17,0,2.062,0.398,2.678,1.194c0.613,0.796,0.922,1.938,0.922,3.427v7.631h-3.1v-6.742
			c0-2.109-0.607-3.166-1.822-3.166c-0.605,0-1.104,0.295-1.494,0.885c-0.389,0.588-0.602,1.4-0.639,2.438v6.587h-3.1V637.722z"/>
		<path d="M466.815,637.943c-1.162,0-2.068-0.316-2.723-0.949c-0.65-0.633-0.977-1.523-0.977-2.671c0-1.244,0.406-2.192,1.217-2.845
			c0.811-0.651,1.986-0.984,3.525-1l2.588-0.044v-0.61c0-0.785-0.137-1.368-0.41-1.749c-0.273-0.382-0.723-0.572-1.344-0.572
			c-0.578,0-1.002,0.132-1.271,0.396c-0.27,0.263-0.438,0.696-0.506,1.305l-3.254-0.155c0.199-1.17,0.734-2.057,1.604-2.66
			c0.869-0.603,2.057-0.905,3.561-0.905c1.518,0,2.688,0.375,3.51,1.122c0.822,0.748,1.232,1.812,1.232,3.188v4.376
			c0,0.674,0.076,1.139,0.229,1.395s0.406,0.384,0.762,0.384c0.236,0,0.467-0.022,0.688-0.066v1.688
			c-0.186,0.044-0.352,0.085-0.5,0.122c-0.148,0.036-0.295,0.065-0.443,0.089c-0.148,0.022-0.307,0.04-0.473,0.056
			c-0.166,0.015-0.361,0.021-0.582,0.021c-0.785,0-1.365-0.192-1.74-0.577c-0.373-0.386-0.598-0.951-0.672-1.699h-0.064
			C469.897,637.155,468.579,637.943,466.815,637.943z M470.448,632.157l-1.602,0.021c-0.725,0.03-1.238,0.109-1.543,0.239
			s-0.535,0.327-0.693,0.594c-0.16,0.268-0.238,0.622-0.238,1.066c0,0.569,0.131,0.994,0.395,1.271s0.611,0.416,1.051,0.416
			c0.486,0,0.934-0.133,1.338-0.398c0.402-0.267,0.721-0.636,0.949-1.105s0.344-0.968,0.344-1.494V632.157L470.448,632.157z"/>
		<path d="M477.713,623.537v-2.299h3.121v2.299H477.713z M477.713,637.722v-12.019h3.121v12.019H477.713z"/>
		<path d="M492.844,637.722v-6.741c0-2.11-0.715-3.166-2.145-3.166c-0.754,0-1.363,0.323-1.826,0.973
			c-0.463,0.646-0.693,1.479-0.693,2.493v6.441h-3.123v-9.33c0-0.645-0.008-1.172-0.025-1.583c-0.02-0.41-0.039-0.778-0.062-1.104
			h2.979c0.02,0.141,0.051,0.517,0.088,1.128c0.037,0.61,0.057,1.031,0.057,1.261h0.043c0.422-0.918,0.951-1.585,1.59-2
			c0.637-0.414,1.396-0.622,2.275-0.622c1.273,0,2.252,0.394,2.934,1.178c0.682,0.785,1.021,1.934,1.021,3.443v7.631
			L492.844,637.722L492.844,637.722z"/>
	</g>
	<g>
		<path d="M499.299,637.722v-2.21l5.652-7.554h-5.197v-2.255h8.643v2.232l-5.621,7.509h6.164v2.276L499.299,637.722L499.299,637.722
			z"/>
		<path d="M517.067,637.943c-1.809,0-3.195-0.534-4.166-1.604s-1.455-2.631-1.455-4.682c0-1.984,0.492-3.511,1.479-4.576
			c0.984-1.066,2.379-1.6,4.188-1.6c1.725,0,3.043,0.571,3.955,1.716c0.908,1.145,1.365,2.818,1.365,5.025v0.09h-7.709
			c0,1.17,0.217,2.053,0.65,2.648c0.432,0.596,1.049,0.895,1.848,0.895c1.105,0,1.801-0.479,2.09-1.434l2.943,0.256
			C521.403,636.855,519.672,637.943,517.067,637.943z M517.067,627.447c-0.734,0-1.299,0.256-1.693,0.767
			c-0.396,0.511-0.605,1.227-0.629,2.145h4.666c-0.061-0.971-0.293-1.697-0.699-2.184
			C518.303,627.69,517.754,627.447,517.067,627.447z"/>
	</g>
	<g>
		<path d="M533.715,637.722c-0.029-0.11-0.064-0.391-0.104-0.839c-0.041-0.447-0.062-0.818-0.062-1.116h-0.045
			c-0.674,1.451-1.955,2.178-3.844,2.178c-1.398,0-2.48-0.546-3.242-1.639c-0.764-1.093-1.145-2.619-1.145-4.582
			c0-1.991,0.4-3.529,1.205-4.614c0.803-1.085,1.941-1.627,3.416-1.627c0.852,0,1.586,0.178,2.203,0.532
			c0.619,0.355,1.096,0.886,1.428,1.589h0.021l-0.021-1.978v-4.388h3.121V635.1c0,0.74,0.029,1.614,0.09,2.621L533.715,637.722
			L533.715,637.722z M533.571,631.646c0-1.296-0.217-2.294-0.65-2.993c-0.432-0.699-1.07-1.05-1.916-1.05
			c-0.836,0-1.459,0.339-1.865,1.017s-0.609,1.713-0.609,3.104c0,2.727,0.816,4.089,2.455,4.089c0.82,0,1.457-0.361,1.908-1.083
			C533.344,634.006,533.571,632.979,533.571,631.646z"/>
		<path d="M540.399,633.179v-2.71h5.773v2.71H540.399z"/>
	</g>
	<g>
		<path d="M555.301,624.604v13.118h-3.275v-13.118h-5.055v-2.531h13.396v2.531H555.301z"/>
		<path d="M566.278,628.104c0.422-0.919,0.949-1.584,1.588-2c0.637-0.414,1.396-0.621,2.275-0.621c1.273,0,2.252,0.393,2.934,1.177
			c0.682,0.785,1.021,1.934,1.021,3.442v7.62h-3.109v-6.73c0-2.11-0.715-3.165-2.145-3.165c-0.756,0-1.365,0.324-1.828,0.972
			c-0.463,0.648-0.691,1.479-0.691,2.493v6.432H563.2V621.24h3.123v4.498c0,0.808-0.031,1.597-0.09,2.365H566.278L566.278,628.104z"
			/>
		<path d="M578.096,623.537v-2.299h3.123v2.299H578.096z M578.096,637.722v-12.019h3.123v12.019H578.096z"/>
		<path d="M593.204,637.722v-6.741c0-2.11-0.715-3.166-2.145-3.166c-0.756,0-1.363,0.323-1.826,0.973
			c-0.465,0.646-0.693,1.479-0.693,2.493v6.441h-3.123v-9.33c0-0.645-0.008-1.172-0.027-1.583c-0.018-0.41-0.039-0.778-0.061-1.104
			h2.977c0.021,0.141,0.053,0.517,0.09,1.128c0.037,0.61,0.057,1.031,0.057,1.261h0.043c0.422-0.918,0.951-1.585,1.59-2
			c0.637-0.414,1.396-0.622,2.275-0.622c1.273,0,2.252,0.394,2.934,1.178c0.682,0.785,1.021,1.934,1.021,3.443v7.631
			L593.204,637.722L593.204,637.722z"/>
	</g>
	<g>
		<path d="M607.956,637.722l-3.209-5.441l-1.344,0.933v4.51h-3.123V621.24h3.123v9.44l4.287-4.977h3.354l-4.221,4.688l4.543,7.331
			L607.956,637.722L607.956,637.722z"/>
		<path d="M617.692,637.922c-0.918,0-1.625-0.25-2.121-0.75s-0.744-1.257-0.744-2.271v-7.087h-1.521v-2.11h1.678l0.979-2.821h1.955
			v2.821h2.275v2.11h-2.275v6.242c0,0.585,0.109,1.017,0.332,1.294s0.566,0.416,1.033,0.416c0.244,0,0.592-0.052,1.045-0.154v1.933
			C619.555,637.796,618.676,637.922,617.692,637.922z"/>
	</g>
	<g>
		<path d="M626.409,637.943c-1.162,0-2.068-0.316-2.721-0.949s-0.979-1.523-0.979-2.671c0-1.244,0.406-2.192,1.217-2.845
			c0.811-0.651,1.986-0.984,3.525-1l2.588-0.044v-0.61c0-0.785-0.137-1.368-0.41-1.749c-0.273-0.382-0.723-0.572-1.344-0.572
			c-0.578,0-1.002,0.132-1.271,0.396c-0.27,0.263-0.438,0.696-0.506,1.305l-3.254-0.155c0.199-1.17,0.734-2.057,1.604-2.66
			c0.869-0.603,2.057-0.905,3.561-0.905c1.518,0,2.689,0.375,3.51,1.122c0.822,0.748,1.232,1.812,1.232,3.188v4.376
			c0,0.674,0.076,1.139,0.229,1.395s0.406,0.384,0.762,0.384c0.236,0,0.467-0.022,0.688-0.066v1.688
			c-0.186,0.044-0.352,0.085-0.5,0.122c-0.146,0.036-0.295,0.065-0.443,0.089c-0.148,0.022-0.307,0.04-0.473,0.056
			c-0.166,0.015-0.361,0.021-0.582,0.021c-0.785,0-1.365-0.192-1.74-0.577c-0.373-0.386-0.598-0.951-0.672-1.699h-0.064
			C629.489,637.155,628.172,637.943,626.409,637.943z M630.042,632.157l-1.6,0.021c-0.727,0.03-1.24,0.109-1.545,0.239
			s-0.533,0.327-0.693,0.594c-0.16,0.268-0.238,0.622-0.238,1.066c0,0.569,0.131,0.994,0.395,1.271s0.611,0.416,1.051,0.416
			c0.488,0,0.934-0.133,1.338-0.398c0.402-0.267,0.721-0.636,0.949-1.105s0.344-0.968,0.344-1.494V632.157L630.042,632.157z"/>
		<path d="M645.321,637.722v-6.741c0-2.11-0.715-3.166-2.145-3.166c-0.756,0-1.365,0.323-1.828,0.973
			c-0.463,0.646-0.691,1.479-0.691,2.493v6.441h-3.123v-9.33c0-0.645-0.008-1.172-0.027-1.583c-0.018-0.41-0.039-0.778-0.061-1.104
			h2.977c0.021,0.141,0.053,0.517,0.09,1.128c0.037,0.61,0.057,1.031,0.057,1.261h0.043c0.422-0.918,0.951-1.585,1.59-2
			c0.637-0.414,1.395-0.622,2.275-0.622c1.273,0,2.25,0.394,2.934,1.178c0.682,0.785,1.02,1.934,1.02,3.443v7.631L645.321,637.722
			L645.321,637.722z"/>
	</g>
	<g>
		<path d="M660.073,637.722l-3.209-5.441l-1.346,0.933v4.51h-3.121V621.24h3.121v9.44l4.287-4.977h3.355l-4.221,4.688l4.543,7.331
			L660.073,637.722L660.073,637.722z"/>
	</g>
	<line fill="none" stroke="#000000" x1="57.88" y1="743.3" x2="741.879" y2="743.3"/>
</g>
</svg>
