<?xml version="1.0" encoding="utf-8"?>
<!-- Generator: Adobe Illustrator 16.0.4, SVG Export Plug-In . SVG Version: 6.00 Build 0)  -->
<!DOCTYPE svg PUBLIC "-//W3C//DTD SVG 1.1//EN" "http://www.w3.org/Graphics/SVG/1.1/DTD/svg11.dtd">
<svg version="1.1" id="Ebene_1" xmlns="http://www.w3.org/2000/svg" xmlns:xlink="http://www.w3.org/1999/xlink" x="0px" y="0px"
	 width="799.88px" height="800px" viewBox="0 0 799.88 800" enable-background="new 0 0 799.88 800" xml:space="preserve">
<g>
	<g>
		<defs>
			<rect id="SVGID_1_" y="1" width="799.88" height="799.8"/>
		</defs>
		<clipPath id="SVGID_2_">
			<use xlink:href="#SVGID_1_"  overflow="visible"/>
		</clipPath>
		<polygon clip-path="url(#SVGID_2_)" fill="#F0F3EF" points="-8.12,-19.2 -8.12,820.8 822.88,820.8 822.88,-19.2 -8.12,-19.2 		"/>
	</g>
	<g>
		<path d="M81.081,90.909l-2.777-7.998H66.375l-2.777,7.998h-6.554l11.418-31.301h7.731l11.374,31.301H81.081z M72.328,64.429
			l-0.133,0.489c-0.148,0.533-0.326,1.141-0.533,1.821c-0.208,0.682-1.481,4.429-3.821,11.241h8.997l-3.088-8.997l-0.955-3.021
			L72.328,64.429z"/>
		<path d="M98.547,71.094v19.815h-6.22V71.094h-3.51v-4.221h3.51v-2.51c0-2.177,0.578-3.791,1.732-4.843
			c1.155-1.051,2.91-1.577,5.265-1.577c1.17,0,2.488,0.119,3.954,0.355v4.021c-0.607-0.133-1.214-0.2-1.821-0.2
			c-1.066,0-1.818,0.211-2.255,0.633c-0.437,0.422-0.655,1.166-0.655,2.232v1.888h4.731v4.221H98.547z"/>
	</g>
	<g>
		<path d="M115.466,71.094v19.815h-6.22V71.094h-3.51v-4.221h3.51v-2.51c0-2.177,0.578-3.791,1.732-4.843
			c1.155-1.051,2.91-1.577,5.265-1.577c1.17,0,2.488,0.119,3.954,0.355v4.021c-0.607-0.133-1.214-0.2-1.821-0.2
			c-1.066,0-1.818,0.211-2.255,0.633c-0.437,0.422-0.655,1.166-0.655,2.232v1.888h4.731v4.221H115.466z M123.285,62.541v-4.599
			h6.243v4.599H123.285z M123.285,90.909V66.873h6.243v24.037H123.285z"/>
	</g>
	<g>
		<path d="M135.9,90.909V57.942h6.242v32.967H135.9z"/>
		<path d="M148.677,62.541v-4.599h6.242v4.599H148.677z M148.677,90.909V66.873h6.242v24.037H148.677z"/>
		<path d="M167.007,91.354c-2.325,0-4.14-0.633-5.443-1.899s-1.955-3.047-1.955-5.343c0-2.488,0.811-4.383,2.433-5.687
			c1.622-1.303,3.973-1.969,7.053-1.999l5.176-0.089v-1.222c0-1.569-0.274-2.736-0.822-3.499c-0.548-0.763-1.444-1.144-2.688-1.144
			c-1.155,0-2.003,0.263-2.544,0.789c-0.541,0.526-0.877,1.396-1.011,2.61l-6.509-0.311c0.4-2.34,1.47-4.113,3.21-5.321
			c1.74-1.207,4.113-1.811,7.12-1.811c3.036,0,5.376,0.748,7.02,2.244c1.644,1.496,2.466,3.621,2.466,6.375V83.8
			c0,1.348,0.152,2.277,0.456,2.788c0.303,0.511,0.811,0.767,1.522,0.767c0.474,0,0.933-0.044,1.377-0.133v3.376
			c-0.37,0.089-0.704,0.17-1,0.245c-0.296,0.074-0.592,0.133-0.889,0.177s-0.611,0.082-0.944,0.111
			c-0.333,0.029-0.722,0.044-1.167,0.044c-1.57,0-2.729-0.385-3.477-1.155c-0.748-0.77-1.196-1.903-1.344-3.399h-0.133
			C173.168,89.776,170.532,91.354,167.007,91.354z M174.271,79.78l-3.199,0.044c-1.452,0.059-2.481,0.218-3.088,0.478
			c-0.607,0.259-1.07,0.655-1.389,1.188s-0.478,1.244-0.478,2.132c0,1.141,0.263,1.988,0.789,2.544
			c0.525,0.555,1.226,0.833,2.1,0.833c0.977,0,1.869-0.267,2.677-0.8c0.807-0.533,1.44-1.27,1.899-2.21
			c0.459-0.94,0.688-1.936,0.688-2.988V79.78z"/>
		<path d="M193.046,91.309c-1.836,0-3.251-0.5-4.243-1.5c-0.993-1-1.489-2.514-1.489-4.543V71.094h-3.043v-4.221h3.354l1.955-5.643
			h3.91v5.643h4.554v4.221h-4.554v12.484c0,1.17,0.222,2.033,0.667,2.588c0.444,0.555,1.133,0.833,2.066,0.833
			c0.489,0,1.185-0.104,2.088-0.311v3.865C196.771,91.057,195.016,91.309,193.046,91.309z"/>
	</g>
	<g>
		<path d="M202.525,62.541v-4.599h6.242v4.599H202.525z M202.525,90.909V66.873h6.242v24.037H202.525z"/>
		<path d="M238.094,78.869c0,3.896-1.082,6.95-3.244,9.164c-2.162,2.214-5.154,3.321-8.975,3.321c-3.747,0-6.687-1.111-8.819-3.332
			c-2.133-2.222-3.199-5.272-3.199-9.153c0-3.865,1.066-6.905,3.199-9.119c2.133-2.214,5.117-3.321,8.953-3.321
			c3.924,0,6.92,1.07,8.986,3.21S238.094,74.855,238.094,78.869z M231.562,78.869c0-2.858-0.466-4.932-1.399-6.22
			c-0.933-1.288-2.288-1.933-4.065-1.933c-3.792,0-5.687,2.718-5.687,8.153c0,2.681,0.463,4.721,1.388,6.12
			c0.926,1.4,2.262,2.1,4.01,2.1C229.645,87.088,231.562,84.349,231.562,78.869z"/>
	</g>
	<g>
		<path d="M258.668,90.909V77.425c0-4.221-1.43-6.331-4.288-6.331c-1.511,0-2.729,0.648-3.654,1.943
			c-0.926,1.296-1.389,2.958-1.389,4.987v12.885h-6.242V72.249c0-1.288-0.019-2.343-0.056-3.166
			c-0.037-0.822-0.078-1.559-0.122-2.21h5.954c0.044,0.282,0.104,1.033,0.178,2.255c0.074,1.222,0.111,2.062,0.111,2.521h0.089
			c0.844-1.836,1.903-3.169,3.177-3.999c1.273-0.83,2.792-1.244,4.554-1.244c2.547,0,4.502,0.785,5.865,2.354
			c1.362,1.57,2.043,3.866,2.043,6.887v15.262H258.668z"/>
		<path d="M293.083,91.354c-3.244,0-5.735-0.703-7.476-2.11c-1.74-1.407-2.899-3.68-3.477-6.82l6.509-0.956
			c0.267,1.614,0.762,2.81,1.488,3.588c0.726,0.777,1.725,1.166,2.999,1.166c1.303,0,2.292-0.437,2.966-1.311
			c0.673-0.874,1.011-2.125,1.011-3.754V64.74h-6.243v-5.132h12.773v21.393c0,3.258-0.925,5.798-2.777,7.62
			C299.006,90.443,296.415,91.354,293.083,91.354z"/>
		<path d="M325.196,86.222c1.703,0,3.354-0.248,4.954-0.744c1.6-0.496,2.836-1.129,3.71-1.899v-4.332h-7.642v-4.843h13.64v11.507
			c-1.659,1.704-3.817,3.036-6.476,3.999c-2.659,0.963-5.446,1.444-8.364,1.444c-5.095,0-9.012-1.411-11.752-4.232
			s-4.109-6.823-4.109-12.007c0-5.154,1.377-9.104,4.132-11.852c2.754-2.747,6.716-4.121,11.885-4.121
			c7.346,0,12.019,2.718,14.018,8.153l-6.042,1.821c-0.652-1.584-1.674-2.784-3.065-3.599c-1.392-0.814-3.029-1.222-4.91-1.222
			c-3.081,0-5.42,0.933-7.02,2.799c-1.6,1.866-2.399,4.54-2.399,8.02c0,3.54,0.825,6.276,2.477,8.208
			C319.882,85.255,322.204,86.222,325.196,86.222z"/>
	</g>
	<g>
		<path d="M359.004,91.354c-4.31,0-7.609-1.051-9.897-3.155c-2.288-2.103-3.432-5.109-3.432-9.019V59.608h6.553v19.061
			c0,2.473,0.589,4.351,1.766,5.631c1.178,1.281,2.906,1.921,5.188,1.921c2.34,0,4.139-0.67,5.398-2.01s1.888-3.262,1.888-5.765
			V59.608h6.554v19.238c0,3.969-1.226,7.046-3.677,9.23C366.894,90.262,363.447,91.354,359.004,91.354z"/>
	</g>
	<g>
		<path d="M59.899,713.937v5.82h8.73v1.755h-8.73v6.343h-2.122v-15.65h11.118v1.732H59.899z"/>
		<path d="M81.958,721.834c0,2.104-0.463,3.67-1.389,4.698c-0.926,1.03-2.27,1.544-4.032,1.544c-1.755,0-3.081-0.534-3.977-1.604
			s-1.344-2.616-1.344-4.638c0-4.146,1.796-6.22,5.387-6.22c1.836,0,3.188,0.505,4.054,1.516S81.958,719.709,81.958,721.834z
			 M79.858,721.834c0-1.658-0.246-2.863-0.738-3.615c-0.493-0.751-1.32-1.127-2.483-1.127c-1.17,0-2.016,0.383-2.538,1.149
			c-0.522,0.767-0.783,1.964-0.783,3.593c0,1.585,0.257,2.775,0.772,3.571c0.515,0.796,1.323,1.194,2.427,1.194
			c1.2,0,2.057-0.385,2.571-1.155S79.858,723.471,79.858,721.834z"/>
		<path d="M84.945,727.854v-9.219c0-0.845-0.022-1.777-0.066-2.8h1.888c0.059,1.363,0.089,2.182,0.089,2.455H86.9
			c0.318-1.029,0.685-1.732,1.1-2.11c0.415-0.378,1-0.566,1.755-0.566c0.267,0,0.537,0.037,0.811,0.111v1.832
			c-0.267-0.073-0.622-0.11-1.066-0.11c-0.83,0-1.462,0.356-1.899,1.071s-0.655,1.738-0.655,3.071v6.265H84.945z"/>
		<path d="M101.95,724.533c0,1.133-0.428,2.007-1.283,2.621c-0.855,0.615-2.053,0.922-3.593,0.922c-1.496,0-2.649-0.246-3.46-0.738
			c-0.811-0.492-1.338-1.261-1.583-2.305l1.766-0.345c0.17,0.645,0.522,1.116,1.055,1.417c0.533,0.3,1.273,0.449,2.221,0.449
			c1.015,0,1.757-0.155,2.227-0.466c0.47-0.312,0.706-0.778,0.706-1.4c0-0.474-0.163-0.858-0.489-1.154
			c-0.326-0.297-0.852-0.541-1.577-0.733l-1.433-0.378c-1.148-0.296-1.964-0.587-2.449-0.872s-0.865-0.631-1.139-1.038
			s-0.411-0.907-0.411-1.5c0-1.096,0.391-1.931,1.172-2.505c0.781-0.573,1.919-0.86,3.416-0.86c1.325,0,2.378,0.233,3.16,0.7
			c0.781,0.466,1.275,1.214,1.482,2.243l-1.799,0.223c-0.111-0.533-0.409-0.942-0.894-1.228s-1.135-0.428-1.949-0.428
			c-0.904,0-1.57,0.137-2,0.411c-0.43,0.273-0.644,0.688-0.644,1.244c0,0.34,0.089,0.622,0.267,0.844s0.44,0.411,0.789,0.566
			c0.348,0.155,1.081,0.37,2.199,0.645c1.059,0.267,1.822,0.513,2.288,0.738c0.466,0.227,0.835,0.476,1.105,0.75
			c0.271,0.273,0.479,0.591,0.628,0.949C101.876,723.665,101.95,724.074,101.95,724.533z"/>
		<path d="M106.282,721.79c0,1.6,0.251,2.784,0.755,3.554c0.503,0.771,1.262,1.155,2.277,1.155c0.711,0,1.305-0.192,1.783-0.577
			s0.772-0.978,0.883-1.777l2.022,0.134c-0.156,1.154-0.648,2.077-1.478,2.766c-0.83,0.688-1.881,1.032-3.154,1.032
			c-1.681,0-2.964-0.531-3.849-1.594s-1.327-2.611-1.327-4.648c0-2.021,0.444-3.563,1.333-4.626s2.162-1.594,3.821-1.594
			c1.229,0,2.25,0.318,3.06,0.955c0.811,0.637,1.32,1.515,1.527,2.633l-2.055,0.155c-0.104-0.667-0.367-1.196-0.789-1.589
			c-0.422-0.392-1.022-0.588-1.8-0.588c-1.059,0-1.825,0.352-2.299,1.055C106.519,718.939,106.282,720.124,106.282,721.79z"/>
		<path d="M118.577,717.892c0.429-0.785,0.946-1.361,1.549-1.728s1.368-0.55,2.294-0.55c1.303,0,2.264,0.324,2.882,0.972
			c0.618,0.648,0.927,1.734,0.927,3.26v8.009h-2.01v-7.62c0-0.844-0.078-1.472-0.233-1.882c-0.155-0.411-0.411-0.713-0.766-0.905
			c-0.355-0.193-0.848-0.289-1.478-0.289c-0.94,0-1.694,0.326-2.26,0.978s-0.85,1.529-0.85,2.632v7.087h-2v-16.483h2v4.287
			c0,0.452-0.013,0.919-0.039,1.399c-0.026,0.481-0.042,0.76-0.05,0.834H118.577z"/>
		<path d="M131.65,715.836v7.62c0,0.792,0.078,1.407,0.233,1.844c0.155,0.437,0.403,0.752,0.744,0.944
			c0.34,0.192,0.84,0.288,1.5,0.288c0.962,0,1.722-0.329,2.277-0.988s0.833-1.573,0.833-2.743v-6.965h2v9.453
			c0,1.399,0.022,2.255,0.066,2.565h-1.888c-0.007-0.037-0.015-0.137-0.022-0.3c-0.008-0.163-0.017-0.35-0.028-0.561
			c-0.011-0.212-0.024-0.609-0.039-1.194h-0.033c-0.459,0.829-0.991,1.416-1.594,1.761c-0.604,0.344-1.354,0.516-2.25,0.516
			c-1.318,0-2.283-0.327-2.894-0.982s-0.917-1.738-0.917-3.249v-8.009H131.65z"/>
		<path d="M150.432,727.854v-7.62c0-0.792-0.078-1.406-0.233-1.844c-0.155-0.437-0.403-0.751-0.744-0.943
			c-0.34-0.193-0.84-0.289-1.5-0.289c-0.962,0-1.722,0.329-2.277,0.988s-0.833,1.574-0.833,2.744v6.964h-2v-9.452
			c0-1.399-0.022-2.255-0.066-2.566h1.888c0.007,0.037,0.015,0.138,0.022,0.3c0.007,0.163,0.017,0.351,0.028,0.562
			c0.011,0.211,0.024,0.609,0.039,1.194h0.033c0.459-0.83,0.99-1.417,1.594-1.761c0.604-0.345,1.354-0.517,2.25-0.517
			c1.318,0,2.283,0.327,2.894,0.982c0.611,0.656,0.916,1.738,0.916,3.249v8.009H150.432z"/>
		<path d="M160.462,732.575c-1.311,0-2.355-0.258-3.132-0.772s-1.277-1.245-1.5-2.193l2.01-0.289
			c0.133,0.556,0.428,0.983,0.883,1.283s1.053,0.45,1.794,0.45c1.992,0,2.988-1.167,2.988-3.499v-1.933h-0.022
			c-0.377,0.771-0.896,1.35-1.555,1.738c-0.659,0.389-1.429,0.583-2.311,0.583c-1.474,0-2.557-0.488-3.249-1.466
			s-1.039-2.515-1.039-4.61c0-2.125,0.372-3.692,1.117-4.703c0.744-1.012,1.875-1.517,3.393-1.517c0.852,0,1.59,0.194,2.216,0.583
			c0.626,0.389,1.109,0.942,1.45,1.661h0.022c0-0.223,0.015-0.607,0.044-1.155c0.03-0.548,0.06-0.849,0.089-0.9h1.899
			c-0.044,0.4-0.066,1.229-0.066,2.488v9.186C165.494,730.887,163.816,732.575,160.462,732.575z M163.505,721.846
			c0-0.978-0.133-1.82-0.4-2.527s-0.643-1.248-1.127-1.622c-0.485-0.373-1.035-0.561-1.649-0.561c-1.022,0-1.766,0.37-2.232,1.11
			c-0.467,0.741-0.7,1.94-0.7,3.6c0,1.644,0.219,2.825,0.656,3.543c0.437,0.719,1.185,1.077,2.244,1.077
			c0.629,0,1.188-0.185,1.677-0.555c0.489-0.371,0.866-0.902,1.133-1.595S163.505,722.801,163.505,721.846z"/>
		<path d="M178.033,724.533c0,1.133-0.428,2.007-1.283,2.621c-0.855,0.615-2.053,0.922-3.593,0.922c-1.496,0-2.649-0.246-3.46-0.738
			c-0.811-0.492-1.338-1.261-1.583-2.305l1.766-0.345c0.17,0.645,0.522,1.116,1.055,1.417c0.533,0.3,1.273,0.449,2.221,0.449
			c1.015,0,1.757-0.155,2.227-0.466c0.47-0.312,0.706-0.778,0.706-1.4c0-0.474-0.163-0.858-0.489-1.154
			c-0.326-0.297-0.852-0.541-1.577-0.733l-1.433-0.378c-1.148-0.296-1.964-0.587-2.449-0.872s-0.865-0.631-1.139-1.038
			s-0.411-0.907-0.411-1.5c0-1.096,0.391-1.931,1.172-2.505c0.781-0.573,1.919-0.86,3.416-0.86c1.325,0,2.378,0.233,3.16,0.7
			c0.781,0.466,1.275,1.214,1.482,2.243l-1.799,0.223c-0.111-0.533-0.409-0.942-0.894-1.228s-1.135-0.428-1.949-0.428
			c-0.904,0-1.57,0.137-2,0.411c-0.43,0.273-0.644,0.688-0.644,1.244c0,0.34,0.089,0.622,0.267,0.844s0.44,0.411,0.789,0.566
			c0.348,0.155,1.081,0.37,2.199,0.645c1.059,0.267,1.822,0.513,2.288,0.738c0.466,0.227,0.835,0.476,1.105,0.75
			c0.271,0.273,0.479,0.591,0.628,0.949C177.959,723.665,178.033,724.074,178.033,724.533z"/>
		<path d="M182.798,715.836v7.62c0,0.792,0.078,1.407,0.233,1.844c0.155,0.437,0.403,0.752,0.744,0.944
			c0.34,0.192,0.84,0.288,1.5,0.288c0.962,0,1.722-0.329,2.277-0.988s0.833-1.573,0.833-2.743v-6.965h2v9.453
			c0,1.399,0.022,2.255,0.066,2.565h-1.888c-0.007-0.037-0.015-0.137-0.022-0.3c-0.008-0.163-0.017-0.35-0.028-0.561
			c-0.011-0.212-0.024-0.609-0.039-1.194h-0.033c-0.459,0.829-0.991,1.416-1.594,1.761c-0.604,0.344-1.354,0.516-2.25,0.516
			c-1.318,0-2.283-0.327-2.894-0.982s-0.917-1.738-0.917-3.249v-8.009H182.798z"/>
		<path d="M201.58,727.854v-7.62c0-0.792-0.078-1.406-0.233-1.844c-0.155-0.437-0.403-0.751-0.744-0.943
			c-0.34-0.193-0.84-0.289-1.5-0.289c-0.962,0-1.722,0.329-2.277,0.988s-0.833,1.574-0.833,2.744v6.964h-2v-9.452
			c0-1.399-0.022-2.255-0.066-2.566h1.888c0.007,0.037,0.015,0.138,0.022,0.3c0.007,0.163,0.017,0.351,0.028,0.562
			c0.011,0.211,0.024,0.609,0.039,1.194h0.033c0.459-0.83,0.99-1.417,1.594-1.761c0.604-0.345,1.354-0.517,2.25-0.517
			c1.318,0,2.283,0.327,2.894,0.982c0.611,0.656,0.916,1.738,0.916,3.249v8.009H201.58z"/>
		<path d="M211.676,727.766c-0.659,0.178-1.333,0.267-2.021,0.267c-1.599,0-2.399-0.907-2.399-2.722v-8.02h-1.389v-1.455h1.466
			l0.589-2.688h1.333v2.688h2.222v1.455h-2.222v7.587c0,0.577,0.095,0.982,0.283,1.216c0.189,0.233,0.517,0.351,0.983,0.351
			c0.267,0,0.651-0.052,1.155-0.156V727.766z"/>
		<path d="M215.363,722.268c0,1.377,0.285,2.439,0.855,3.188s1.403,1.122,2.499,1.122c0.867,0,1.561-0.174,2.083-0.522
			c0.522-0.348,0.875-0.788,1.061-1.321l1.755,0.5c-0.718,1.896-2.351,2.843-4.898,2.843c-1.777,0-3.13-0.529-4.06-1.588
			s-1.394-2.633-1.394-4.721c0-1.984,0.465-3.506,1.394-4.565c0.929-1.059,2.256-1.588,3.982-1.588c3.532,0,5.298,2.129,5.298,6.387
			v0.267H215.363z M221.873,720.734c-0.111-1.266-0.433-2.189-0.966-2.771c-0.533-0.581-1.3-0.871-2.299-0.871
			c-0.97,0-1.738,0.323-2.305,0.972c-0.566,0.647-0.872,1.538-0.917,2.671H221.873z"/>
		<path d="M226.981,727.854v-9.219c0-0.845-0.022-1.777-0.066-2.8h1.888c0.059,1.363,0.089,2.182,0.089,2.455h0.044
			c0.318-1.029,0.685-1.732,1.1-2.11c0.415-0.378,1-0.566,1.755-0.566c0.267,0,0.537,0.037,0.811,0.111v1.832
			c-0.267-0.073-0.622-0.11-1.066-0.11c-0.83,0-1.462,0.356-1.899,1.071s-0.655,1.738-0.655,3.071v6.265H226.981z"/>
		<path d="M243.987,724.533c0,1.133-0.428,2.007-1.283,2.621c-0.855,0.615-2.053,0.922-3.593,0.922c-1.496,0-2.649-0.246-3.46-0.738
			c-0.811-0.492-1.338-1.261-1.583-2.305l1.766-0.345c0.17,0.645,0.522,1.116,1.055,1.417c0.533,0.3,1.273,0.449,2.221,0.449
			c1.015,0,1.757-0.155,2.227-0.466c0.47-0.312,0.706-0.778,0.706-1.4c0-0.474-0.163-0.858-0.489-1.154
			c-0.326-0.297-0.852-0.541-1.577-0.733l-1.433-0.378c-1.148-0.296-1.964-0.587-2.449-0.872s-0.865-0.631-1.139-1.038
			s-0.411-0.907-0.411-1.5c0-1.096,0.391-1.931,1.172-2.505c0.781-0.573,1.919-0.86,3.416-0.86c1.325,0,2.378,0.233,3.16,0.7
			c0.781,0.466,1.275,1.214,1.482,2.243l-1.799,0.223c-0.111-0.533-0.409-0.942-0.894-1.228s-1.135-0.428-1.949-0.428
			c-0.904,0-1.57,0.137-2,0.411c-0.43,0.273-0.644,0.688-0.644,1.244c0,0.34,0.089,0.622,0.267,0.844s0.44,0.411,0.789,0.566
			c0.348,0.155,1.081,0.37,2.199,0.645c1.059,0.267,1.822,0.513,2.288,0.738c0.466,0.227,0.835,0.476,1.105,0.75
			c0.271,0.273,0.479,0.591,0.628,0.949C243.913,723.665,243.987,724.074,243.987,724.533z"/>
		<path d="M251.417,727.766c-0.659,0.178-1.333,0.267-2.021,0.267c-1.599,0-2.399-0.907-2.399-2.722v-8.02h-1.389v-1.455h1.466
			l0.589-2.688h1.333v2.688h2.222v1.455h-2.222v7.587c0,0.577,0.095,0.982,0.283,1.216c0.189,0.233,0.517,0.351,0.983,0.351
			c0.267,0,0.651-0.052,1.155-0.156V727.766z"/>
		<path d="M255.593,715.836v7.62c0,0.792,0.078,1.407,0.233,1.844c0.156,0.437,0.403,0.752,0.744,0.944s0.84,0.288,1.5,0.288
			c0.962,0,1.722-0.329,2.277-0.988c0.555-0.659,0.833-1.573,0.833-2.743v-6.965h1.999v9.453c0,1.399,0.022,2.255,0.067,2.565
			h-1.888c-0.008-0.037-0.015-0.137-0.022-0.3s-0.017-0.35-0.028-0.561c-0.011-0.212-0.024-0.609-0.039-1.194h-0.034
			c-0.459,0.829-0.99,1.416-1.594,1.761c-0.604,0.344-1.354,0.516-2.249,0.516c-1.318,0-2.283-0.327-2.894-0.982
			s-0.917-1.738-0.917-3.249v-8.009H255.593z M255.171,714.314v-2.044h1.833v2.044H255.171z M259.547,714.314v-2.044h1.811v2.044
			H259.547z"/>
	</g>
	<g>
		<path d="M271.252,727.766c-0.659,0.178-1.333,0.267-2.021,0.267c-1.599,0-2.399-0.907-2.399-2.722v-8.02h-1.389v-1.455h1.466
			l0.589-2.688h1.333v2.688h2.222v1.455h-2.222v7.587c0,0.577,0.095,0.982,0.283,1.216c0.189,0.233,0.517,0.351,0.983,0.351
			c0.267,0,0.651-0.052,1.155-0.156V727.766z"/>
		<path d="M273.228,727.854v-1.521l6.72-8.953h-6.342v-1.544h8.708v1.522l-6.731,8.952h6.964v1.544H273.228z"/>
	</g>
	<g>
		<path d="M287.188,715.836v7.62c0,0.792,0.078,1.407,0.233,1.844c0.155,0.437,0.403,0.752,0.744,0.944
			c0.34,0.192,0.84,0.288,1.5,0.288c0.962,0,1.722-0.329,2.277-0.988s0.833-1.573,0.833-2.743v-6.965h2v9.453
			c0,1.399,0.022,2.255,0.066,2.565h-1.888c-0.007-0.037-0.015-0.137-0.022-0.3c-0.008-0.163-0.017-0.35-0.028-0.561
			c-0.011-0.212-0.024-0.609-0.039-1.194h-0.033c-0.459,0.829-0.991,1.416-1.594,1.761c-0.604,0.344-1.354,0.516-2.25,0.516
			c-1.318,0-2.283-0.327-2.894-0.982s-0.917-1.738-0.917-3.249v-8.009H287.188z"/>
		<path d="M305.993,727.854v-7.62c0-0.792-0.078-1.406-0.233-1.844c-0.155-0.437-0.403-0.751-0.744-0.943
			c-0.34-0.193-0.84-0.289-1.5-0.289c-0.962,0-1.722,0.329-2.277,0.988s-0.833,1.574-0.833,2.744v6.964h-2v-9.452
			c0-1.399-0.022-2.255-0.066-2.566h1.888c0.007,0.037,0.015,0.138,0.022,0.3c0.007,0.163,0.017,0.351,0.028,0.562
			c0.011,0.211,0.024,0.609,0.039,1.194h0.033c0.459-0.83,0.99-1.417,1.594-1.761c0.604-0.345,1.354-0.517,2.25-0.517
			c1.318,0,2.283,0.327,2.894,0.982c0.611,0.656,0.916,1.738,0.916,3.249v8.009H305.993z"/>
		<path d="M316.045,732.575c-1.311,0-2.355-0.258-3.132-0.772s-1.277-1.245-1.5-2.193l2.01-0.289
			c0.133,0.556,0.428,0.983,0.883,1.283s1.053,0.45,1.794,0.45c1.992,0,2.988-1.167,2.988-3.499v-1.933h-0.022
			c-0.377,0.771-0.896,1.35-1.555,1.738c-0.659,0.389-1.429,0.583-2.311,0.583c-1.474,0-2.557-0.488-3.249-1.466
			s-1.039-2.515-1.039-4.61c0-2.125,0.372-3.692,1.117-4.703c0.744-1.012,1.875-1.517,3.393-1.517c0.852,0,1.59,0.194,2.216,0.583
			c0.626,0.389,1.109,0.942,1.45,1.661h0.022c0-0.223,0.015-0.607,0.044-1.155c0.03-0.548,0.06-0.849,0.089-0.9h1.899
			c-0.044,0.4-0.066,1.229-0.066,2.488v9.186C321.077,730.887,319.4,732.575,316.045,732.575z M319.089,721.846
			c0-0.978-0.133-1.82-0.4-2.527s-0.643-1.248-1.127-1.622c-0.485-0.373-1.035-0.561-1.649-0.561c-1.022,0-1.766,0.37-2.232,1.11
			c-0.467,0.741-0.7,1.94-0.7,3.6c0,1.644,0.219,2.825,0.656,3.543c0.437,0.719,1.185,1.077,2.244,1.077
			c0.629,0,1.188-0.185,1.677-0.555c0.489-0.371,0.866-0.902,1.133-1.595S319.089,722.801,319.089,721.846z"/>
	</g>
	<g>
		<path d="M333.991,717.291v10.563h-2v-10.563h-1.688v-1.455h1.688v-1.354c0-1.096,0.241-1.885,0.722-2.366s1.218-0.722,2.21-0.722
			c0.555,0,1.025,0.044,1.411,0.133v1.521c-0.333-0.059-0.629-0.089-0.889-0.089c-0.511,0-0.881,0.13-1.111,0.39
			c-0.229,0.259-0.344,0.729-0.344,1.41v1.077h2.344v1.455H333.991z"/>
		<path d="M340.538,715.836v7.62c0,0.792,0.078,1.407,0.233,1.844c0.156,0.437,0.403,0.752,0.744,0.944s0.84,0.288,1.5,0.288
			c0.962,0,1.722-0.329,2.277-0.988c0.555-0.659,0.833-1.573,0.833-2.743v-6.965h1.999v9.453c0,1.399,0.022,2.255,0.067,2.565
			h-1.888c-0.008-0.037-0.015-0.137-0.022-0.3s-0.017-0.35-0.028-0.561c-0.011-0.212-0.024-0.609-0.039-1.194h-0.034
			c-0.459,0.829-0.99,1.416-1.594,1.761c-0.604,0.344-1.354,0.516-2.249,0.516c-1.318,0-2.283-0.327-2.894-0.982
			s-0.917-1.738-0.917-3.249v-8.009H340.538z M340.116,714.314v-2.044h1.833v2.044H340.116z M344.493,714.314v-2.044h1.811v2.044
			H344.493z"/>
	</g>
	<g>
		<path d="M351.621,727.854v-9.219c0-0.845-0.022-1.777-0.066-2.8h1.888c0.059,1.363,0.089,2.182,0.089,2.455h0.044
			c0.318-1.029,0.685-1.732,1.1-2.11c0.415-0.378,1-0.566,1.755-0.566c0.267,0,0.537,0.037,0.811,0.111v1.832
			c-0.267-0.073-0.622-0.11-1.066-0.11c-0.83,0-1.462,0.356-1.899,1.071s-0.655,1.738-0.655,3.071v6.265H351.621z"/>
		<path d="M368.051,722.268c0,1.377,0.285,2.439,0.855,3.188s1.403,1.122,2.499,1.122c0.867,0,1.561-0.174,2.083-0.522
			c0.522-0.348,0.875-0.788,1.061-1.321l1.755,0.5c-0.718,1.896-2.351,2.843-4.898,2.843c-1.777,0-3.13-0.529-4.06-1.588
			s-1.394-2.633-1.394-4.721c0-1.984,0.465-3.506,1.394-4.565c0.929-1.059,2.256-1.588,3.982-1.588c3.532,0,5.298,2.129,5.298,6.387
			v0.267H368.051z M374.561,720.734c-0.111-1.266-0.433-2.189-0.966-2.771c-0.533-0.581-1.3-0.871-2.299-0.871
			c-0.97,0-1.738,0.323-2.305,0.972c-0.566,0.647-0.872,1.538-0.917,2.671H374.561z"/>
		<path d="M379.693,727.854v-16.483h2v16.483H379.693z"/>
		<path d="M387.747,717.291v10.563h-2v-10.563h-1.688v-1.455h1.688v-1.354c0-1.096,0.241-1.885,0.722-2.366s1.218-0.722,2.21-0.722
			c0.555,0,1.025,0.044,1.411,0.133v1.521c-0.333-0.059-0.629-0.089-0.889-0.089c-0.511,0-0.881,0.13-1.111,0.39
			c-0.229,0.259-0.344,0.729-0.344,1.41v1.077h2.344v1.455H387.747z"/>
		<path d="M402.5,728.076c-2.651,0-4.225-1.369-4.721-4.109l2.077-0.344c0.133,0.858,0.434,1.528,0.899,2.01
			c0.467,0.481,1.052,0.723,1.755,0.723c0.771,0,1.378-0.266,1.822-0.795s0.666-1.305,0.666-2.327v-9.297h-3.01v-1.732h5.12v10.985
			c0,1.518-0.411,2.712-1.232,3.582C405.055,727.642,403.929,728.076,402.5,728.076z"/>
		<path d="M410.466,719.957c0-2.54,0.681-4.506,2.043-5.898c1.362-1.392,3.277-2.088,5.743-2.088c1.732,0,3.14,0.293,4.221,0.878
			s1.914,1.521,2.499,2.81l-2.021,0.601c-0.444-0.889-1.058-1.537-1.839-1.944s-1.753-0.61-2.915-0.61
			c-1.807,0-3.188,0.546-4.144,1.638c-0.955,1.093-1.433,2.631-1.433,4.615c0,1.978,0.507,3.538,1.521,4.682
			c1.015,1.145,2.418,1.717,4.21,1.717c1.021,0,1.976-0.156,2.86-0.467c0.885-0.312,1.601-0.733,2.149-1.267v-2.821h-4.677v-1.777
			h6.632v5.398c-0.83,0.845-1.846,1.498-3.05,1.961c-1.203,0.463-2.508,0.693-3.915,0.693c-1.637,0-3.047-0.325-4.231-0.977
			c-1.186-0.652-2.091-1.591-2.716-2.816C410.778,723.058,410.466,721.616,410.466,719.957z"/>
	</g>
	<g>
		<path d="M435.405,728.076c-1.281,0-2.398-0.232-3.354-0.699c-0.955-0.467-1.695-1.145-2.221-2.033
			c-0.526-0.888-0.789-1.947-0.789-3.176v-9.964h2.122v9.786c0,1.429,0.362,2.514,1.088,3.254s1.773,1.111,3.144,1.111
			c1.407,0,2.501-0.384,3.282-1.15s1.172-1.886,1.172-3.359v-9.642h2.11v9.764c0,1.266-0.269,2.358-0.806,3.276
			c-0.536,0.918-1.296,1.62-2.276,2.104C437.896,727.834,436.738,728.076,435.405,728.076z"/>
		<path d="M445.612,722.7v-1.776h5.554v1.776H445.612z"/>
	</g>
	<g>
		<path d="M454.378,713.281v-1.91h2v1.91H454.378z M454.378,727.854v-12.019h2v12.019H454.378z"/>
		<path d="M467.529,727.854v-7.62c0-0.792-0.078-1.406-0.233-1.844c-0.156-0.437-0.404-0.751-0.744-0.943
			c-0.341-0.193-0.841-0.289-1.5-0.289c-0.963,0-1.722,0.329-2.277,0.988c-0.555,0.659-0.833,1.574-0.833,2.744v6.964h-1.999v-9.452
			c0-1.399-0.022-2.255-0.066-2.566h1.888c0.008,0.037,0.016,0.138,0.022,0.3c0.008,0.163,0.017,0.351,0.028,0.562
			c0.011,0.211,0.023,0.609,0.038,1.194h0.034c0.459-0.83,0.99-1.417,1.594-1.761c0.604-0.345,1.353-0.517,2.249-0.517
			c1.318,0,2.282,0.327,2.894,0.982c0.61,0.656,0.916,1.738,0.916,3.249v8.009H467.529z"/>
		<path d="M477.625,727.766c-0.659,0.178-1.333,0.267-2.021,0.267c-1.6,0-2.399-0.907-2.399-2.722v-8.02h-1.388v-1.455h1.466
			l0.589-2.688h1.333v2.688h2.221v1.455h-2.221v7.587c0,0.577,0.094,0.982,0.283,1.216c0.188,0.233,0.517,0.351,0.982,0.351
			c0.267,0,0.651-0.052,1.155-0.156V727.766z"/>
		<path d="M481.312,722.268c0,1.377,0.285,2.439,0.855,3.188s1.403,1.122,2.499,1.122c0.866,0,1.561-0.174,2.083-0.522
			c0.521-0.348,0.875-0.788,1.061-1.321l1.755,0.5c-0.718,1.896-2.351,2.843-4.898,2.843c-1.777,0-3.131-0.529-4.06-1.588
			c-0.93-1.059-1.394-2.633-1.394-4.721c0-1.984,0.464-3.506,1.394-4.565c0.929-1.059,2.257-1.588,3.982-1.588
			c3.531,0,5.298,2.129,5.298,6.387v0.267H481.312z M487.821,720.734c-0.11-1.266-0.433-2.189-0.966-2.771
			c-0.533-0.581-1.3-0.871-2.3-0.871c-0.97,0-1.738,0.323-2.305,0.972c-0.566,0.647-0.872,1.538-0.916,2.671H487.821z"/>
		<path d="M492.93,727.854v-9.219c0-0.845-0.022-1.777-0.066-2.8h1.888c0.06,1.363,0.089,2.182,0.089,2.455h0.045
			c0.318-1.029,0.685-1.732,1.1-2.11s1-0.566,1.755-0.566c0.267,0,0.537,0.037,0.811,0.111v1.832
			c-0.267-0.073-0.622-0.11-1.066-0.11c-0.829,0-1.462,0.356-1.899,1.071c-0.437,0.715-0.655,1.738-0.655,3.071v6.265H492.93z"/>
		<path d="M508.547,727.854v-7.62c0-0.792-0.078-1.406-0.233-1.844c-0.156-0.437-0.404-0.751-0.744-0.943
			c-0.341-0.193-0.841-0.289-1.5-0.289c-0.963,0-1.722,0.329-2.277,0.988c-0.555,0.659-0.833,1.574-0.833,2.744v6.964h-1.999v-9.452
			c0-1.399-0.022-2.255-0.066-2.566h1.888c0.008,0.037,0.016,0.138,0.022,0.3c0.008,0.163,0.017,0.351,0.028,0.562
			c0.011,0.211,0.023,0.609,0.038,1.194h0.034c0.459-0.83,0.99-1.417,1.594-1.761c0.604-0.345,1.353-0.517,2.249-0.517
			c1.318,0,2.282,0.327,2.894,0.982c0.61,0.656,0.916,1.738,0.916,3.249v8.009H508.547z"/>
		<path d="M515.555,722.268c0,1.377,0.285,2.439,0.855,3.188s1.403,1.122,2.499,1.122c0.866,0,1.561-0.174,2.083-0.522
			c0.521-0.348,0.875-0.788,1.061-1.321l1.755,0.5c-0.718,1.896-2.351,2.843-4.898,2.843c-1.777,0-3.131-0.529-4.06-1.588
			c-0.93-1.059-1.394-2.633-1.394-4.721c0-1.984,0.464-3.506,1.394-4.565c0.929-1.059,2.257-1.588,3.982-1.588
			c3.531,0,5.298,2.129,5.298,6.387v0.267H515.555z M522.063,720.734c-0.11-1.266-0.433-2.189-0.966-2.771
			c-0.533-0.581-1.3-0.871-2.3-0.871c-0.97,0-1.738,0.323-2.305,0.972c-0.566,0.647-0.872,1.538-0.916,2.671H522.063z"/>
	</g>
	<g>
		<path d="M540.94,727.854h-2.199l-6.387-15.65h2.233l4.331,11.019l0.934,2.766l0.933-2.766l4.31-11.019h2.233L540.94,727.854z"/>
		<path d="M558.623,721.834c0,2.104-0.463,3.67-1.389,4.698c-0.926,1.03-2.27,1.544-4.032,1.544c-1.755,0-3.08-0.534-3.977-1.604
			c-0.896-1.07-1.344-2.616-1.344-4.638c0-4.146,1.796-6.22,5.388-6.22c1.836,0,3.188,0.505,4.054,1.516
			S558.623,719.709,558.623,721.834z M556.523,721.834c0-1.658-0.246-2.863-0.738-3.615c-0.493-0.751-1.32-1.127-2.482-1.127
			c-1.171,0-2.017,0.383-2.538,1.149c-0.522,0.767-0.783,1.964-0.783,3.593c0,1.585,0.257,2.775,0.771,3.571
			s1.324,1.194,2.428,1.194c1.199,0,2.057-0.385,2.571-1.155S556.523,723.471,556.523,721.834z"/>
	</g>
	<g>
		<path d="M561.566,727.854v-9.219c0-0.845-0.022-1.777-0.066-2.8h1.888c0.06,1.363,0.089,2.182,0.089,2.455h0.045
			c0.318-1.029,0.685-1.732,1.1-2.11s1-0.566,1.755-0.566c0.267,0,0.537,0.037,0.811,0.111v1.832
			c-0.267-0.073-0.622-0.11-1.066-0.11c-0.829,0-1.462,0.356-1.899,1.071c-0.437,0.715-0.655,1.738-0.655,3.071v6.265H561.566z"/>
		<path d="M571.541,717.892c0.429-0.785,0.945-1.361,1.549-1.728s1.368-0.55,2.294-0.55c1.303,0,2.264,0.324,2.883,0.972
			c0.618,0.648,0.927,1.734,0.927,3.26v8.009h-2.01v-7.62c0-0.844-0.078-1.472-0.233-1.882c-0.156-0.411-0.411-0.713-0.767-0.905
			c-0.355-0.193-0.848-0.289-1.478-0.289c-0.94,0-1.693,0.326-2.26,0.978c-0.567,0.651-0.851,1.529-0.851,2.632v7.087h-1.999
			v-16.483h1.999v4.287c0,0.452-0.013,0.919-0.038,1.399c-0.026,0.481-0.043,0.76-0.051,0.834H571.541z"/>
	</g>
	<g>
		<path d="M585.658,728.076c-1.207,0-2.114-0.317-2.722-0.955c-0.607-0.637-0.91-1.511-0.91-2.621c0-1.244,0.408-2.199,1.227-2.865
			c0.818-0.667,2.139-1.022,3.96-1.066l2.699-0.045v-0.655c0-0.978-0.207-1.677-0.622-2.1c-0.415-0.422-1.066-0.633-1.955-0.633
			c-0.896,0-1.548,0.152-1.955,0.455c-0.407,0.304-0.651,0.789-0.732,1.455l-2.089-0.188c0.341-2.162,1.948-3.243,4.821-3.243
			c1.511,0,2.647,0.346,3.41,1.038s1.144,1.694,1.144,3.005v5.176c0,0.593,0.078,1.039,0.233,1.339s0.451,0.449,0.889,0.449
			c0.192,0,0.411-0.025,0.655-0.077v1.244c-0.504,0.118-1.019,0.178-1.544,0.178c-0.74,0-1.279-0.194-1.616-0.583
			s-0.527-0.998-0.572-1.827h-0.066c-0.511,0.918-1.105,1.567-1.782,1.949C587.452,727.886,586.628,728.076,585.658,728.076z
			 M586.113,726.577c0.733,0,1.385-0.167,1.955-0.5s1.02-0.79,1.35-1.372c0.329-0.581,0.494-1.179,0.494-1.793v-0.989l-2.188,0.045
			c-0.94,0.015-1.653,0.111-2.138,0.289c-0.485,0.177-0.857,0.451-1.116,0.821c-0.26,0.37-0.389,0.855-0.389,1.455
			c0,0.652,0.176,1.155,0.527,1.511S585.462,726.577,586.113,726.577z"/>
		<path d="M606.112,721.79c0,4.191-1.474,6.286-4.421,6.286c-0.911,0-1.668-0.164-2.271-0.494c-0.604-0.329-1.094-0.86-1.472-1.594
			h-0.022c0,0.229-0.015,0.58-0.044,1.05c-0.03,0.471-0.052,0.742-0.067,0.816h-1.933c0.045-0.399,0.067-1.226,0.067-2.477v-14.007
			h1.999v4.698c0,0.481-0.015,1.048-0.045,1.699h0.045c0.37-0.77,0.86-1.321,1.472-1.654c0.611-0.334,1.368-0.5,2.271-0.5
			c1.518,0,2.634,0.511,3.349,1.532C605.755,718.169,606.112,719.717,606.112,721.79z M604.013,721.856
			c0-1.681-0.222-2.884-0.666-3.61c-0.444-0.726-1.167-1.088-2.166-1.088c-1.126,0-1.946,0.385-2.461,1.155
			c-0.515,0.77-0.771,1.992-0.771,3.665c0,1.577,0.252,2.742,0.755,3.493c0.504,0.752,1.322,1.128,2.455,1.128
			c1.007,0,1.734-0.372,2.183-1.116S604.013,723.53,604.013,721.856z"/>
	</g>
	<g>
		<path d="M610.656,722.268c0,1.377,0.285,2.439,0.855,3.188s1.403,1.122,2.499,1.122c0.866,0,1.561-0.174,2.083-0.522
			c0.521-0.348,0.875-0.788,1.061-1.321l1.755,0.5c-0.718,1.896-2.351,2.843-4.898,2.843c-1.777,0-3.131-0.529-4.06-1.588
			c-0.93-1.059-1.394-2.633-1.394-4.721c0-1.984,0.464-3.506,1.394-4.565c0.929-1.059,2.257-1.588,3.982-1.588
			c3.531,0,5.298,2.129,5.298,6.387v0.267H610.656z M617.165,720.734c-0.11-1.266-0.433-2.189-0.966-2.771
			c-0.533-0.581-1.3-0.871-2.3-0.871c-0.97,0-1.738,0.323-2.305,0.972c-0.566,0.647-0.872,1.538-0.916,2.671H617.165z"/>
		<path d="M629.747,727.854v-7.62c0-0.792-0.078-1.406-0.233-1.844c-0.156-0.437-0.404-0.751-0.744-0.943
			c-0.341-0.193-0.841-0.289-1.5-0.289c-0.963,0-1.722,0.329-2.277,0.988c-0.555,0.659-0.833,1.574-0.833,2.744v6.964h-1.999v-9.452
			c0-1.399-0.022-2.255-0.066-2.566h1.888c0.008,0.037,0.016,0.138,0.022,0.3c0.008,0.163,0.017,0.351,0.028,0.562
			c0.011,0.211,0.023,0.609,0.038,1.194h0.034c0.459-0.83,0.99-1.417,1.594-1.761c0.604-0.345,1.353-0.517,2.249-0.517
			c1.318,0,2.282,0.327,2.894,0.982c0.61,0.656,0.916,1.738,0.916,3.249v8.009H629.747z"/>
	</g>
	<g>
		<path d="M128.125,566.663v5.82h8.73v1.755h-8.73v6.343h-2.122v-15.65h11.118v1.732H128.125z"/>
		<path d="M152.734,576.172c0,1.392-0.507,2.475-1.521,3.248c-1.015,0.774-2.425,1.161-4.232,1.161h-6.354v-15.65h5.687
			c3.672,0,5.509,1.267,5.509,3.799c0,0.926-0.259,1.703-0.778,2.332c-0.518,0.63-1.251,1.052-2.199,1.267
			c1.244,0.148,2.203,0.564,2.877,1.25C152.397,574.263,152.734,575.127,152.734,576.172z M149.691,568.985
			c0-0.845-0.289-1.448-0.866-1.811c-0.578-0.363-1.415-0.545-2.51-0.545h-3.565v4.954h3.565c1.133,0,1.979-0.213,2.538-0.639
			C149.411,570.52,149.691,569.866,149.691,568.985z M150.591,576.005c0-1.844-1.296-2.766-3.888-2.766h-3.954v5.643h4.121
			c1.296,0,2.24-0.241,2.833-0.723C150.294,577.679,150.591,576.96,150.591,576.005z"/>
	</g>
	<g>
		<path d="M174.485,572.75c0,2.614-0.461,4.61-1.383,5.987s-2.283,2.065-4.082,2.065s-3.151-0.685-4.054-2.055
			c-0.903-1.369-1.355-3.369-1.355-5.998c0-2.688,0.438-4.702,1.316-6.042c0.878-1.34,2.264-2.011,4.16-2.011
			c1.844,0,3.204,0.678,4.082,2.033C174.047,568.085,174.485,570.092,174.485,572.75z M172.453,572.75
			c0-2.258-0.261-3.895-0.783-4.909c-0.522-1.015-1.383-1.521-2.583-1.521c-1.229,0-2.112,0.5-2.649,1.499
			c-0.537,1-0.805,2.644-0.805,4.932c0,2.222,0.272,3.848,0.816,4.877s1.409,1.544,2.594,1.544c1.177,0,2.04-0.526,2.588-1.578
			C172.179,576.542,172.453,574.928,172.453,572.75z"/>
		<path d="M188.39,575.482c0,1.651-0.491,2.951-1.472,3.899c-0.981,0.947-2.342,1.421-4.082,1.421c-1.459,0-2.636-0.317-3.532-0.955
			c-0.896-0.637-1.462-1.559-1.7-2.766l2.021-0.233c0.422,1.548,1.507,2.322,3.255,2.322c1.073,0,1.914-0.324,2.521-0.973
			c0.607-0.647,0.911-1.538,0.911-2.671c0-0.985-0.306-1.781-0.917-2.389c-0.611-0.606-1.435-0.91-2.471-0.91
			c-0.541,0-1.044,0.085-1.511,0.255c-0.467,0.171-0.933,0.46-1.399,0.867h-1.955l0.522-8.42h8.897v1.699h-7.075l-0.3,4.965
			c0.866-0.666,1.944-0.999,3.232-0.999c1.54,0,2.768,0.451,3.682,1.354C187.932,572.854,188.39,574.031,188.39,575.482z"/>
	</g>
	<g>
		<path d="M241.68,566.663v5.82h8.73v1.755h-8.73v6.343h-2.122v-15.65h11.118v1.732H241.68z"/>
		<path d="M266.289,576.172c0,1.392-0.507,2.475-1.521,3.248c-1.015,0.774-2.425,1.161-4.232,1.161h-6.354v-15.65h5.687
			c3.672,0,5.509,1.267,5.509,3.799c0,0.926-0.259,1.703-0.778,2.332c-0.518,0.63-1.251,1.052-2.199,1.267
			c1.244,0.148,2.203,0.564,2.877,1.25C265.952,574.263,266.289,575.127,266.289,576.172z M263.246,568.985
			c0-0.845-0.289-1.448-0.866-1.811c-0.578-0.363-1.415-0.545-2.51-0.545h-3.565v4.954h3.565c1.133,0,1.979-0.213,2.538-0.639
			C262.966,570.52,263.246,569.866,263.246,568.985z M264.146,576.005c0-1.844-1.296-2.766-3.888-2.766h-3.954v5.643h4.121
			c1.296,0,2.24-0.241,2.833-0.723C263.849,577.679,264.146,576.96,264.146,576.005z"/>
	</g>
	<g>
		<path d="M288.078,572.75c0,2.614-0.461,4.61-1.383,5.987s-2.283,2.065-4.082,2.065s-3.151-0.685-4.054-2.055
			c-0.903-1.369-1.355-3.369-1.355-5.998c0-2.688,0.438-4.702,1.316-6.042c0.878-1.34,2.264-2.011,4.16-2.011
			c1.844,0,3.204,0.678,4.082,2.033C287.639,568.085,288.078,570.092,288.078,572.75z M286.045,572.75
			c0-2.258-0.261-3.895-0.783-4.909c-0.522-1.015-1.383-1.521-2.583-1.521c-1.229,0-2.112,0.5-2.649,1.499
			c-0.537,1-0.805,2.644-0.805,4.932c0,2.222,0.272,3.848,0.816,4.877s1.409,1.544,2.594,1.544c1.177,0,2.04-0.526,2.588-1.578
			C285.771,576.542,286.045,574.928,286.045,572.75z"/>
		<path d="M301.983,575.461c0,1.651-0.448,2.954-1.344,3.909s-2.132,1.433-3.71,1.433c-1.762,0-3.11-0.655-4.043-1.966
			s-1.399-3.217-1.399-5.72c0-2.711,0.485-4.791,1.455-6.243c0.97-1.451,2.351-2.177,4.143-2.177c2.362,0,3.851,1.062,4.465,3.188
			l-1.91,0.344c-0.393-1.273-1.251-1.91-2.577-1.91c-1.14,0-2.023,0.531-2.649,1.594c-0.626,1.062-0.938,2.601-0.938,4.615
			c0.363-0.674,0.874-1.187,1.533-1.538c0.659-0.353,1.414-0.528,2.266-0.528c1.444,0,2.59,0.452,3.438,1.355
			C301.559,572.721,301.983,573.936,301.983,575.461z M299.95,575.55c0-1.134-0.278-2.007-0.833-2.622
			c-0.556-0.614-1.33-0.922-2.322-0.922c-0.933,0-1.687,0.272-2.26,0.816c-0.574,0.545-0.861,1.294-0.861,2.249
			c0,1.208,0.298,2.196,0.894,2.966c0.596,0.771,1.361,1.155,2.294,1.155c0.962,0,1.718-0.323,2.266-0.972
			C299.676,577.573,299.95,576.683,299.95,575.55z"/>
	</g>
	<g>
		<path d="M355.938,566.663v5.82h8.73v1.755h-8.73v6.343h-2.122v-15.65h11.118v1.732H355.938z"/>
		<path d="M380.547,576.172c0,1.392-0.507,2.475-1.521,3.248c-1.015,0.774-2.425,1.161-4.232,1.161h-6.354v-15.65h5.687
			c3.672,0,5.509,1.267,5.509,3.799c0,0.926-0.259,1.703-0.778,2.332c-0.518,0.63-1.251,1.052-2.199,1.267
			c1.244,0.148,2.203,0.564,2.877,1.25C380.21,574.263,380.547,575.127,380.547,576.172z M377.503,568.985
			c0-0.845-0.289-1.448-0.866-1.811c-0.578-0.363-1.415-0.545-2.51-0.545h-3.565v4.954h3.565c1.133,0,1.979-0.213,2.538-0.639
			C377.224,570.52,377.503,569.866,377.503,568.985z M378.403,576.005c0-1.844-1.296-2.766-3.888-2.766h-3.954v5.643h4.121
			c1.296,0,2.24-0.241,2.833-0.723C378.107,577.679,378.403,576.96,378.403,576.005z"/>
	</g>
	<g>
		<path d="M402.111,572.75c0,2.614-0.461,4.61-1.383,5.987s-2.283,2.065-4.082,2.065s-3.151-0.685-4.054-2.055
			c-0.903-1.369-1.355-3.369-1.355-5.998c0-2.688,0.438-4.702,1.316-6.042c0.878-1.34,2.264-2.011,4.16-2.011
			c1.844,0,3.204,0.678,4.082,2.033C401.673,568.085,402.111,570.092,402.111,572.75z M400.079,572.75
			c0-2.258-0.261-3.895-0.783-4.909c-0.522-1.015-1.383-1.521-2.583-1.521c-1.229,0-2.112,0.5-2.649,1.499
			c-0.537,1-0.805,2.644-0.805,4.932c0,2.222,0.272,3.848,0.816,4.877s1.409,1.544,2.594,1.544c1.177,0,2.04-0.526,2.588-1.578
			C399.805,576.542,400.079,574.928,400.079,572.75z"/>
		<path d="M415.007,566.553c-1.599,2.443-2.729,4.357-3.388,5.742s-1.153,2.751-1.482,4.099c-0.33,1.348-0.494,2.743-0.494,4.188
			h-2.088c0-1.999,0.423-4.104,1.271-6.314c0.848-2.211,2.264-4.756,4.248-7.637h-8.408v-1.699h10.341V566.553z"/>
	</g>
	<g>
		<path d="M473.031,566.663v5.82h8.73v1.755h-8.73v6.343h-2.121v-15.65h11.118v1.732H473.031z"/>
		<path d="M497.64,576.172c0,1.392-0.507,2.475-1.521,3.248c-1.015,0.774-2.425,1.161-4.231,1.161h-6.354v-15.65h5.687
			c3.673,0,5.51,1.267,5.51,3.799c0,0.926-0.26,1.703-0.777,2.332c-0.519,0.63-1.252,1.052-2.199,1.267
			c1.243,0.148,2.202,0.564,2.876,1.25C497.303,574.263,497.64,575.127,497.64,576.172z M494.597,568.985
			c0-0.845-0.289-1.448-0.866-1.811c-0.578-0.363-1.415-0.545-2.511-0.545h-3.565v4.954h3.565c1.133,0,1.979-0.213,2.538-0.639
			C494.317,570.52,494.597,569.866,494.597,568.985z M495.496,576.005c0-1.844-1.296-2.766-3.888-2.766h-3.954v5.643h4.121
			c1.296,0,2.24-0.241,2.832-0.723C495.2,577.679,495.496,576.96,495.496,576.005z"/>
	</g>
	<g>
		<path d="M519.213,572.75c0,2.614-0.461,4.61-1.383,5.987s-2.282,2.065-4.082,2.065s-3.15-0.685-4.054-2.055
			c-0.904-1.369-1.355-3.369-1.355-5.998c0-2.688,0.438-4.702,1.316-6.042c0.877-1.34,2.264-2.011,4.159-2.011
			c1.844,0,3.205,0.678,4.082,2.033C518.774,568.085,519.213,570.092,519.213,572.75z M517.181,572.75
			c0-2.258-0.262-3.895-0.783-4.909c-0.522-1.015-1.383-1.521-2.583-1.521c-1.229,0-2.112,0.5-2.648,1.499
			c-0.537,1-0.806,2.644-0.806,4.932c0,2.222,0.272,3.848,0.816,4.877s1.409,1.544,2.594,1.544c1.177,0,2.04-0.526,2.588-1.578
			C516.906,576.542,517.181,574.928,517.181,572.75z"/>
		<path d="M522.312,580.581v-1.699h3.988v-12.041l-3.532,2.521v-1.888l3.698-2.544h1.844v13.951h3.811v1.699H522.312z"/>
	</g>
	<g>
		<path d="M598.303,580.581l-1.788-4.576h-7.131l-1.799,4.576h-2.2l6.388-15.65h2.41l6.286,15.65H598.303z M592.949,566.53
			l-0.1,0.311c-0.186,0.615-0.459,1.403-0.822,2.366l-1.999,5.143h5.854l-2.011-5.165c-0.207-0.511-0.415-1.088-0.622-1.732
			L592.949,566.53z"/>
		<path d="M603.364,580.581v-9.219c0-0.845-0.022-1.777-0.066-2.8h1.888c0.06,1.363,0.089,2.182,0.089,2.455h0.045
			c0.318-1.029,0.685-1.732,1.1-2.11s1-0.566,1.755-0.566c0.267,0,0.537,0.037,0.811,0.111v1.832
			c-0.267-0.073-0.622-0.11-1.066-0.11c-0.829,0-1.462,0.356-1.899,1.071c-0.437,0.715-0.655,1.738-0.655,3.071v6.265H603.364z"/>
	</g>
	<g>
		<path d="M613.302,574.517c0,1.6,0.252,2.784,0.755,3.554c0.504,0.771,1.263,1.155,2.277,1.155c0.711,0,1.305-0.192,1.782-0.577
			c0.479-0.385,0.772-0.978,0.884-1.777l2.021,0.134c-0.155,1.154-0.648,2.077-1.478,2.766s-1.881,1.032-3.154,1.032
			c-1.682,0-2.964-0.531-3.849-1.594s-1.327-2.611-1.327-4.648c0-2.021,0.443-3.563,1.332-4.626s2.162-1.594,3.821-1.594
			c1.229,0,2.249,0.318,3.061,0.955c0.811,0.637,1.319,1.515,1.527,2.633l-2.056,0.155c-0.104-0.667-0.366-1.196-0.788-1.589
			c-0.422-0.392-1.022-0.588-1.8-0.588c-1.059,0-1.825,0.352-2.299,1.055C613.538,571.666,613.302,572.851,613.302,574.517z"/>
		<path d="M626.28,570.618c0.429-0.785,0.945-1.361,1.549-1.728s1.368-0.55,2.294-0.55c1.303,0,2.264,0.324,2.883,0.972
			c0.618,0.648,0.927,1.734,0.927,3.26v8.009h-2.01v-7.62c0-0.844-0.078-1.472-0.233-1.882c-0.156-0.411-0.411-0.713-0.767-0.905
			c-0.355-0.193-0.848-0.289-1.478-0.289c-0.94,0-1.693,0.326-2.26,0.978c-0.567,0.651-0.851,1.529-0.851,2.632v7.087h-1.999
			v-16.483h1.999v4.287c0,0.452-0.013,0.919-0.038,1.399c-0.026,0.481-0.043,0.76-0.051,0.834H626.28z"/>
		<path d="M638.068,566.008v-1.91h2v1.91H638.068z M638.068,580.581v-12.019h2v12.019H638.068z"/>
		<path d="M649.547,580.581h-2.365l-4.365-12.019h2.132l2.644,7.82c0.097,0.296,0.352,1.174,0.767,2.632l0.389-1.299l0.434-1.312
			l2.732-7.842h2.121L649.547,580.581z"/>
	</g>
	<g>
		<path d="M657.797,574.994c0,1.377,0.285,2.439,0.855,3.188s1.403,1.122,2.499,1.122c0.866,0,1.561-0.174,2.083-0.522
			c0.521-0.348,0.875-0.788,1.061-1.321l1.755,0.5c-0.718,1.896-2.351,2.843-4.898,2.843c-1.777,0-3.131-0.529-4.06-1.588
			c-0.93-1.059-1.394-2.633-1.394-4.721c0-1.984,0.464-3.506,1.394-4.565c0.929-1.059,2.257-1.588,3.982-1.588
			c3.531,0,5.298,2.129,5.298,6.387v0.267H657.797z M664.306,573.461c-0.11-1.266-0.433-2.189-0.966-2.771
			c-0.533-0.581-1.3-0.871-2.3-0.871c-0.97,0-1.738,0.323-2.305,0.972c-0.566,0.647-0.872,1.538-0.916,2.671H664.306z"/>
	</g>
	<g>
		<path d="M689.225,580.714c-1.311,0-2.414-0.47-3.31-1.41c-0.556,0.481-1.188,0.852-1.899,1.11
			c-0.711,0.26-1.455,0.389-2.232,0.389c-1.593,0-2.825-0.383-3.699-1.149s-1.311-1.83-1.311-3.193c0-2.059,1.27-3.646,3.81-4.765
			c-0.244-0.459-0.455-1.004-0.633-1.633c-0.178-0.63-0.267-1.203-0.267-1.722c0-1.111,0.339-1.972,1.017-2.583
			c0.677-0.61,1.638-0.916,2.882-0.916c1.118,0,2.02,0.281,2.705,0.844c0.685,0.563,1.027,1.333,1.027,2.311
			c0,0.874-0.339,1.651-1.017,2.333s-1.854,1.354-3.526,2.021c0.822,1.518,1.906,3.043,3.254,4.576
			c0.837-1.229,1.471-2.747,1.899-4.554l1.611,0.478c-0.467,1.844-1.252,3.58-2.355,5.209c0.711,0.726,1.481,1.089,2.311,1.089
			c0.525,0,0.959-0.06,1.3-0.178v1.499C690.376,580.633,689.854,580.714,689.225,580.714z M684.804,578.171
			c-1.466-1.733-2.647-3.425-3.543-5.076c-1.748,0.74-2.621,1.854-2.621,3.343c0,0.896,0.287,1.605,0.86,2.128
			c0.574,0.521,1.357,0.782,2.35,0.782c0.525,0,1.051-0.102,1.577-0.305C683.952,578.839,684.411,578.549,684.804,578.171z
			 M685.626,567.996c0-0.533-0.186-0.968-0.556-1.305s-0.874-0.506-1.511-0.506c-0.71,0-1.251,0.191-1.621,0.572
			c-0.37,0.382-0.556,0.909-0.556,1.583c0,0.844,0.24,1.747,0.722,2.71c0.971-0.393,1.684-0.733,2.139-1.021
			c0.455-0.289,0.8-0.6,1.033-0.934C685.51,568.763,685.626,568.396,685.626,567.996z"/>
	</g>
	<g>
		<path d="M599.47,605.206c0,1.443-0.565,2.562-1.694,3.354c-1.129,0.793-2.72,1.188-4.771,1.188c-3.813,0-6.024-1.325-6.631-3.976
			l2.055-0.411c0.237,0.94,0.74,1.631,1.511,2.071c0.77,0.44,1.817,0.661,3.144,0.661c1.369,0,2.427-0.235,3.171-0.705
			c0.744-0.471,1.116-1.161,1.116-2.072c0-0.511-0.116-0.926-0.35-1.244s-0.562-0.581-0.983-0.788s-0.926-0.382-1.511-0.522
			s-1.232-0.292-1.943-0.455c-1.237-0.274-2.176-0.548-2.815-0.822c-0.641-0.273-1.146-0.579-1.517-0.916s-0.653-0.731-0.85-1.183
			c-0.196-0.452-0.295-0.971-0.295-1.556c0-1.34,0.513-2.373,1.539-3.099c1.025-0.726,2.493-1.089,4.404-1.089
			c1.776,0,3.136,0.272,4.076,0.816s1.6,1.472,1.977,2.782l-2.088,0.367c-0.229-0.829-0.666-1.432-1.311-1.806
			c-0.645-0.373-1.537-0.561-2.677-0.561c-1.252,0-2.207,0.207-2.866,0.622s-0.988,1.033-0.988,1.854
			c0,0.481,0.128,0.88,0.383,1.194c0.256,0.315,0.624,0.582,1.105,0.8c0.481,0.219,1.44,0.487,2.877,0.806
			c0.481,0.11,0.961,0.224,1.438,0.339c0.478,0.114,0.935,0.251,1.372,0.41c0.437,0.16,0.846,0.347,1.227,0.562
			c0.382,0.215,0.713,0.478,0.994,0.788c0.282,0.312,0.502,0.678,0.661,1.1C599.39,604.14,599.47,604.636,599.47,605.206z"/>
		<path d="M606.113,609.748c-1.207,0-2.114-0.317-2.722-0.955c-0.607-0.637-0.91-1.511-0.91-2.621c0-1.244,0.408-2.199,1.227-2.865
			c0.818-0.667,2.139-1.022,3.96-1.066l2.699-0.045v-0.655c0-0.978-0.207-1.677-0.622-2.1c-0.415-0.422-1.066-0.633-1.955-0.633
			c-0.896,0-1.548,0.152-1.955,0.455c-0.407,0.304-0.651,0.789-0.732,1.455l-2.089-0.188c0.341-2.162,1.948-3.243,4.821-3.243
			c1.511,0,2.647,0.346,3.41,1.038s1.144,1.694,1.144,3.005v5.176c0,0.593,0.078,1.039,0.233,1.339s0.451,0.449,0.889,0.449
			c0.192,0,0.411-0.025,0.655-0.077v1.244c-0.504,0.118-1.019,0.178-1.544,0.178c-0.74,0-1.279-0.194-1.616-0.583
			s-0.527-0.998-0.572-1.827h-0.066c-0.511,0.918-1.105,1.567-1.782,1.949C607.907,609.558,607.083,609.748,606.113,609.748z
			 M606.568,608.249c0.733,0,1.385-0.167,1.955-0.5s1.02-0.79,1.35-1.372c0.329-0.581,0.494-1.179,0.494-1.793v-0.989l-2.188,0.045
			c-0.94,0.015-1.653,0.111-2.138,0.289c-0.485,0.177-0.857,0.451-1.116,0.821c-0.26,0.37-0.389,0.855-0.389,1.455
			c0,0.652,0.176,1.155,0.527,1.511S605.917,608.249,606.568,608.249z"/>
		<path d="M623.697,609.526v-7.62c0-1.162-0.159-1.966-0.478-2.41s-0.893-0.666-1.722-0.666c-0.852,0-1.525,0.326-2.021,0.978
			s-0.744,1.569-0.744,2.755v6.964h-1.988v-9.452c0-1.399-0.022-2.255-0.066-2.566h1.888c0.008,0.037,0.016,0.138,0.022,0.3
			c0.008,0.163,0.017,0.351,0.028,0.562c0.011,0.211,0.023,0.609,0.038,1.194h0.034c0.429-0.852,0.922-1.444,1.477-1.777
			c0.556-0.334,1.233-0.5,2.033-0.5c0.91,0,1.631,0.182,2.16,0.544c0.529,0.363,0.897,0.94,1.105,1.733h0.033
			c0.414-0.808,0.916-1.389,1.505-1.744s1.302-0.533,2.138-0.533c1.215,0,2.098,0.329,2.649,0.988s0.828,1.74,0.828,3.243v8.009
			h-1.978v-7.62c0-1.162-0.159-1.966-0.478-2.41s-0.893-0.666-1.722-0.666c-0.874,0-1.554,0.324-2.038,0.972
			c-0.485,0.648-0.728,1.568-0.728,2.761v6.964H623.697z"/>
		<path d="M643.647,609.526v-7.62c0-1.162-0.159-1.966-0.478-2.41s-0.893-0.666-1.722-0.666c-0.852,0-1.525,0.326-2.021,0.978
			s-0.744,1.569-0.744,2.755v6.964h-1.988v-9.452c0-1.399-0.022-2.255-0.066-2.566h1.888c0.008,0.037,0.016,0.138,0.022,0.3
			c0.008,0.163,0.017,0.351,0.028,0.562c0.011,0.211,0.023,0.609,0.038,1.194h0.034c0.429-0.852,0.922-1.444,1.477-1.777
			c0.556-0.334,1.233-0.5,2.033-0.5c0.91,0,1.631,0.182,2.16,0.544c0.529,0.363,0.897,0.94,1.105,1.733h0.033
			c0.414-0.808,0.916-1.389,1.505-1.744s1.302-0.533,2.138-0.533c1.215,0,2.098,0.329,2.649,0.988s0.828,1.74,0.828,3.243v8.009
			h-1.978v-7.62c0-1.162-0.159-1.966-0.478-2.41s-0.893-0.666-1.722-0.666c-0.874,0-1.554,0.324-2.038,0.972
			c-0.485,0.648-0.728,1.568-0.728,2.761v6.964H643.647z"/>
		<path d="M656.601,609.526v-16.483h1.999v16.483H656.601z"/>
		<path d="M664.609,597.508v7.62c0,0.792,0.078,1.407,0.233,1.844c0.156,0.437,0.403,0.752,0.744,0.944s0.841,0.288,1.5,0.288
			c0.962,0,1.722-0.329,2.277-0.988c0.555-0.659,0.833-1.573,0.833-2.743v-6.965h1.999v9.453c0,1.399,0.022,2.255,0.066,2.565
			h-1.888c-0.008-0.037-0.016-0.137-0.022-0.3c-0.008-0.163-0.017-0.35-0.028-0.561c-0.011-0.212-0.023-0.609-0.038-1.194h-0.034
			c-0.459,0.829-0.99,1.416-1.594,1.761c-0.604,0.344-1.354,0.516-2.249,0.516c-1.318,0-2.282-0.327-2.894-0.982
			c-0.61-0.655-0.916-1.738-0.916-3.249v-8.009H664.609z"/>
		<path d="M683.938,609.526v-7.62c0-0.792-0.078-1.406-0.233-1.844c-0.156-0.437-0.404-0.751-0.744-0.943
			c-0.341-0.193-0.841-0.289-1.5-0.289c-0.963,0-1.722,0.329-2.277,0.988c-0.555,0.659-0.833,1.574-0.833,2.744v6.964h-1.999v-9.452
			c0-1.399-0.022-2.255-0.066-2.566h1.888c0.008,0.037,0.016,0.138,0.022,0.3c0.008,0.163,0.017,0.351,0.028,0.562
			c0.011,0.211,0.023,0.609,0.038,1.194h0.034c0.459-0.83,0.99-1.417,1.594-1.761c0.604-0.345,1.353-0.517,2.249-0.517
			c1.318,0,2.282,0.327,2.894,0.982c0.61,0.656,0.916,1.738,0.916,3.249v8.009H683.938z"/>
		<path d="M694.514,614.247c-1.311,0-2.354-0.258-3.133-0.772c-0.777-0.515-1.277-1.245-1.499-2.193l2.011-0.289
			c0.133,0.556,0.428,0.983,0.883,1.283s1.053,0.45,1.794,0.45c1.991,0,2.987-1.167,2.987-3.499v-1.933h-0.021
			c-0.378,0.771-0.896,1.35-1.556,1.738s-1.429,0.583-2.31,0.583c-1.474,0-2.557-0.488-3.249-1.466s-1.039-2.515-1.039-4.61
			c0-2.125,0.372-3.692,1.116-4.703c0.744-1.012,1.876-1.517,3.394-1.517c0.852,0,1.59,0.194,2.216,0.583s1.109,0.942,1.449,1.661
			h0.022c0-0.223,0.015-0.607,0.045-1.155c0.029-0.548,0.059-0.849,0.089-0.9h1.899c-0.045,0.4-0.067,1.229-0.067,2.488v9.186
			C699.545,612.559,697.868,614.247,694.514,614.247z M697.557,603.518c0-0.978-0.133-1.82-0.399-2.527s-0.643-1.248-1.127-1.622
			c-0.485-0.373-1.035-0.561-1.65-0.561c-1.021,0-1.766,0.37-2.232,1.11c-0.466,0.741-0.699,1.94-0.699,3.6
			c0,1.644,0.218,2.825,0.655,3.543c0.437,0.719,1.185,1.077,2.243,1.077c0.63,0,1.188-0.185,1.678-0.555
			c0.488-0.371,0.866-0.902,1.133-1.595S697.557,604.473,697.557,603.518z"/>
		<path d="M705.145,603.939c0,1.377,0.285,2.439,0.855,3.188s1.403,1.122,2.499,1.122c0.866,0,1.561-0.174,2.083-0.522
			c0.521-0.348,0.875-0.788,1.061-1.321l1.755,0.5c-0.718,1.896-2.351,2.843-4.898,2.843c-1.777,0-3.131-0.529-4.06-1.588
			c-0.93-1.059-1.394-2.633-1.394-4.721c0-1.984,0.464-3.506,1.394-4.565c0.929-1.059,2.257-1.588,3.982-1.588
			c3.531,0,5.298,2.129,5.298,6.387v0.267H705.145z M711.653,602.406c-0.11-1.266-0.433-2.189-0.966-2.771
			c-0.533-0.581-1.3-0.871-2.3-0.871c-0.97,0-1.738,0.323-2.305,0.972c-0.566,0.647-0.872,1.538-0.916,2.671H711.653z"/>
		<path d="M724.895,609.526v-7.62c0-0.792-0.078-1.406-0.233-1.844c-0.156-0.437-0.404-0.751-0.744-0.943
			c-0.341-0.193-0.841-0.289-1.5-0.289c-0.963,0-1.722,0.329-2.277,0.988c-0.555,0.659-0.833,1.574-0.833,2.744v6.964h-1.999v-9.452
			c0-1.399-0.022-2.255-0.066-2.566h1.888c0.008,0.037,0.016,0.138,0.022,0.3c0.008,0.163,0.017,0.351,0.028,0.562
			c0.011,0.211,0.023,0.609,0.038,1.194h0.034c0.459-0.83,0.99-1.417,1.594-1.761c0.604-0.345,1.353-0.517,2.249-0.517
			c1.318,0,2.282,0.327,2.894,0.982c0.61,0.656,0.916,1.738,0.916,3.249v8.009H724.895z"/>
	</g>
	<g>
		<defs>
			<rect id="SVGID_3_" y="1" width="799.88" height="799.8"/>
		</defs>
		<clipPath id="SVGID_4_">
			<use xlink:href="#SVGID_3_"  overflow="visible"/>
		</clipPath>
		<g clip-path="url(#SVGID_4_)">
			<path fill="none" stroke="#000000" stroke-width="0.5" stroke-miterlimit="4.331" d="M69.454,219.182
				c0,1.444-0.459,2.562-1.377,3.354c-0.918,0.792-2.229,1.188-3.932,1.188c-1.584,0-2.849-0.357-3.793-1.072
				c-0.944-0.715-1.505-1.772-1.683-3.171l2.066-0.188c0.267,1.851,1.403,2.777,3.41,2.777c1.007,0,1.797-0.248,2.372-0.745
				c0.574-0.496,0.861-1.233,0.861-2.21c0-0.852-0.328-1.517-0.983-1.994c-0.656-0.478-1.602-0.716-2.838-0.716h-1.133v-1.733h1.088
				c1.096,0,1.946-0.239,2.549-0.716s0.905-1.139,0.905-1.982c0-0.837-0.246-1.498-0.739-1.983
				c-0.492-0.485-1.224-0.728-2.193-0.728c-0.881,0-1.594,0.226-2.138,0.678c-0.544,0.452-0.861,1.088-0.95,1.91l-2.011-0.155
				c0.148-1.281,0.679-2.281,1.594-2.999c0.914-0.718,2.09-1.078,3.526-1.078c1.57,0,2.79,0.365,3.66,1.094
				c0.87,0.729,1.305,1.746,1.305,3.049c0,1-0.279,1.812-0.838,2.438c-0.559,0.625-1.372,1.049-2.438,1.271v0.044
				c1.17,0.126,2.081,0.519,2.732,1.177C69.127,217.353,69.454,218.183,69.454,219.182z"/>
		</g>
	</g>
	<g>
		<path d="M69.454,219.182c0,1.444-0.459,2.562-1.377,3.354c-0.918,0.792-2.229,1.188-3.932,1.188c-1.584,0-2.849-0.357-3.793-1.072
			c-0.944-0.715-1.505-1.772-1.683-3.171l2.066-0.188c0.267,1.851,1.403,2.777,3.41,2.777c1.007,0,1.797-0.248,2.372-0.745
			c0.574-0.496,0.861-1.233,0.861-2.21c0-0.852-0.328-1.517-0.983-1.994c-0.656-0.478-1.602-0.716-2.838-0.716h-1.133v-1.733h1.088
			c1.096,0,1.946-0.239,2.549-0.716s0.905-1.139,0.905-1.982c0-0.837-0.246-1.498-0.739-1.983c-0.492-0.485-1.224-0.728-2.193-0.728
			c-0.881,0-1.594,0.226-2.138,0.678c-0.544,0.452-0.861,1.088-0.95,1.91l-2.011-0.155c0.148-1.281,0.679-2.281,1.594-2.999
			c0.914-0.718,2.09-1.078,3.526-1.078c1.57,0,2.79,0.365,3.66,1.094c0.87,0.729,1.305,1.746,1.305,3.049
			c0,1-0.279,1.812-0.838,2.438c-0.559,0.625-1.372,1.049-2.438,1.271v0.044c1.17,0.126,2.081,0.519,2.732,1.177
			C69.127,217.353,69.454,218.183,69.454,219.182z"/>
	</g>
	<g>
		<defs>
			<rect id="SVGID_5_" y="1" width="799.88" height="799.8"/>
		</defs>
		<clipPath id="SVGID_6_">
			<use xlink:href="#SVGID_5_"  overflow="visible"/>
		</clipPath>
		<g clip-path="url(#SVGID_6_)">
			<path fill="none" stroke="#000000" stroke-width="0.5" stroke-miterlimit="4.331" d="M58.946,324.511V323.1
				c0.377-0.866,0.839-1.631,1.383-2.293c0.544-0.663,1.116-1.263,1.716-1.8c0.6-0.537,1.194-1.035,1.783-1.494
				c0.588-0.459,1.12-0.918,1.594-1.377c0.474-0.459,0.857-0.94,1.15-1.444c0.292-0.503,0.438-1.074,0.438-1.71
				c0-0.859-0.252-1.525-0.755-2c-0.503-0.474-1.203-0.711-2.099-0.711c-0.852,0-1.553,0.231-2.105,0.694s-0.875,1.113-0.972,1.949
				l-2.044-0.189c0.148-1.251,0.679-2.247,1.594-2.988c0.915-0.74,2.09-1.111,3.527-1.111c1.577,0,2.79,0.372,3.638,1.117
				c0.848,0.744,1.271,1.801,1.271,3.171c0,0.607-0.139,1.211-0.417,1.811c-0.277,0.6-0.69,1.2-1.238,1.799
				c-0.548,0.6-1.596,1.529-3.144,2.788c-0.852,0.696-1.529,1.324-2.033,1.883c-0.503,0.559-0.866,1.098-1.088,1.616h8.164v1.699
				H58.946z"/>
		</g>
	</g>
	<g>
		<path d="M58.946,324.511V323.1c0.377-0.866,0.839-1.631,1.383-2.293c0.544-0.663,1.116-1.263,1.716-1.8
			c0.6-0.537,1.194-1.035,1.783-1.494c0.588-0.459,1.12-0.918,1.594-1.377c0.474-0.459,0.857-0.94,1.15-1.444
			c0.292-0.503,0.438-1.074,0.438-1.71c0-0.859-0.252-1.525-0.755-2c-0.503-0.474-1.203-0.711-2.099-0.711
			c-0.852,0-1.553,0.231-2.105,0.694s-0.875,1.113-0.972,1.949l-2.044-0.189c0.148-1.251,0.679-2.247,1.594-2.988
			c0.915-0.74,2.09-1.111,3.527-1.111c1.577,0,2.79,0.372,3.638,1.117c0.848,0.744,1.271,1.801,1.271,3.171
			c0,0.607-0.139,1.211-0.417,1.811c-0.277,0.6-0.69,1.2-1.238,1.799c-0.548,0.6-1.596,1.529-3.144,2.788
			c-0.852,0.696-1.529,1.324-2.033,1.883c-0.503,0.559-0.866,1.098-1.088,1.616h8.164v1.699H58.946z"/>
	</g>
	<g>
		<defs>
			<rect id="SVGID_7_" y="1" width="799.88" height="799.8"/>
		</defs>
		<clipPath id="SVGID_8_">
			<use xlink:href="#SVGID_7_"  overflow="visible"/>
		</clipPath>
		<g clip-path="url(#SVGID_8_)">
			<path fill="none" stroke="#000000" stroke-width="0.5" stroke-miterlimit="4.331" d="M59.535,425.503v-1.699h3.987v-12.041
				l-3.532,2.521v-1.888l3.699-2.544h1.844v13.951h3.81v1.699H59.535z"/>
		</g>
	</g>
	<g>
		<path d="M59.535,425.503v-1.699h3.987v-12.041l-3.532,2.521v-1.888l3.699-2.544h1.844v13.951h3.81v1.699H59.535z"/>
	</g>
	<g>
		<defs>
			<rect id="SVGID_9_" y="1" width="799.88" height="799.8"/>
		</defs>
		<clipPath id="SVGID_10_">
			<use xlink:href="#SVGID_9_"  overflow="visible"/>
		</clipPath>
		<g clip-path="url(#SVGID_10_)">
			<path fill="none" stroke="#000000" stroke-width="0.5" stroke-miterlimit="4.331" d="M69.564,518.672
				c0,2.614-0.461,4.61-1.383,5.987s-2.283,2.065-4.082,2.065s-3.151-0.685-4.054-2.055c-0.903-1.369-1.355-3.369-1.355-5.998
				c0-2.688,0.438-4.702,1.316-6.042c0.878-1.34,2.264-2.011,4.16-2.011c1.844,0,3.204,0.678,4.082,2.033
				C69.126,514.007,69.564,516.014,69.564,518.672z M67.532,518.672c0-2.258-0.261-3.895-0.783-4.909
				c-0.522-1.015-1.383-1.521-2.583-1.521c-1.229,0-2.112,0.5-2.649,1.499c-0.537,1-0.805,2.644-0.805,4.932
				c0,2.222,0.272,3.848,0.816,4.877s1.409,1.544,2.594,1.544c1.177,0,2.04-0.526,2.588-1.578
				C67.258,522.464,67.532,520.85,67.532,518.672z"/>
		</g>
	</g>
	<g>
		<path d="M69.564,518.672c0,2.614-0.461,4.61-1.383,5.987s-2.283,2.065-4.082,2.065s-3.151-0.685-4.054-2.055
			c-0.903-1.369-1.355-3.369-1.355-5.998c0-2.688,0.438-4.702,1.316-6.042c0.878-1.34,2.264-2.011,4.16-2.011
			c1.844,0,3.204,0.678,4.082,2.033C69.126,514.007,69.564,516.014,69.564,518.672z M67.532,518.672
			c0-2.258-0.261-3.895-0.783-4.909c-0.522-1.015-1.383-1.521-2.583-1.521c-1.229,0-2.112,0.5-2.649,1.499
			c-0.537,1-0.805,2.644-0.805,4.932c0,2.222,0.272,3.848,0.816,4.877s1.409,1.544,2.594,1.544c1.177,0,2.04-0.526,2.588-1.578
			C67.258,522.464,67.532,520.85,67.532,518.672z"/>
	</g>
	<path fill="none" stroke="#000000" d="M59.6,742.8h681.28 M77.88,521.782h609 M92.385,536.8V206.952"/>
	<polygon fill="#FFFFFF" points="119.308,417.282 119.308,517.282 194.308,517.282 194.308,417.282 119.308,417.282 	"/>
	<polygon fill="none" stroke="#000000" stroke-width="10" points="119.308,417.282 119.308,517.282 194.308,517.282 
		194.308,417.282 119.308,417.282 	"/>
	<polygon fill="#FFFFFF" points="232.714,317.282 232.714,517.282 307.714,517.282 307.714,317.282 232.714,317.282 	"/>
	<polygon fill="none" stroke="#000000" stroke-width="10" points="232.714,317.282 232.714,517.282 307.714,517.282 
		307.714,317.282 232.714,317.282 	"/>
	<polygon fill="#FFFFFF" points="464.485,217.282 464.485,517.282 539.486,517.282 539.486,217.282 464.485,217.282 	"/>
	<polygon fill="none" stroke="#000000" stroke-width="10" points="464.485,217.282 464.485,517.282 539.486,517.282 
		539.486,217.282 464.485,217.282 	"/>
	<polygon fill="#FFFFFF" points="346.828,317.282 346.828,517.282 421.828,517.282 421.828,317.282 346.828,317.282 	"/>
	<polygon fill="none" stroke="#000000" stroke-width="10" points="346.828,317.282 346.828,517.282 421.828,517.282 
		421.828,317.282 346.828,317.282 	"/>
	<polygon fill="#FFFFFF" points="580.017,217.282 580.017,517.282 655.017,517.282 655.017,217.282 580.017,217.282 	"/>
	<polygon fill="none" stroke="#000000" stroke-width="10" points="580.017,217.282 580.017,517.282 655.017,517.282 
		655.017,217.282 580.017,217.282 	"/>
</g>
</svg>
