<?xml version="1.0" encoding="utf-8"?>
<!-- Generator: Adobe Illustrator 20.0.0, SVG Export Plug-In . SVG Version: 6.00 Build 0)  -->
<svg version="1.1" id="Ebene_1" xmlns="http://www.w3.org/2000/svg" xmlns:xlink="http://www.w3.org/1999/xlink" x="0px" y="0px"
	 viewBox="0 0 588 925" style="enable-background:new 0 0 588 925;" xml:space="preserve">
<style type="text/css">
	.st0{fill:#ECECEC;}
	.st1{clip-path:url(#SVGID_2_);}
	.st2{clip-path:url(#SVGID_4_);}
	.st3{clip-path:url(#SVGID_6_);fill:none;stroke:#1C1C1C;stroke-width:2.216;stroke-miterlimit:10;}
	.st4{clip-path:url(#SVGID_6_);fill:#868686;}
	.st5{clip-path:url(#SVGID_6_);fill:#595959;}
	.st6{clip-path:url(#SVGID_6_);fill:none;stroke:#1C1C1C;stroke-width:1.108;stroke-miterlimit:10;}
	.st7{clip-path:url(#SVGID_6_);fill:#B1B1B1;}
	.st8{fill:none;stroke:#1C1C1C;stroke-width:2.216;stroke-miterlimit:10;}
	.st9{clip-path:url(#SVGID_8_);fill:#1C1C1C;}
	.st10{clip-path:url(#SVGID_8_);fill:#868686;}
	.st11{clip-path:url(#SVGID_8_);fill:none;stroke:#1C1C1C;stroke-width:1.108;stroke-miterlimit:10;}
	.st12{clip-path:url(#SVGID_8_);fill:none;stroke:#1C1C1C;stroke-width:5.541;stroke-miterlimit:10;}
	.st13{fill:#575757;}
	.st14{fill:none;stroke:#1C1C1C;stroke-width:1.108;stroke-miterlimit:10;}
	.st15{clip-path:url(#SVGID_10_);fill:#868686;}
	.st16{clip-path:url(#SVGID_10_);fill:none;stroke:#1C1C1C;stroke-width:2.216;stroke-miterlimit:10;}
	.st17{clip-path:url(#SVGID_10_);fill:#6B6B6B;}
	.st18{clip-path:url(#SVGID_10_);fill:#C6C6C6;}
	.st19{clip-path:url(#SVGID_10_);fill:none;stroke:#1C1C1C;stroke-width:3.325;stroke-miterlimit:10;}
	.st20{clip-path:url(#SVGID_12_);fill:#B1B1B1;}
	.st21{clip-path:url(#SVGID_12_);fill:none;stroke:#1C1C1C;stroke-width:2.216;stroke-miterlimit:10;}
	.st22{clip-path:url(#SVGID_12_);fill:none;stroke:#1C1C1C;stroke-width:1.108;stroke-miterlimit:10;}
	.st23{fill:#6B6B6B;}
	.st24{fill:none;stroke:#1C1C1C;stroke-width:5.541;stroke-miterlimit:10;}
	.st25{clip-path:url(#SVGID_14_);fill:#F4F4F4;}
	.st26{clip-path:url(#SVGID_14_);fill:none;stroke:#1C1C1C;stroke-width:2.216;stroke-miterlimit:10;}
	.st27{clip-path:url(#SVGID_14_);fill:#575757;}
	.st28{clip-path:url(#SVGID_14_);fill:none;stroke:#1C1C1C;stroke-width:6.649;stroke-miterlimit:10;}
	.st29{fill:#868686;}
	.st30{fill:none;stroke:#1C1C1C;stroke-width:3.325;stroke-miterlimit:10;}
	.st31{fill:#1C1C1C;}
	.st32{fill:#DFDFDF;}
</style>
<rect x="0.3" y="197.1" class="st0" width="588" height="727.9"/>
<path d="M28,72h45.3v71H28V72z M0.3,46.5V214H28v-45.8h73V46.5H0.3z"/>
<g>
	<defs>
		<rect id="SVGID_1_" x="0.3" width="588" height="972"/>
	</defs>
	<clipPath id="SVGID_2_">
		<use xlink:href="#SVGID_1_"  style="overflow:visible;"/>
	</clipPath>
	<path class="st1" d="M212.8,45.8v122.4h-27.7v-11.5c-5.9,9.1-17.1,14-31.3,14c-20.6,0-39.7-16.2-39.7-40.4V45.8h27.7v78.3
		c0.7,13.5,7.8,19.6,20.1,19.6c13.7,0,23.3-10.5,23.3-28.9v-69H212.8z"/>
	<path class="st1" d="M324.7,130.7c-0.2,26.4-20.1,39.9-50.7,39.9c-33.1,0-50.7-22.5-52.1-43.8h27.9c1.2,11,12.2,17.6,22.8,17.6
		c9.5,0,22,0,22-12c0-13.2-20.1-13.2-29.6-15.9c-9.8-2.7-38.7-9.3-38.4-36.2c0.2-22.8,20.3-37,48.5-37c28.9,0,49.7,14,49.9,41.1H297
		c-0.2-10.5-8.8-15.9-21.3-15.9c-11,0-19.8,1.7-19.8,11c0,9.5,24,13.5,34,16.6C305.4,101.1,325,111.4,324.7,130.7"/>
	<path class="st1" d="M432.7,84.5v83.7H405V90.8c-0.7-11.8-5.9-20.8-19.3-20.8c-13,0-22.5,7.8-24,26.2v72H334V0h27.7v58
		c6.6-9.3,18.9-14.7,32.6-14.7C415.5,43.3,432.7,60.2,432.7,84.5"/>
	<path class="st1" d="M81.9,277.5v26.3h0c0.1,3.4,0.2,6.5,0.2,10.4c0,12.2-12.2,14.9-17.6,14.9c-10.3,0-17.1-5.9-17.1-14
		c0-5.9,1.5-16.9,21.1-17.4h1.8v-20.3l-3.6,0c-15.4-0.7-19.3-5.9-19.3-12c0-9.3,6.1-13.2,17.1-13.2c6.1,0,11,2,14,5.6L99,240.9
		c-8.8-9.3-21.8-14-35-14c-28.2,0-45,15.7-45.3,38.4c-0.2,14.2,7.1,19.3,15.2,23.7c-8.1,4.4-15.4,11.8-15.2,26
		c0.2,22.8,17.9,39.2,46,39.2c24.5,0,43.6-15.7,43.6-35.7c0-6.4-0.5-14-0.7-20.6l17.6-0.1v-20.2L81.9,277.5z"/>
</g>
<path d="M166.5,323.2h45.3v-71h-45.3V323.2z M138.8,394.2V226.7h100.6v121.7h-73v45.8H138.8z"/>
<g>
	<defs>
		<rect id="SVGID_3_" x="0.3" width="588" height="972"/>
	</defs>
	<clipPath id="SVGID_4_">
		<use xlink:href="#SVGID_3_"  style="overflow:visible;"/>
	</clipPath>
	<path class="st2" d="M351.3,226v122.4h-27.7v-11.5c-5.9,9.1-17.1,14-31.3,14c-20.6,0-39.7-16.2-39.7-40.4V226h27.7v78.3
		c0.7,13.5,7.8,19.6,20.1,19.6c13.7,0,23.3-10.5,23.3-28.9v-69H351.3z"/>
</g>
<rect x="364.5" y="180.2" width="27.7" height="168.2"/>
<rect x="405.4" y="180.2" width="27.7" height="168.2"/>
<g>
	<defs>
		<rect id="SVGID_5_" x="0.3" width="588" height="972"/>
	</defs>
	<clipPath id="SVGID_6_">
		<use xlink:href="#SVGID_5_"  style="overflow:visible;"/>
	</clipPath>
	<path class="st3" d="M234.4,650c1.6,1,0.7,6.3,2.3,7.3c1.6,1,5.8-2.5,7.4-1.5c1.7,0.9,0.9,6.3,2.5,7.2c1.7,0.9,5.7-2.7,7.4-1.9
		c1.7,0.9,1.2,6.2,2.9,7c1.7,0.8,5.5-3.1,7.2-2.4c1.8,0.7,1.7,6.1,3.5,6.8c1.8,0.6,5.2-3.6,7-3c1.8,0.5,2.3,5.9,4.1,6.4
		c1.8,0.4,4.7-4.1,6.6-3.8c1.9,0.3,3,5.6,4.9,5.8c1.9,0.2,4.1-4.7,6-4.6c1.9,0.1,3.7,5.1,5.7,5.1c1.9-0.1,3.4-5.2,5.3-5.4
		c1.9-0.2,4.4,4.6,6.3,4.2c1.8-0.3,2.7-5.6,4.5-6.1c1.8-0.4,4.9,4,6.8,3.4c1.8-0.5,2-5.9,3.8-6.6c1.7-0.6,5.3,3.4,7.1,2.6
		c1.7-0.7,1.4-6.1,3.1-6.9c1.7-0.8,5.6,2.9,7.3,2c1.6-0.9,0.9-6.2,2.5-7.2 M340.5,766.4c1.3-1.3,6.1,1,7.3-0.2
		c1.3-1.3-1-6.1,0.2-7.3c1.3-1.3,6.1,1,7.3-0.3c1.3-1.3-1.1-6.1,0.1-7.3c1.3-1.3,6.2,0.9,7.3-0.4c1.3-1.3-1.2-6.1,0-7.3
		c1.2-1.3,6.2,0.8,7.3-0.5c1.2-1.4-1.4-6-0.2-7.3c1.2-1.4,6.2,0.6,7.3-0.7c1.2-1.4-1.6-6-0.4-7.3c1.1-1.4,6.2,0.4,7.3-0.9
		c1.1-1.4-1.8-5.9-0.6-7.3c1.1-1.4,6.2,0.3,7.3-1.1c1.1-1.4-1.9-5.8-0.8-7.3c1-1.4,6.1,0.3,7.2-1.2c1-1.4-1.9-5.8-0.8-7.3
		c1-1.4,6.1,0.2,7.2-1.2c1-1.4-1.9-5.8-0.8-7.3c1-1.4,6.1,0.2,7.2-1.2c1-1.4-1.9-5.8-0.8-7.3c1-1.4,6.1,0.3,7.2-1.2
		c1-1.4-1.9-5.9-0.8-7.3 M168.6,673.6c0.6,1.8-3.6,5.1-3,6.7c0.6,1.8,6,1.8,6.5,3.4c0.6,1.8-3.6,5.1-3,6.7c0.6,1.8,6,1.8,6.5,3.4
		c0.6,1.8-3.5,5.1-2.9,6.8c0.6,1.8,6,1.7,6.6,3.3c0.7,1.8-3.4,5.2-2.8,6.8c0.7,1.7,6,1.5,6.7,3.1c0.7,1.7-3.2,5.4-2.5,7
		c0.8,1.7,6.1,1.1,6.9,2.7c0.8,1.6-2.8,5.6-2,7.1c0.9,1.6,6.1,0.6,7.1,2.1c0.9,1.5-2.4,5.7-1.4,7.2c1,1.4,6.1,0.1,7.2,1.6
		c1,1.4-2.1,5.8-0.9,7.3c1,1.4,6.1-0.2,7.3,1.3c1,1.4-1.9,5.9-0.7,7.3c1.1,1.4,6.1-0.3,7.3,1.2c1.1,1.4-1.8,5.9-0.7,7.3
		c1.1,1.4,6.1-0.3,7.3,1.1c1.1,1.4-1.8,5.9-0.7,7.3c1.1,1.4,6.2-0.3,7.3,1.2"/>
	<path class="st4" d="M228,618.8c0.5,3.9-2.3,7.1-6.2,7.1H77.3c-3.9,0-6.7-3.2-6.2-7.1l12.7-93.2c0.5-3.9,4.2-7.1,8.1-7.1h115.4
		c3.9,0,7.6,3.2,8.1,7.1L228,618.8z"/>
	<path class="st3" d="M228,618.8c0.5,3.9-2.3,7.1-6.2,7.1H77.3c-3.9,0-6.7-3.2-6.2-7.1l12.7-93.2c0.5-3.9,4.2-7.1,8.1-7.1h115.4
		c3.9,0,7.6,3.2,8.1,7.1L228,618.8z"/>
	<path class="st5" d="M201.7,619.4H97.4c-2.9,0-5.2-2.3-5.2-5.2v-78c0-2.9,2.3-5.2,5.2-5.2h104.3c2.9,0,5.2,2.3,5.2,5.2v78
		C206.9,617,204.6,619.4,201.7,619.4"/>
	<path class="st6" d="M201.7,619.4H97.4c-2.9,0-5.2-2.3-5.2-5.2v-78c0-2.9,2.3-5.2,5.2-5.2h104.3c2.9,0,5.2,2.3,5.2,5.2v78
		C206.9,617,204.6,619.4,201.7,619.4z"/>
	<path class="st7" d="M171.7,601.2h-67.5c-2.4,0-4.4-2-4.4-4.4V543c0-2.4,2-4.4,4.4-4.4h67.5c2.4,0,4.4,2,4.4,4.4v53.8
		C176.1,599.2,174.1,601.2,171.7,601.2"/>
	<path class="st6" d="M171.7,601.2h-67.5c-2.4,0-4.4-2-4.4-4.4V543c0-2.4,2-4.4,4.4-4.4h67.5c2.4,0,4.4,2,4.4,4.4v53.8
		C176.1,599.2,174.1,601.2,171.7,601.2z"/>
</g>
<line class="st8" x1="99.4" y1="610" x2="129.1" y2="610"/>
<g>
	<defs>
		<rect id="SVGID_7_" x="0.3" width="588" height="972"/>
	</defs>
	<clipPath id="SVGID_8_">
		<use xlink:href="#SVGID_7_"  style="overflow:visible;"/>
	</clipPath>
	<path class="st9" d="M133.9,613.5h-3.6c-1.2,0-2.2-1-2.2-2.2v-1.5c0-1.2,1-2.2,2.2-2.2h3.6c1.2,0,2.2,1,2.2,2.2v1.5
		C136.1,612.5,135.1,613.5,133.9,613.5"/>
	<path class="st10" d="M202.8,542.3c0,2.5-2,4.5-4.5,4.5c-2.5,0-4.5-2-4.5-4.5c0-2.5,2-4.5,4.5-4.5
		C200.8,537.8,202.8,539.8,202.8,542.3"/>
	<circle class="st11" cx="198.3" cy="542.3" r="4.5"/>
	<path class="st10" d="M202.8,559.1c0,2.5-2,4.5-4.5,4.5c-2.5,0-4.5-2-4.5-4.5c0-2.5,2-4.5,4.5-4.5
		C200.8,554.6,202.8,556.6,202.8,559.1"/>
	<circle class="st11" cx="198.3" cy="559.1" r="4.5"/>
	<path class="st10" d="M202.8,575.3c0,2.5-2,4.5-4.5,4.5c-2.5,0-4.5-2-4.5-4.5c0-2.5,2-4.5,4.5-4.5
		C200.8,570.9,202.8,572.9,202.8,575.3"/>
	<circle class="st11" cx="198.3" cy="575.3" r="4.5"/>
	<path class="st10" d="M241.6,672.7H57.5c-4.4,0-8.1-3.2-8.1-7.2l4.8-31.8c0-3.9,3.6-7.2,8.1-7.2h174.2c4.4,0,8.1,3.2,8.1,7.2
		l5.1,31.8C249.7,669.5,246,672.7,241.6,672.7"/>
	<path class="st12" d="M241.6,672.7H57.5c-4.4,0-8.1-3.2-8.1-7.2l4.8-31.8c0-3.9,3.6-7.2,8.1-7.2h174.2c4.4,0,8.1,3.2,8.1,7.2
		l5.1,31.8C249.7,669.5,246,672.7,241.6,672.7z"/>
</g>
<path class="st8" d="M195,634.3v30.4 M189.6,634.3v30.4 M184.3,634.3v30.4 M210.9,634.3v30.4 M205.6,634.3v30.4 M200.3,634.3v30.4
	 M226.9,634.3v30.4 M221.6,634.3v30.4 M216.3,634.3v30.4"/>
<rect x="75.6" y="633.5" class="st13" width="65.5" height="32.7"/>
<rect x="75.6" y="633.5" class="st14" width="65.5" height="32.7"/>
<g>
	<defs>
		<rect id="SVGID_9_" x="0.3" width="588" height="972"/>
	</defs>
	<clipPath id="SVGID_10_">
		<use xlink:href="#SVGID_9_"  style="overflow:visible;"/>
	</clipPath>
	<path class="st15" d="M354.6,858.3H224.3c-4.3,0-7.9-3.5-7.9-7.9v-86.4c0-4.3,3.5-7.9,7.9-7.9h130.3c4.3,0,7.9,3.5,7.9,7.9v86.4
		C362.5,854.8,359,858.3,354.6,858.3"/>
	<path class="st16" d="M354.6,858.3H224.3c-4.3,0-7.9-3.5-7.9-7.9v-86.4c0-4.3,3.5-7.9,7.9-7.9h130.3c4.3,0,7.9,3.5,7.9,7.9v86.4
		C362.5,854.8,359,858.3,354.6,858.3z"/>
	<path class="st17" d="M351.1,839.9H226.2c-2.6,0-4.7-2.1-4.7-4.7v-69.1c0-2.6,2.1-4.7,4.7-4.7h124.9c2.6,0,4.7,2.1,4.7,4.7v69.1
		C355.8,837.8,353.7,839.9,351.1,839.9"/>
	<path class="st18" d="M298.9,835.1h-62.7c-5.3,0-9.6-4.3-9.6-9.6v-49.3c0-5.3,4.3-9.6,9.6-9.6h62.7c5.3,0,9.6,4.3,9.6,9.6v49.3
		C308.5,830.8,304.2,835.1,298.9,835.1"/>
	<path class="st19" d="M298.9,835.1h-62.7c-5.3,0-9.6-4.3-9.6-9.6v-49.3c0-5.3,4.3-9.6,9.6-9.6h62.7c5.3,0,9.6,4.3,9.6,9.6v49.3
		C308.5,830.8,304.2,835.1,298.9,835.1z"/>
</g>
<path class="st8" d="M309.1,843.9v8 M304.8,843.9v8 M300.4,843.9v8 M296.1,843.9v8 M291.8,843.9v8 M287.4,843.9v8 M283.1,843.9v8
	 M278.8,843.9v8 M274.4,843.9v8 M270.1,843.9v8 M265.7,843.9v8 M261.4,843.9v8 M257.1,843.9v8 M252.7,843.9v8 M248.4,843.9v8
	 M244.1,843.9v8 M239.7,843.9v8 M235.4,843.9v8 M231.1,843.9v8 M226.7,843.9v8 M222.4,843.9v8"/>
<path class="st14" d="M334.1,765.9h18 M334.1,768.8h18 M334.1,771.8h18 M334.1,774.7h18 M334.1,777.6h18 M334.1,780.5h18
	 M334.1,783.5h18 M334.1,786.4h18 M334.1,789.3h18 M334.1,792.3h18 M334.1,795.2h18 M334.1,798.1h18 M334.1,801h18 M334.1,804h18
	 M334.1,806.9h18 M334.1,809.8h18 M334.1,812.8h18 M334.1,815.7h18 M334.1,818.6h18 M334.1,821.6h18 M334.1,824.5h18"/>
<g>
	<defs>
		<rect id="SVGID_11_" x="0.3" width="588" height="972"/>
	</defs>
	<clipPath id="SVGID_12_">
		<use xlink:href="#SVGID_11_"  style="overflow:visible;"/>
	</clipPath>
	<path class="st20" d="M352,852h-6.7c-1.7,0-3.1-1.4-3.1-3.1v-1.6c0-1.7,1.4-3.1,3.1-3.1h6.7c1.7,0,3.1,1.4,3.1,3.1v1.6
		C355.1,850.6,353.7,852,352,852"/>
	<path class="st21" d="M352,852h-6.7c-1.7,0-3.1-1.4-3.1-3.1v-1.6c0-1.7,1.4-3.1,3.1-3.1h6.7c1.7,0,3.1,1.4,3.1,3.1v1.6
		C355.1,850.6,353.7,852,352,852z"/>
	<path class="st20" d="M325.1,773.1h-6.7c-1.7,0-3.1-1.4-3.1-3.1v-1.6c0-1.7,1.4-3.1,3.1-3.1h6.7c1.7,0,3.1,1.4,3.1,3.1v1.6
		C328.2,771.7,326.8,773.1,325.1,773.1"/>
	<path class="st22" d="M325.1,773.1h-6.7c-1.7,0-3.1-1.4-3.1-3.1v-1.6c0-1.7,1.4-3.1,3.1-3.1h6.7c1.7,0,3.1,1.4,3.1,3.1v1.6
		C328.2,771.7,326.8,773.1,325.1,773.1z"/>
	<path class="st20" d="M325.1,783.7h-6.7c-1.7,0-3.1-1.4-3.1-3.1v-1.6c0-1.7,1.4-3.1,3.1-3.1h6.7c1.7,0,3.1,1.4,3.1,3.1v1.6
		C328.2,782.4,326.8,783.7,325.1,783.7"/>
	<path class="st22" d="M325.1,783.7h-6.7c-1.7,0-3.1-1.4-3.1-3.1v-1.6c0-1.7,1.4-3.1,3.1-3.1h6.7c1.7,0,3.1,1.4,3.1,3.1v1.6
		C328.2,782.4,326.8,783.7,325.1,783.7z"/>
	<path class="st20" d="M325.1,794.2h-6.7c-1.7,0-3.1-1.4-3.1-3.1v-1.6c0-1.7,1.4-3.1,3.1-3.1h6.7c1.7,0,3.1,1.4,3.1,3.1v1.6
		C328.2,792.8,326.8,794.2,325.1,794.2"/>
	<path class="st22" d="M325.1,794.2h-6.7c-1.7,0-3.1-1.4-3.1-3.1v-1.6c0-1.7,1.4-3.1,3.1-3.1h6.7c1.7,0,3.1,1.4,3.1,3.1v1.6
		C328.2,792.8,326.8,794.2,325.1,794.2z"/>
	<path class="st20" d="M325.1,805h-6.7c-1.7,0-3.1-1.4-3.1-3.1v-1.6c0-1.7,1.4-3.1,3.1-3.1h6.7c1.7,0,3.1,1.4,3.1,3.1v1.6
		C328.2,803.7,326.8,805,325.1,805"/>
	<path class="st22" d="M325.1,805h-6.7c-1.7,0-3.1-1.4-3.1-3.1v-1.6c0-1.7,1.4-3.1,3.1-3.1h6.7c1.7,0,3.1,1.4,3.1,3.1v1.6
		C328.2,803.7,326.8,805,325.1,805z"/>
</g>
<polygon class="st23" points="376.4,622.7 496.8,622.7 513.1,677 360.1,677 "/>
<polygon class="st24" points="376.4,622.7 496.8,622.7 513.1,677 360.1,677 "/>
<g>
	<defs>
		<rect id="SVGID_13_" x="0.3" width="588" height="972"/>
	</defs>
	<clipPath id="SVGID_14_">
		<use xlink:href="#SVGID_13_"  style="overflow:visible;"/>
	</clipPath>
	<path class="st25" d="M484.8,646.2h-6.9c-2.6,0-4.6-2.1-4.6-4.6v-0.4c0-2.6,2.1-4.6,4.6-4.6h6.9c2.6,0,4.6,2.1,4.6,4.6v0.4
		C489.5,644.1,487.4,646.2,484.8,646.2"/>
	<path class="st26" d="M484.8,646.2h-6.9c-2.6,0-4.6-2.1-4.6-4.6v-0.4c0-2.6,2.1-4.6,4.6-4.6h6.9c2.6,0,4.6,2.1,4.6,4.6v0.4
		C489.5,644.1,487.4,646.2,484.8,646.2z"/>
	<path class="st25" d="M461.2,646.2h-6.9c-2.6,0-4.6-2.1-4.6-4.6v-0.4c0-2.6,2.1-4.6,4.6-4.6h6.9c2.6,0,4.6,2.1,4.6,4.6v0.4
		C465.9,644.1,463.8,646.2,461.2,646.2"/>
	<path class="st26" d="M461.2,646.2h-6.9c-2.6,0-4.6-2.1-4.6-4.6v-0.4c0-2.6,2.1-4.6,4.6-4.6h6.9c2.6,0,4.6,2.1,4.6,4.6v0.4
		C465.9,644.1,463.8,646.2,461.2,646.2z"/>
	<path class="st27" d="M514.4,624.1H358.8c-3.8,0-7-3.1-7-7V476.2c0-3.8,3.1-7,7-7h155.6c3.8,0,7,3.1,7,7v140.9
		C521.4,621,518.3,624.1,514.4,624.1"/>
	<path class="st28" d="M514.4,624.1H358.8c-3.8,0-7-3.1-7-7V476.2c0-3.8,3.1-7,7-7h155.6c3.8,0,7,3.1,7,7v140.9
		C521.4,621,518.3,624.1,514.4,624.1z"/>
</g>
<rect x="371.9" y="488.7" class="st29" width="129" height="113.9"/>
<rect x="371.9" y="488.7" class="st30" width="129" height="113.9"/>
<rect x="342" y="651.8" class="st31" width="23.4" height="7.1"/>
<rect x="367.9" y="651.8" class="st31" width="163.9" height="8.8"/>
<rect x="332.1" y="657.6" class="st32" width="209" height="23.4"/>
<rect x="332.1" y="657.6" class="st8" width="209" height="23.4"/>
</svg>
