<?xml version="1.0" encoding="utf-8"?>
<!-- Generator: Adobe Illustrator 16.0.0, SVG Export Plug-In . SVG Version: 6.00 Build 0)  -->
<!DOCTYPE svg PUBLIC "-//W3C//DTD SVG 1.1//EN" "http://www.w3.org/Graphics/SVG/1.1/DTD/svg11.dtd">
<svg version="1.1" id="Ebene_1" xmlns="http://www.w3.org/2000/svg" xmlns:xlink="http://www.w3.org/1999/xlink" x="0px" y="0px"
	 width="506px" height="230px" viewBox="0 0 506 230" enable-background="new 0 0 506 230" xml:space="preserve">
<g>
	<path d="M78.365,146.531H63.029V91.816H47.001v54.715H31.665V91.816H15.637v54.715H0.3V77.447h78.065V146.531z"/>
	<path d="M126.998,101.903c0-8.29-6.218-12.021-12.159-12.021c-7.323,0-11.883,3.73-12.021,9.534H86.929
		c0-18.1,15.751-23.627,28.462-23.627c12.574,0,26.943,5.941,26.943,23.489l0.138,47.253h-15.475v-5.112
		c-3.869,3.454-9.119,6.355-18.1,6.355c-12.159,0-23.489-7.185-23.489-22.106c0-14.37,11.745-23.351,24.318-23.351
		c10.915,0,17.271,6.632,17.271,6.632V101.903z M126.307,125.529c0-6.493-5.941-9.947-12.435-9.947
		c-6.494,0-12.435,3.454-12.435,10.086c0,6.079,5.803,9.672,12.297,9.672C120.227,135.34,126.307,132.023,126.307,125.529z"/>
	<path d="M169.414,61.143c0,5.389-4.56,9.948-9.948,9.948s-9.81-4.56-9.81-9.948c0-5.388,4.421-9.81,9.81-9.81
		S169.414,55.755,169.414,61.143z M151.866,146.531h15.336V77.447h-15.336V146.531z"/>
	<path d="M218.599,146.531V91.816h-25.975v54.715h-15.337V77.447h56.649v69.084H218.599z"/>
	<path d="M294.732,131.886v14.646h-54.581c0,0,32.198-54.715,31.782-54.715h-29.02V77.447h55.271c0,0-31.225,54.438-30.811,54.438
		H294.732z"/>
	<path d="M359.117,117.516h-44.904c0.689,8.566,7.322,15.89,16.441,15.89c9.811,0,12.297-5.526,13.541-9.533h14.922
		c-1.52,10.5-7.6,24.317-29.291,24.317c-23.766,0-32.885-16.442-32.885-35.924c0-19.896,11.053-36.338,32.332-36.338
		c20.586,0,30.258,16.58,30.258,35.095C359.531,112.957,359.393,115.443,359.117,117.516z M342.951,105.495
		c0-9.396-5.527-15.336-13.816-15.336c-8.844,0-14.232,5.25-14.922,15.336H342.951z"/>
	<path d="M425.852,49.952v96.166h-59.965v-68.67h44.627V49.952H425.852z M381.223,91.678v40.069h29.291V91.678H381.223z"/>
</g>
</svg>
