<?xml version="1.0" encoding="utf-8"?>
<!-- Generator: Adobe Illustrator 20.0.0, SVG Export Plug-In . SVG Version: 6.00 Build 0)  -->
<svg version="1.1" id="Ebene_1" xmlns="http://www.w3.org/2000/svg" xmlns:xlink="http://www.w3.org/1999/xlink" x="0px" y="0px"
	 viewBox="0 0 2048 1030.8" style="enable-background:new 0 0 2048 1030.8;" xml:space="preserve">
<style type="text/css">
	.st0{clip-path:url(#SVGID_2_);}
	.st1{opacity:0.2;clip-path:url(#SVGID_4_);}
	.st2{clip-path:url(#SVGID_6_);fill:#1D1D1B;}
	.st3{clip-path:url(#SVGID_8_);}
	.st4{clip-path:url(#SVGID_10_);}
	.st5{clip-path:url(#SVGID_2_);fill:#1A171B;}
	.st6{clip-path:url(#SVGID_12_);fill:#1A171B;}
	.st7{clip-path:url(#SVGID_16_);}
	.st8{clip-path:url(#SVGID_20_);fill:none;stroke:#1C1C1C;stroke-width:4.43;stroke-miterlimit:10;}
	.st9{clip-path:url(#SVGID_20_);fill:#868686;}
	.st10{clip-path:url(#SVGID_20_);fill:#595959;}
	.st11{clip-path:url(#SVGID_20_);fill:none;stroke:#1C1C1C;stroke-width:2.215;stroke-miterlimit:10;}
	.st12{clip-path:url(#SVGID_20_);fill:#B1B1B1;}
	.st13{clip-path:url(#SVGID_2_);fill:none;stroke:#1C1C1C;stroke-width:4.43;stroke-miterlimit:10;}
	.st14{clip-path:url(#SVGID_22_);fill:#1C1C1C;}
	.st15{clip-path:url(#SVGID_22_);fill:#868686;}
	.st16{clip-path:url(#SVGID_22_);fill:none;stroke:#1C1C1C;stroke-width:2.215;stroke-miterlimit:10;}
	.st17{clip-path:url(#SVGID_22_);fill:none;stroke:#1C1C1C;stroke-width:11.075;stroke-miterlimit:10;}
	.st18{clip-path:url(#SVGID_2_);fill:#575757;}
	.st19{clip-path:url(#SVGID_2_);fill:none;stroke:#1C1C1C;stroke-width:2.215;stroke-miterlimit:10;}
	.st20{clip-path:url(#SVGID_24_);fill:#868686;}
	.st21{clip-path:url(#SVGID_24_);fill:none;stroke:#1C1C1C;stroke-width:4.43;stroke-miterlimit:10;}
	.st22{clip-path:url(#SVGID_24_);fill:#6B6B6B;}
	.st23{clip-path:url(#SVGID_24_);fill:#C6C6C6;}
	.st24{clip-path:url(#SVGID_24_);fill:none;stroke:#1C1C1C;stroke-width:6.645;stroke-miterlimit:10;}
	.st25{clip-path:url(#SVGID_26_);fill:#B1B1B1;}
	.st26{clip-path:url(#SVGID_26_);fill:none;stroke:#1C1C1C;stroke-width:4.43;stroke-miterlimit:10;}
	.st27{clip-path:url(#SVGID_26_);fill:none;stroke:#1C1C1C;stroke-width:2.215;stroke-miterlimit:10;}
	.st28{clip-path:url(#SVGID_2_);fill:#6B6B6B;}
	.st29{clip-path:url(#SVGID_2_);fill:none;stroke:#1C1C1C;stroke-width:11.075;stroke-miterlimit:10;}
	.st30{clip-path:url(#SVGID_28_);fill:#F4F4F4;}
	.st31{clip-path:url(#SVGID_28_);fill:none;stroke:#1C1C1C;stroke-width:4.43;stroke-miterlimit:10;}
	.st32{clip-path:url(#SVGID_28_);fill:#575757;}
	.st33{clip-path:url(#SVGID_28_);fill:none;stroke:#1C1C1C;stroke-width:13.29;stroke-miterlimit:10;}
	.st34{clip-path:url(#SVGID_2_);fill:#868686;}
	.st35{clip-path:url(#SVGID_2_);fill:none;stroke:#1C1C1C;stroke-width:6.645;stroke-miterlimit:10;}
	.st36{clip-path:url(#SVGID_2_);fill:#1C1C1C;}
	.st37{clip-path:url(#SVGID_2_);fill:#DFDFDF;}
</style>
<g>
	<defs>
		<rect id="SVGID_1_" y="-43" width="2048.6" height="1517"/>
	</defs>
	<clipPath id="SVGID_2_">
		<use xlink:href="#SVGID_1_"  style="overflow:visible;"/>
	</clipPath>
	<g class="st0">
		<defs>
			<rect id="SVGID_3_" y="-43" width="2048.6" height="1517"/>
		</defs>
		<clipPath id="SVGID_4_">
			<use xlink:href="#SVGID_3_"  style="overflow:visible;"/>
		</clipPath>
		<g class="st1">
			<g>
				<defs>
					<rect id="SVGID_5_" x="502.1" y="176.8" width="1555.8" height="854"/>
				</defs>
				<clipPath id="SVGID_6_">
					<use xlink:href="#SVGID_5_"  style="overflow:visible;"/>
				</clipPath>
				<rect x="511.4" y="184" class="st2" width="1537.2" height="845.8"/>
			</g>
		</g>
	</g>
	<path class="st0" d="M50.5,134.3h82.6v129.6H50.5V134.3z M0,87.9v305.6h50.5v-83.5h133.1v-222H0z"/>
	<g class="st0">
		<defs>
			<rect id="SVGID_7_" y="-43" width="2048.6" height="1517"/>
		</defs>
		<clipPath id="SVGID_8_">
			<use xlink:href="#SVGID_7_"  style="overflow:visible;"/>
		</clipPath>
		<path class="st3" d="M387.8,86.5v223.4h-50.5v-21c-10.7,16.5-31.3,25.5-57.2,25.5c-37.5,0-72.4-29.5-72.4-73.7V86.5h50.5v143
			c1.3,24.6,14.3,35.7,36.6,35.7c25,0,42.4-19.2,42.4-52.7v-126H387.8z"/>
		<path class="st3" d="M591.9,241.6c-0.4,48.2-36.6,72.8-92.5,72.8c-60.3,0-92.5-41.1-95.2-80h50.9c2.2,20.1,22.3,32.2,41.5,32.2
			c17.4,0,40.2,0,40.2-21.9c0-24.1-36.6-24.1-54.1-29c-17.9-4.9-70.6-17-70.1-66.1c0.4-41.5,37.1-67.5,88.5-67.5
			c52.7,0,90.7,25.5,91.1,75.1h-50.9c-0.4-19.2-16.1-29-38.9-29c-20.1,0-36.2,3.1-36.2,20.1c0,17.4,43.8,24.6,62.1,30.4
			C556.6,187.5,592.4,206.3,591.9,241.6"/>
		<path class="st3" d="M788.9,157.1v152.8h-50.5V168.7c-1.3-21.4-10.7-38-35.3-38c-23.7,0-41.1,14.3-43.8,47.8v131.3h-50.5V3h50.5
			v105.9c12.1-17,34.4-26.8,59.4-26.8C757.7,82.1,788.9,112.9,788.9,157.1"/>
		<path class="st3" d="M117.5,540H92.9c-35.7,0.9-38.4,21-38.4,31.7c0,14.7,12.5,25.5,31.3,25.5c9.8,0,32.2-3.6,32.2-25.9
			C118,559.6,117.5,548.9,117.5,540 M196.6,540.9l-32.2-0.4c0.4,12.1,1.3,25.9,1.3,37.5c0,36.6-34.8,65.2-79.5,65.2
			c-51.4,0-83.5-29.9-84-71.5c-0.4-25.9,13-39.3,27.7-47.4c-14.7-8-28.1-17.4-27.7-43.3c0.4-41.5,31.3-70.1,82.6-70.1
			c24.1,0,47.8,8.5,63.9,25.5l-37.5,30.8c-5.4-6.7-14.3-10.3-25.5-10.3c-20.1,0-31.3,7.1-31.3,24.1c0,11.2,7.1,20.6,35.3,21.9
			l106.8,0.4V540.9z"/>
	</g>
	<path class="st0" d="M303.2,592.7h82.6V463.1h-82.6V592.7z M252.7,722.3V416.7h183.6v222H303.2v83.5H252.7z"/>
	<g class="st0">
		<defs>
			<rect id="SVGID_9_" y="-43" width="2048.6" height="1517"/>
		</defs>
		<clipPath id="SVGID_10_">
			<use xlink:href="#SVGID_9_"  style="overflow:visible;"/>
		</clipPath>
		<path class="st4" d="M640.4,415.3v223.4H590v-21c-10.7,16.5-31.3,25.5-57.2,25.5c-37.5,0-72.4-29.5-72.4-73.7V415.3h50.5v143
			c1.3,24.6,14.3,35.7,36.6,35.7c25,0,42.4-19.2,42.4-52.7v-126H640.4z"/>
	</g>
	<rect x="664.6" y="331.8" class="st0" width="50.5" height="306.9"/>
	<rect x="739.2" y="331.8" class="st0" width="50.5" height="306.9"/>
	<g class="st0">
		<defs>
			<rect id="SVGID_19_" y="-43" width="2048.6" height="1517"/>
		</defs>
		<clipPath id="SVGID_12_">
			<use xlink:href="#SVGID_19_"  style="overflow:visible;"/>
		</clipPath>
		<path style="clip-path:url(#SVGID_12_);fill:none;stroke:#1C1C1C;stroke-width:4.43;stroke-miterlimit:10;" d="M1326,609.7
			c3,1.8,1.2,11.4,4.1,13.2c3,1.8,10.5-4.5,13.5-2.8c3,1.7,1.6,11.4,4.6,13c3,1.6,10.3-4.9,13.3-3.4c3.1,1.5,2.2,11.3,5.3,12.7
			c3.1,1.4,9.9-5.6,13.1-4.3c3.2,1.3,3.1,11.1,6.3,12.3c3.2,1.2,9.4-6.4,12.6-5.5c3.3,1,4.2,10.7,7.5,11.5c3.3,0.8,8.6-7.5,11.9-6.9
			c3.4,0.6,5.5,10.1,8.9,10.5c3.4,0.4,7.5-8.5,10.9-8.4c3.4,0.1,6.8,9.3,10.3,9.2c3.4-0.1,6.2-9.5,9.6-9.8c3.4-0.3,8,8.3,11.4,7.7
			c3.3-0.6,4.8-10.2,8.2-11c3.3-0.8,9,7.2,12.3,6.2c3.2-1,3.6-10.7,6.9-11.9c3.2-1.1,9.7,6.1,12.9,4.8c3.1-1.3,2.5-11.1,5.7-12.6
			c3-1.4,10.2,5.2,13.3,3.6c3-1.6,1.6-11.2,4.6-13 M1518.4,820.7c2.4-2.3,11.1,1.9,13.3-0.3c2.4-2.4-1.9-11.1,0.4-13.3
			c2.3-2.4,11.1,1.8,13.3-0.5c2.3-2.4-2-11.1,0.2-13.3c2.3-2.4,11.2,1.6,13.3-0.7c2.3-2.4-2.2-11-0.1-13.3
			c2.3-2.4,11.2,1.4,13.3-0.9c2.2-2.5-2.5-11-0.4-13.3c2.2-2.5,11.2,1.1,13.3-1.3c2.1-2.5-2.8-10.8-0.8-13.3
			c2.1-2.5,11.2,0.8,13.2-1.7c2-2.5-3.2-10.7-1.2-13.3c2-2.5,11.2,0.6,13.2-2c1.9-2.5-3.4-10.6-1.4-13.2c1.9-2.5,11.1,0.5,13.1-2.2
			c1.9-2.5-3.5-10.6-1.5-13.2c1.9-2.5,11.1,0.4,13.1-2.2c1.9-2.5-3.5-10.6-1.5-13.2c1.9-2.5,11.1,0.4,13.1-2.2
			c1.9-2.5-3.5-10.6-1.5-13.2c1.9-2.5,11.1,0.5,13.1-2.2c1.9-2.5-3.4-10.6-1.4-13.3 M1206.5,652.5c1.1,3.2-6.5,9.2-5.5,12.2
			c1.1,3.2,10.8,3.3,11.8,6.2c1.1,3.2-6.5,9.3-5.5,12.2c1.1,3.2,10.8,3.2,11.9,6.2c1.1,3.2-6.4,9.3-5.3,12.3c1.2,3.2,10.9,3.1,12,6
			c1.2,3.2-6.2,9.5-5.1,12.4c1.2,3.2,10.9,2.7,12.1,5.6c1.3,3.1-5.8,9.7-4.5,12.6c1.4,3.1,11,2.1,12.4,4.9c1.5,3-5.1,10.1-3.6,12.9
			c1.6,2.9,11.1,1,12.8,3.8c1.7,2.7-4.3,10.4-2.5,13.1c1.7,2.6,11.1,0.1,13.1,2.8c1.8,2.6-3.7,10.5-1.7,13.3
			c1.9,2.5,11.1-0.4,13.2,2.3c1.9,2.5-3.4,10.6-1.3,13.3c1.9,2.5,11.1-0.6,13.2,2.1c1.9,2.5-3.3,10.7-1.2,13.3
			c1.9,2.5,11.1-0.6,13.2,2c1.9,2.5-3.3,10.7-1.2,13.3c1.9,2.5,11.2-0.6,13.2,2.1"/>
		<path style="clip-path:url(#SVGID_12_);fill:#868686;" d="M1314.4,553.1c1,7.1-4.1,12.9-11.2,12.9H1041c-7.1,0-12.2-5.8-11.2-12.9
			l23-169.1c1-7.1,7.6-12.9,14.7-12.9h209.2c7.1,0,13.8,5.8,14.7,12.9L1314.4,553.1z"/>
		<path style="clip-path:url(#SVGID_12_);fill:none;stroke:#1C1C1C;stroke-width:4.43;stroke-miterlimit:10;" d="M1314.4,553.1
			c1,7.1-4.1,12.9-11.2,12.9H1041c-7.1,0-12.2-5.8-11.2-12.9l23-169.1c1-7.1,7.6-12.9,14.7-12.9h209.2c7.1,0,13.8,5.8,14.7,12.9
			L1314.4,553.1z"/>
		<path style="clip-path:url(#SVGID_12_);fill:#595959;" d="M1266.6,554.1h-189.1c-5.2,0-9.5-4.2-9.5-9.5V403.2
			c0-5.2,4.2-9.5,9.5-9.5h189.1c5.2,0,9.5,4.2,9.5,9.5v141.4C1276.1,549.8,1271.8,554.1,1266.6,554.1"/>
		<path style="clip-path:url(#SVGID_12_);fill:none;stroke:#1C1C1C;stroke-width:2.215;stroke-miterlimit:10;" d="M1266.6,554.1
			h-189.1c-5.2,0-9.5-4.2-9.5-9.5V403.2c0-5.2,4.2-9.5,9.5-9.5h189.1c5.2,0,9.5,4.2,9.5,9.5v141.4
			C1276.1,549.8,1271.8,554.1,1266.6,554.1z"/>
		<path style="clip-path:url(#SVGID_12_);fill:#B1B1B1;" d="M1212.2,521.1h-122.3c-4.4,0-8-3.6-8-8v-97.5c0-4.4,3.6-8,8-8h122.3
			c4.4,0,8,3.6,8,8v97.5C1220.2,517.5,1216.7,521.1,1212.2,521.1"/>
		<path style="clip-path:url(#SVGID_12_);fill:none;stroke:#1C1C1C;stroke-width:2.215;stroke-miterlimit:10;" d="M1212.2,521.1
			h-122.3c-4.4,0-8-3.6-8-8v-97.5c0-4.4,3.6-8,8-8h122.3c4.4,0,8,3.6,8,8v97.5C1220.2,517.5,1216.7,521.1,1212.2,521.1z"/>
	</g>
	<line class="st13" x1="1081.2" y1="537.2" x2="1134.9" y2="537.2"/>
	<g class="st0">
		<defs>
			<rect id="SVGID_21_" y="-43" width="2048.6" height="1517"/>
		</defs>
		<clipPath id="SVGID_14_">
			<use xlink:href="#SVGID_21_"  style="overflow:visible;"/>
		</clipPath>
		<path style="clip-path:url(#SVGID_14_);fill:#1C1C1C;" d="M1143.6,543.5h-6.5c-2.2,0-4-1.8-4-4v-2.6c0-2.2,1.8-4,4-4h6.5
			c2.2,0,4,1.8,4,4v2.6C1147.6,541.7,1145.8,543.5,1143.6,543.5"/>
		<path style="clip-path:url(#SVGID_14_);fill:#868686;" d="M1268.6,414.4c0,4.5-3.6,8.1-8.1,8.1c-4.5,0-8.1-3.6-8.1-8.1
			c0-4.5,3.6-8.1,8.1-8.1C1265,406.2,1268.6,409.9,1268.6,414.4"/>
		
			<circle style="clip-path:url(#SVGID_14_);fill:none;stroke:#1C1C1C;stroke-width:2.215;stroke-miterlimit:10;" cx="1260.5" cy="414.4" r="8.1"/>
		<path style="clip-path:url(#SVGID_14_);fill:#868686;" d="M1268.6,444.8c0,4.5-3.6,8.1-8.1,8.1c-4.5,0-8.1-3.6-8.1-8.1
			c0-4.5,3.6-8.1,8.1-8.1C1265,436.7,1268.6,440.4,1268.6,444.8"/>
		
			<circle style="clip-path:url(#SVGID_14_);fill:none;stroke:#1C1C1C;stroke-width:2.215;stroke-miterlimit:10;" cx="1260.5" cy="444.8" r="8.1"/>
		<path style="clip-path:url(#SVGID_14_);fill:#868686;" d="M1268.6,474.3c0,4.5-3.6,8.1-8.1,8.1c-4.5,0-8.1-3.6-8.1-8.1
			c0-4.5,3.6-8.1,8.1-8.1C1265,466.1,1268.6,469.8,1268.6,474.3"/>
		
			<circle style="clip-path:url(#SVGID_14_);fill:none;stroke:#1C1C1C;stroke-width:2.215;stroke-miterlimit:10;" cx="1260.5" cy="474.3" r="8.1"/>
		<path style="clip-path:url(#SVGID_14_);fill:#868686;" d="M1339,650.9h-333.8c-8.1,0-14.6-5.8-14.6-13l8.6-57.6
			c0-7.1,6.6-13,14.6-13h315.9c8.1,0,14.6,5.8,14.6,13l9.3,57.6C1353.6,645,1347,650.9,1339,650.9"/>
		<path style="clip-path:url(#SVGID_14_);fill:none;stroke:#1C1C1C;stroke-width:11.075;stroke-miterlimit:10;" d="M1339,650.9
			h-333.8c-8.1,0-14.6-5.8-14.6-13l8.6-57.6c0-7.1,6.6-13,14.6-13h315.9c8.1,0,14.6,5.8,14.6,13l9.3,57.6
			C1353.6,645,1347,650.9,1339,650.9z"/>
	</g>
	<path class="st13" d="M1254.4,581.2v55.2 M1244.8,581.2v55.2 M1235.1,581.2v55.2 M1283.4,581.2v55.2 M1273.7,581.2v55.2
		 M1264.1,581.2v55.2 M1312.4,581.2v55.2 M1302.7,581.2v55.2 M1293.1,581.2v55.2"/>
	<rect x="1037.9" y="579.6" class="st18" width="118.8" height="59.3"/>
	<rect x="1037.9" y="579.6" class="st19" width="118.8" height="59.3"/>
	<g class="st0">
		<defs>
			<rect id="SVGID_23_" y="-43" width="2048.6" height="1517"/>
		</defs>
		<clipPath id="SVGID_16_">
			<use xlink:href="#SVGID_23_"  style="overflow:visible;"/>
		</clipPath>
		<path style="clip-path:url(#SVGID_16_);fill:#868686;" d="M1544,987.5h-236.3c-7.9,0-14.3-6.4-14.3-14.3V816.5
			c0-7.9,6.4-14.3,14.3-14.3H1544c7.9,0,14.3,6.4,14.3,14.3v156.6C1558.2,981.1,1551.9,987.5,1544,987.5"/>
		<path style="clip-path:url(#SVGID_16_);fill:none;stroke:#1C1C1C;stroke-width:4.43;stroke-miterlimit:10;" d="M1544,987.5h-236.3
			c-7.9,0-14.3-6.4-14.3-14.3V816.5c0-7.9,6.4-14.3,14.3-14.3H1544c7.9,0,14.3,6.4,14.3,14.3v156.6
			C1558.2,981.1,1551.9,987.5,1544,987.5z"/>
		<path style="clip-path:url(#SVGID_16_);fill:#6B6B6B;" d="M1537.6,954.1h-226.5c-4.7,0-8.6-3.8-8.6-8.6V820.3
			c0-4.7,3.8-8.6,8.6-8.6h226.5c4.7,0,8.6,3.8,8.6,8.6v125.3C1546.2,950.3,1542.3,954.1,1537.6,954.1"/>
		<path style="clip-path:url(#SVGID_16_);fill:#C6C6C6;" d="M1442.9,945.4h-113.7c-9.6,0-17.3-7.8-17.3-17.3v-89.4
			c0-9.6,7.8-17.3,17.3-17.3h113.7c9.6,0,17.3,7.8,17.3,17.3V928C1460.3,937.6,1452.5,945.4,1442.9,945.4"/>
		<path style="clip-path:url(#SVGID_16_);fill:none;stroke:#1C1C1C;stroke-width:6.645;stroke-miterlimit:10;" d="M1442.9,945.4
			h-113.7c-9.6,0-17.3-7.8-17.3-17.3v-89.4c0-9.6,7.8-17.3,17.3-17.3h113.7c9.6,0,17.3,7.8,17.3,17.3V928
			C1460.3,937.6,1452.5,945.4,1442.9,945.4z"/>
	</g>
	<path class="st13" d="M1461.4,961.2v14.5 M1453.6,961.2v14.5 M1445.7,961.2v14.5 M1437.8,961.2v14.5 M1430,961.2v14.5
		 M1422.1,961.2v14.5 M1414.2,961.2v14.5 M1406.4,961.2v14.5 M1398.5,961.2v14.5 M1390.7,961.2v14.5 M1382.8,961.2v14.5
		 M1374.9,961.2v14.5 M1367.1,961.2v14.5 M1359.2,961.2v14.5 M1351.3,961.2v14.5 M1343.5,961.2v14.5 M1335.6,961.2v14.5
		 M1327.7,961.2v14.5 M1319.9,961.2v14.5 M1312,961.2v14.5 M1304.2,961.2v14.5"/>
	<path class="st19" d="M1506.8,819.8h32.7 M1506.8,825.1h32.7 M1506.8,830.5h32.7 M1506.8,835.8h32.7 M1506.8,841.1h32.7
		 M1506.8,846.4h32.7 M1506.8,851.7h32.7 M1506.8,857h32.7 M1506.8,862.3h32.7 M1506.8,867.7h32.7 M1506.8,873h32.7 M1506.8,878.3
		h32.7 M1506.8,883.6h32.7 M1506.8,888.9h32.7 M1506.8,894.2h32.7 M1506.8,899.5h32.7 M1506.8,904.8h32.7 M1506.8,910.2h32.7
		 M1506.8,915.5h32.7 M1506.8,920.8h32.7 M1506.8,926.1h32.7"/>
	<g class="st0">
		<defs>
			<rect id="SVGID_25_" y="-43" width="2048.6" height="1517"/>
		</defs>
		<clipPath id="SVGID_18_">
			<use xlink:href="#SVGID_25_"  style="overflow:visible;"/>
		</clipPath>
		<path style="clip-path:url(#SVGID_18_);fill:#B1B1B1;" d="M1539.2,976H1527c-3.1,0-5.6-2.5-5.6-5.6v-2.9c0-3.1,2.5-5.6,5.6-5.6
			h12.2c3.1,0,5.6,2.5,5.6,5.6v2.9C1544.8,973.5,1542.3,976,1539.2,976"/>
		<path style="clip-path:url(#SVGID_18_);fill:none;stroke:#1C1C1C;stroke-width:4.43;stroke-miterlimit:10;" d="M1539.2,976H1527
			c-3.1,0-5.6-2.5-5.6-5.6v-2.9c0-3.1,2.5-5.6,5.6-5.6h12.2c3.1,0,5.6,2.5,5.6,5.6v2.9C1544.8,973.5,1542.3,976,1539.2,976z"/>
		<path style="clip-path:url(#SVGID_18_);fill:#B1B1B1;" d="M1490.5,832.9h-12.2c-3.1,0-5.6-2.5-5.6-5.6v-2.9c0-3.1,2.5-5.6,5.6-5.6
			h12.2c3.1,0,5.6,2.5,5.6,5.6v2.9C1496,830.4,1493.5,832.9,1490.5,832.9"/>
		<path style="clip-path:url(#SVGID_18_);fill:none;stroke:#1C1C1C;stroke-width:2.215;stroke-miterlimit:10;" d="M1490.5,832.9
			h-12.2c-3.1,0-5.6-2.5-5.6-5.6v-2.9c0-3.1,2.5-5.6,5.6-5.6h12.2c3.1,0,5.6,2.5,5.6,5.6v2.9C1496,830.4,1493.5,832.9,1490.5,832.9z
			"/>
		<path style="clip-path:url(#SVGID_18_);fill:#B1B1B1;" d="M1490.5,852.2h-12.2c-3.1,0-5.6-2.5-5.6-5.6v-2.9c0-3.1,2.5-5.6,5.6-5.6
			h12.2c3.1,0,5.6,2.5,5.6,5.6v2.9C1496,849.7,1493.5,852.2,1490.5,852.2"/>
		<path style="clip-path:url(#SVGID_18_);fill:none;stroke:#1C1C1C;stroke-width:2.215;stroke-miterlimit:10;" d="M1490.5,852.2
			h-12.2c-3.1,0-5.6-2.5-5.6-5.6v-2.9c0-3.1,2.5-5.6,5.6-5.6h12.2c3.1,0,5.6,2.5,5.6,5.6v2.9C1496,849.7,1493.5,852.2,1490.5,852.2z
			"/>
		<path style="clip-path:url(#SVGID_18_);fill:#B1B1B1;" d="M1490.5,871.1h-12.2c-3.1,0-5.6-2.5-5.6-5.6v-2.9c0-3.1,2.5-5.6,5.6-5.6
			h12.2c3.1,0,5.6,2.5,5.6,5.6v2.9C1496,868.6,1493.5,871.1,1490.5,871.1"/>
		<path style="clip-path:url(#SVGID_18_);fill:none;stroke:#1C1C1C;stroke-width:2.215;stroke-miterlimit:10;" d="M1490.5,871.1
			h-12.2c-3.1,0-5.6-2.5-5.6-5.6v-2.9c0-3.1,2.5-5.6,5.6-5.6h12.2c3.1,0,5.6,2.5,5.6,5.6v2.9C1496,868.6,1493.5,871.1,1490.5,871.1z
			"/>
		<path style="clip-path:url(#SVGID_18_);fill:#B1B1B1;" d="M1490.5,890.8h-12.2c-3.1,0-5.6-2.5-5.6-5.6v-2.9c0-3.1,2.5-5.6,5.6-5.6
			h12.2c3.1,0,5.6,2.5,5.6,5.6v2.9C1496,888.3,1493.5,890.8,1490.5,890.8"/>
		<path style="clip-path:url(#SVGID_18_);fill:none;stroke:#1C1C1C;stroke-width:2.215;stroke-miterlimit:10;" d="M1490.5,890.8
			h-12.2c-3.1,0-5.6-2.5-5.6-5.6v-2.9c0-3.1,2.5-5.6,5.6-5.6h12.2c3.1,0,5.6,2.5,5.6,5.6v2.9C1496,888.3,1493.5,890.8,1490.5,890.8z
			"/>
	</g>
	<polygon class="st28" points="1583.4,560.2 1801.9,560.2 1831.4,658.6 1553.9,658.6 	"/>
	<polygon class="st29" points="1583.4,560.2 1801.9,560.2 1831.4,658.6 1553.9,658.6 	"/>
	<g class="st0">
		<defs>
			<rect id="SVGID_27_" y="-43" width="2048.6" height="1517"/>
		</defs>
		<clipPath id="SVGID_20_">
			<use xlink:href="#SVGID_27_"  style="overflow:visible;"/>
		</clipPath>
		<path style="clip-path:url(#SVGID_20_);fill:#F4F4F4;" d="M1780.1,602.8h-12.5c-4.6,0-8.4-3.8-8.4-8.4v-0.8c0-4.6,3.8-8.4,8.4-8.4
			h12.5c4.6,0,8.4,3.8,8.4,8.4v0.8C1788.5,599,1784.7,602.8,1780.1,602.8"/>
		<path class="st8" d="M1780.1,602.8h-12.5c-4.6,0-8.4-3.8-8.4-8.4v-0.8c0-4.6,3.8-8.4,8.4-8.4h12.5c4.6,0,8.4,3.8,8.4,8.4v0.8
			C1788.5,599,1784.7,602.8,1780.1,602.8z"/>
		<path style="clip-path:url(#SVGID_20_);fill:#F4F4F4;" d="M1737.4,602.8h-12.5c-4.6,0-8.4-3.8-8.4-8.4v-0.8c0-4.6,3.8-8.4,8.4-8.4
			h12.5c4.6,0,8.4,3.8,8.4,8.4v0.8C1745.8,599,1742,602.8,1737.4,602.8"/>
		<path class="st8" d="M1737.4,602.8h-12.5c-4.6,0-8.4-3.8-8.4-8.4v-0.8c0-4.6,3.8-8.4,8.4-8.4h12.5c4.6,0,8.4,3.8,8.4,8.4v0.8
			C1745.8,599,1742,602.8,1737.4,602.8z"/>
		<path style="clip-path:url(#SVGID_20_);fill:#575757;" d="M1833.8,562.6h-282.3c-7,0-12.6-5.6-12.6-12.6V294.5
			c0-7,5.6-12.6,12.6-12.6h282.3c7,0,12.6,5.6,12.6,12.6V550C1846.4,557,1840.7,562.6,1833.8,562.6"/>
		<path style="clip-path:url(#SVGID_20_);fill:none;stroke:#1C1C1C;stroke-width:13.29;stroke-miterlimit:10;" d="M1833.8,562.6
			h-282.3c-7,0-12.6-5.6-12.6-12.6V294.5c0-7,5.6-12.6,12.6-12.6h282.3c7,0,12.6,5.6,12.6,12.6V550
			C1846.4,557,1840.7,562.6,1833.8,562.6z"/>
	</g>
	<rect x="1575.4" y="317.2" class="st34" width="234" height="206.5"/>
	<rect x="1575.4" y="317.2" class="st35" width="234" height="206.5"/>
	<rect x="1521.2" y="613" class="st36" width="42.5" height="12.9"/>
	<rect x="1568.1" y="613" class="st36" width="297.2" height="15.9"/>
	<rect x="1503.1" y="623.4" class="st37" width="379" height="42.5"/>
	<rect x="1503.1" y="623.4" class="st13" width="379" height="42.5"/>
</g>
</svg>
