<?xml version="1.0" encoding="utf-8"?>
<!-- Generator: Adobe Illustrator 16.0.0, SVG Export Plug-In . SVG Version: 6.00 Build 0)  -->
<!DOCTYPE svg PUBLIC "-//W3C//DTD SVG 1.1//EN" "http://www.w3.org/Graphics/SVG/1.1/DTD/svg11.dtd">
<svg version="1.1" id="Ebene_1" xmlns="http://www.w3.org/2000/svg" xmlns:xlink="http://www.w3.org/1999/xlink" x="0px" y="0px"
	 width="343.197px" height="80.873px" viewBox="0 0 343.197 80.873" enable-background="new 0 0 343.197 80.873"
	 xml:space="preserve">
<g>
	<path fill="#1A171B" d="M63.513,78.734H50.976V34.8H38.439v43.935H25.902V34.8H13.365v43.935H0.829V23.261h62.685V78.734z"/>
	<path fill="#1A171B" d="M102.564,43.231c0-7.212-4.993-9.764-9.763-9.764c-5.88,0-9.542,2.774-9.652,7.434H70.39
		c0-14.534,12.648-18.75,22.855-18.75c10.096,0,21.746,4.771,21.746,19.083l0.111,37.5h-12.537v-4.105
		c-3.106,2.774-6.99,5.104-14.201,5.104c-9.763,0-19.194-5.769-19.194-17.751c0-11.538,9.763-18.639,19.859-18.639
		c8.654,0,13.536,5.214,13.536,5.214V43.231z M102.01,61.87c0-5.214-4.771-7.987-9.985-7.987c-5.214,0-9.985,2.773-9.985,8.099
		c0,4.882,4.66,7.767,9.874,7.767S102.01,67.085,102.01,61.87z"/>
	<path fill="#1A171B" d="M136.733,10.28c0,4.327-3.662,7.988-7.988,7.988c-4.327,0-7.877-3.661-7.877-7.988s3.55-7.877,7.877-7.877
		C133.072,2.403,136.733,5.953,136.733,10.28z M122.532,78.734h12.537V23.261h-12.537V78.734z"/>
	<path fill="#1A171B" d="M188.878,78.734h-12.537V34.8h-20.414v43.935H143.39V23.261h45.488V78.734z"/>
	<path fill="#1A171B" d="M237.249,78.734h-43.047l24.63-43.935h-22.966V23.261h43.269l-23.854,43.713h21.968V78.734z"/>
	<path fill="#1A171B" d="M288.281,55.769h-35.503c0.555,6.989,5.325,12.204,12.537,12.204c6.768,0,9.542-4.216,10.54-7.988h12.093
		c-1.109,8.321-5.88,19.859-23.077,19.859c-18.195,0-25.961-12.759-25.961-28.514c0-15.421,8.765-29.179,25.629-29.179
		c16.42,0,23.964,13.758,24.075,28.292C288.614,51.996,288.503,54.104,288.281,55.769z M275.522,45.783
		c-0.111-6.989-4.105-12.204-10.873-12.204c-6.879,0-11.316,4.549-11.982,12.204H275.522z"/>
	<path fill="#1A171B" d="M340.313,2.514v75.888h-46.708V23.261h34.171V2.514H340.313z M327.775,34.688h-21.634v32.175h21.634V34.688
		z"/>
</g>
</svg>
